<svg xmlns="http://www.w3.org/2000/svg" width="1800" height="1440" viewBox="0 0 1800 1440"><rect width="1800" height="1440" fill="white"/><text x="20" y="32" font-size="23" font-family="sans-serif">Trace audit — red top / blue bottom / orange inner1 / purple inner2 — panels individually scaled</text><rect x="5" y="65" width="440" height="216" rx="6" fill="#f6f7f8" stroke="#c8cdd4"/><text x="18" y="89" font-family="sans-serif" font-size="18">route 23 · VIO · 26.56 mm</text><text x="18" y="109" font-family="sans-serif" font-size="14">Width 0.250–0.250 mm | 2 layer changes</text><svg x="20" y="117" width="410" height="150" viewBox="-1 9 25.246636 8.399999999999999"><path d="M23.246636,10 L21.047008819174337,12.103440897755387" fill="none" stroke="#c23632" stroke-width="0.25" stroke-linecap="round"/><path d="M21.047008819174337,12.103440897755387 L15.400706985856894,12.016563266516918" fill="none" stroke="#c23632" stroke-width="0.25" stroke-linecap="round"/><path d="M15.400706985856894,12.016563266516918 L15.229730835304016,12.370269164695982" fill="none" stroke="#b96705" stroke-width="0.25" stroke-linecap="round"/><path d="M15.229730835304016,12.370269164695982 L11.2,16.4" fill="none" stroke="#b96705" stroke-width="0.25" stroke-linecap="round"/><path d="M11.2,16.4 L4.4,16.4" fill="none" stroke="#b96705" stroke-width="0.25" stroke-linecap="round"/><path d="M4.4,16.4 L4.364788365039251,16.36478836503925" fill="none" stroke="#c23632" stroke-width="0.25" stroke-linecap="round"/><path d="M4.364788365039251,16.36478836503925 L4.18458614943174,16.36478836503925" fill="none" stroke="#c23632" stroke-width="0.25" stroke-linecap="round"/><path d="M4.18458614943174,16.36478836503925 L1.3647883650392494,16.36478836503925" fill="none" stroke="#c23632" stroke-width="0.25" stroke-linecap="round"/><path d="M1.3647883650392494,16.36478836503925 L0,15" fill="none" stroke="#c23632" stroke-width="0.25" stroke-linecap="round"/><circle cx="15.400706985856894" cy="12.016563266516918" r="0.15" fill="white" stroke="#222" stroke-width="0.07"/><circle cx="4.4" cy="16.4" r="0.15" fill="white" stroke="#222" stroke-width="0.07"/></svg><rect x="455" y="65" width="440" height="216" rx="6" fill="#f6f7f8" stroke="#c8cdd4"/><text x="468" y="89" font-family="sans-serif" font-size="18">route 24 · AOUT1 · 22.71 mm</text><text x="468" y="109" font-family="sans-serif" font-size="14">Width 0.325–1.000 mm | 1 layer changes</text><svg x="470" y="117" width="410" height="150" viewBox="-6.499995 1.9 5.874995 23.1"><path d="M-1.625,2.9 L-1.625,3.708921753095944" fill="none" stroke="#c23632" stroke-width="0.325" stroke-linecap="round"/><path d="M-1.625,3.708921753095944 L-1.625,4.5178435061918885" fill="none" stroke="#c23632" stroke-width="0.325" stroke-linecap="round"/><path d="M-1.625,4.5178435061918885 L-1.625,5.326765259287832" fill="none" stroke="#c23632" stroke-width="0.35000000000000003" stroke-linecap="round"/><path d="M-1.625,5.326765259287832 L-1.625,6.135687012383777" fill="none" stroke="#c23632" stroke-width="0.55" stroke-linecap="round"/><path d="M-1.625,6.135687012383777 L-2.160355135852087,6.671042148235863" fill="none" stroke="#c23632" stroke-width="0.55" stroke-linecap="round"/><path d="M-2.160355135852087,6.671042148235863 L-2.6957102717041734,7.2063972840879496" fill="none" stroke="#c23632" stroke-width="0.55" stroke-linecap="round"/><path d="M-2.6957102717041734,7.2063972840879496 L-2.6957102717041734,7.227243287199462" fill="none" stroke="#c23632" stroke-width="0.525" stroke-linecap="round"/><path d="M-2.6957102717041734,7.227243287199462 L-2.729123801156693,7.260656816651982" fill="none" stroke="#c23632" stroke-width="0.525" stroke-linecap="round"/><path d="M-2.729123801156693,7.260656816651982 L-2.729123801156693,8.258404458402318" fill="none" stroke="#2073b5" stroke-width="1" stroke-linecap="round"/><path d="M-2.729123801156693,8.258404458402318 L-2.729123801156693,9.256152100152654" fill="none" stroke="#2073b5" stroke-width="1" stroke-linecap="round"/><path d="M-2.729123801156693,9.256152100152654 L-2.729123801156693,10.253899741902991" fill="none" stroke="#2073b5" stroke-width="1" stroke-linecap="round"/><path d="M-2.729123801156693,10.253899741902991 L-2.729123801156693,11.251647383653328" fill="none" stroke="#2073b5" stroke-width="1" stroke-linecap="round"/><path d="M-2.729123801156693,11.251647383653328 L-2.729123801156693,12.249395025403665" fill="none" stroke="#2073b5" stroke-width="1" stroke-linecap="round"/><path d="M-2.729123801156693,12.249395025403665 L-2.729123801156693,21.229125051156693" fill="none" stroke="#2073b5" stroke-width="1" stroke-linecap="round"/><path d="M-2.729123801156693,21.229125051156693 L-3.42184160086752,21.92184285086752" fill="none" stroke="#2073b5" stroke-width="1" stroke-linecap="round"/><path d="M-3.42184160086752,21.92184285086752 L-3.42184160086752,21.921846600867518" fill="none" stroke="#2073b5" stroke-width="1" stroke-linecap="round"/><path d="M-3.42184160086752,21.921846600867518 L-5.499995,24" fill="none" stroke="#2073b5" stroke-width="1" stroke-linecap="round"/><circle cx="-2.729123801156693" cy="7.260656816651982" r="0.15" fill="white" stroke="#222" stroke-width="0.07"/></svg><rect x="905" y="65" width="440" height="216" rx="6" fill="#f6f7f8" stroke="#c8cdd4"/><text x="918" y="89" font-family="sans-serif" font-size="18">route 25 · AOUT2 · 21.94 mm</text><text x="918" y="109" font-family="sans-serif" font-size="14">Width 0.250–1.000 mm | 0 layer changes</text><svg x="920" y="117" width="410" height="150" viewBox="-2.519118776507888 1.9 3.1941187765078887 23.1"><path d="M-0.32499999999999973,2.9 L-0.3386655043403543,3.882051277725709" fill="none" stroke="#c23632" stroke-width="0.325" stroke-linecap="round"/><path d="M-0.3386655043403543,3.882051277725709 L-0.3523310086807088,4.864102555451417" fill="none" stroke="#c23632" stroke-width="0.325" stroke-linecap="round"/><path d="M-0.3523310086807088,4.864102555451417 L-0.3659965130210634,5.846153833177126" fill="none" stroke="#c23632" stroke-width="0.25" stroke-linecap="round"/><path d="M-0.3659965130210634,5.846153833177126 L-0.37966201736141797,6.828205110902834" fill="none" stroke="#c23632" stroke-width="0.25" stroke-linecap="round"/><path d="M-0.37966201736141797,6.828205110902834 L-0.3933275217017725,7.810256388628543" fill="none" stroke="#c23632" stroke-width="0.25" stroke-linecap="round"/><path d="M-0.3933275217017725,7.810256388628543 L-0.40699302604212706,8.792307666354251" fill="none" stroke="#c23632" stroke-width="0.65" stroke-linecap="round"/><path d="M-0.40699302604212706,8.792307666354251 L-1.5191187765078882,9.904433416820012" fill="none" stroke="#c23632" stroke-width="1" stroke-linecap="round"/><path d="M-1.5191187765078882,9.904433416820012 L-1.5191187765078882,17.558011062659183" fill="none" stroke="#c23632" stroke-width="1" stroke-linecap="round"/><path d="M-1.5191187765078882,17.558011062659183 L-1.5024164934252326,18.478525039213995" fill="none" stroke="#c23632" stroke-width="1" stroke-linecap="round"/><path d="M-1.5024164934252326,18.478525039213995 L-1.485714210342577,19.399039015768807" fill="none" stroke="#c23632" stroke-width="1" stroke-linecap="round"/><path d="M-1.485714210342577,19.399039015768807 L-1.4690119272599214,20.319552992323615" fill="none" stroke="#c23632" stroke-width="1" stroke-linecap="round"/><path d="M-1.4690119272599214,20.319552992323615 L-1.4523096441772658,21.240066968878427" fill="none" stroke="#c23632" stroke-width="1" stroke-linecap="round"/><path d="M-1.4523096441772658,21.240066968878427 L-1.4356073610946103,22.160580945433235" fill="none" stroke="#c23632" stroke-width="1" stroke-linecap="round"/><path d="M-1.4356073610946103,22.160580945433235 L-1.4189050780119548,23.081094921988047" fill="none" stroke="#c23632" stroke-width="1" stroke-linecap="round"/><path d="M-1.4189050780119548,23.081094921988047 L-0.9594550390059773,23.540547460994024" fill="none" stroke="#c23632" stroke-width="1" stroke-linecap="round"/><path d="M-0.9594550390059773,23.540547460994024 L-0.5000049999999998,24" fill="none" stroke="#c23632" stroke-width="1" stroke-linecap="round"/></svg><rect x="1355" y="65" width="440" height="216" rx="6" fill="#f6f7f8" stroke="#c8cdd4"/><text x="1368" y="89" font-family="sans-serif" font-size="18">route 26 · BOUT1 · 24.06 mm</text><text x="1368" y="109" font-family="sans-serif" font-size="14">Width 0.250–1.000 mm | 0 layer changes</text><svg x="1370" y="117" width="410" height="150" viewBox="0.6250000000000004 1.9 8.894398840259207 23.1"><path d="M1.6250000000000004,2.9 L1.659615384615384,3.1051282051282056" fill="none" stroke="#c23632" stroke-width="0.275" stroke-linecap="round"/><path d="M1.659615384615384,3.1051282051282056 L1.659615384615384,3.5153846153846153" fill="none" stroke="#c23632" stroke-width="0.275" stroke-linecap="round"/><path d="M1.659615384615384,3.5153846153846153 L1.6607339891117285,3.92541533029676" fill="none" stroke="#c23632" stroke-width="0.275" stroke-linecap="round"/><path d="M1.6607339891117285,3.92541533029676 L1.7143350455884925,4.181423675782482" fill="none" stroke="#c23632" stroke-width="0.25" stroke-linecap="round"/><path d="M1.7143350455884925,4.181423675782482 L1.7114059169150189,4.284627797969868" fill="none" stroke="#c23632" stroke-width="0.25" stroke-linecap="round"/><path d="M1.7114059169150189,4.284627797969868 L1.7108974358974356,4.387179487179488" fill="none" stroke="#c23632" stroke-width="0.25" stroke-linecap="round"/><path d="M1.7108974358974356,4.387179487179488 L1.7108974358974356,4.48974358974359" fill="none" stroke="#c23632" stroke-width="0.25" stroke-linecap="round"/><path d="M1.7108974358974356,4.48974358974359 L1.7108974358974356,4.592307692307693" fill="none" stroke="#c23632" stroke-width="0.275" stroke-linecap="round"/><path d="M1.7108974358974356,4.592307692307693 L1.7108974358974356,4.694871794871795" fill="none" stroke="#c23632" stroke-width="0.35000000000000003" stroke-linecap="round"/><path d="M1.7108974358974356,4.694871794871795 L1.7108974358974356,4.797435897435897" fill="none" stroke="#c23632" stroke-width="0.42500000000000004" stroke-linecap="round"/><path d="M1.7108974358974356,4.797435897435897 L1.7108974358974356,4.9" fill="none" stroke="#c23632" stroke-width="0.55" stroke-linecap="round"/><path d="M1.7108974358974356,4.9 L1.831614354221825,4.9" fill="none" stroke="#c23632" stroke-width="0.675" stroke-linecap="round"/><path d="M1.831614354221825,4.9 L1.7751821771109126,5.496875" fill="none" stroke="#c23632" stroke-width="0.8" stroke-linecap="round"/><path d="M1.7751821771109126,5.496875 L1.71875,6.09375" fill="none" stroke="#c23632" stroke-width="0.9" stroke-linecap="round"/><path d="M1.71875,6.09375 L1.71875,7.03125" fill="none" stroke="#c23632" stroke-width="0.925" stroke-linecap="round"/><path d="M1.71875,7.03125 L1.71875,7.318750000000001" fill="none" stroke="#c23632" stroke-width="1" stroke-linecap="round"/><path d="M1.71875,7.318750000000001 L2.8,8.400000000000002" fill="none" stroke="#c23632" stroke-width="0.875" stroke-linecap="round"/><path d="M2.8,8.400000000000002 L2.8,10.800000000000002" fill="none" stroke="#c23632" stroke-width="0.875" stroke-linecap="round"/><path d="M2.8,10.800000000000002 L5.6,13.600000000000001" fill="none" stroke="#c23632" stroke-width="0.875" stroke-linecap="round"/><path d="M5.6,13.600000000000001 L5.6,19.258171766320395" fill="none" stroke="#c23632" stroke-width="1" stroke-linecap="round"/><path d="M5.6,19.258171766320395 L8.519398840259207,22.1775706065796" fill="none" stroke="#c23632" stroke-width="1" stroke-linecap="round"/><path d="M8.519398840259207,22.1775706065796 L8.519398840259207,23.980606159740795" fill="none" stroke="#c23632" stroke-width="1" stroke-linecap="round"/><path d="M8.519398840259207,23.980606159740795 L8.500005,24" fill="none" stroke="#c23632" stroke-width="1" stroke-linecap="round"/></svg><rect x="5" y="290" width="440" height="216" rx="6" fill="#f6f7f8" stroke="#c8cdd4"/><text x="18" y="314" font-family="sans-serif" font-size="18">route 27 · BOUT2 · 26.56 mm</text><text x="18" y="334" font-family="sans-serif" font-size="14">Width 0.325–1.000 mm | 1 layer changes</text><svg x="20" y="342" width="410" height="150" viewBox="-0.6749999999999998 1.9 15.174995 23.1"><path d="M0.3250000000000002,2.9 L0.3250000000000002,3.8793626709928164" fill="none" stroke="#c23632" stroke-width="0.325" stroke-linecap="round"/><path d="M0.3250000000000002,3.8793626709928164 L0.3250000000000002,4.858725341985633" fill="none" stroke="#c23632" stroke-width="0.325" stroke-linecap="round"/><path d="M0.3250000000000002,4.858725341985633 L0.5308915751916328,5.064616917177266" fill="none" stroke="#c23632" stroke-width="0.41250000000000003" stroke-linecap="round"/><path d="M0.5308915751916328,5.064616917177266 L0.5308915751916328,5.148891575191633" fill="none" stroke="#c23632" stroke-width="0.525" stroke-linecap="round"/><path d="M0.5308915751916328,5.148891575191633 L0.594,5.212" fill="none" stroke="#c23632" stroke-width="0.9750000000000001" stroke-linecap="round"/><path d="M0.594,5.212 L0.594,9.094" fill="none" stroke="#2073b5" stroke-width="1" stroke-linecap="round"/><path d="M0.594,9.094 L4.5,13" fill="none" stroke="#2073b5" stroke-width="1" stroke-linecap="round"/><path d="M4.5,13 L10.003364760679446,18.503364760679446" fill="none" stroke="#2073b5" stroke-width="1" stroke-linecap="round"/><path d="M10.003364760679446,18.503364760679446 L10.003364760679446,20.503367677346112" fill="none" stroke="#2073b5" stroke-width="1" stroke-linecap="round"/><path d="M10.003364760679446,20.503367677346112 L10.702690808543556,21.20269414187689" fill="none" stroke="#2073b5" stroke-width="1" stroke-linecap="round"/><path d="M10.702690808543556,21.20269414187689 L11.402016856407668,21.902020606407667" fill="none" stroke="#2073b5" stroke-width="1" stroke-linecap="round"/><path d="M11.402016856407668,21.902020606407667 L12.101342904271778,22.601347070938445" fill="none" stroke="#2073b5" stroke-width="1" stroke-linecap="round"/><path d="M12.101342904271778,22.601347070938445 L12.80066895213589,23.300673535469222" fill="none" stroke="#2073b5" stroke-width="1" stroke-linecap="round"/><path d="M12.80066895213589,23.300673535469222 L13.499995,24" fill="none" stroke="#2073b5" stroke-width="1" stroke-linecap="round"/><circle cx="0.594" cy="5.212" r="0.15" fill="white" stroke="#222" stroke-width="0.07"/></svg><rect x="455" y="290" width="440" height="216" rx="6" fill="#f6f7f8" stroke="#c8cdd4"/><text x="468" y="314" font-family="sans-serif" font-size="18">route 28 · ISEN_A · 8.58 mm</text><text x="468" y="334" font-family="sans-serif" font-size="14">Width 0.250–1.000 mm | 0 layer changes</text><svg x="470" y="342" width="410" height="150" viewBox="-5.933712 1.9 6.032571970487965 8.1"><path d="M-0.9749999999999999,2.9 L-0.9503800098373449,3.755628222971965" fill="none" stroke="#c23632" stroke-width="0.30000000000000004" stroke-linecap="round"/><path d="M-0.9503800098373449,3.755628222971965 L-0.9257600196746901,4.611256445943931" fill="none" stroke="#c23632" stroke-width="0.30000000000000004" stroke-linecap="round"/><path d="M-0.9257600196746901,4.611256445943931 L-0.9011400295120353,5.466884668915895" fill="none" stroke="#c23632" stroke-width="0.30000000000000004" stroke-linecap="round"/><path d="M-0.9011400295120353,5.466884668915895 L-0.9011400295120353,6.348705892941402" fill="none" stroke="#c23632" stroke-width="0.25" stroke-linecap="round"/><path d="M-0.9011400295120353,6.348705892941402 L-2.9576947374875813,8.405260600916948" fill="none" stroke="#c23632" stroke-width="0.25" stroke-linecap="round"/><path d="M-2.9576947374875813,8.405260600916948 L-3.552434136570633,9" fill="none" stroke="#c23632" stroke-width="0.25" stroke-linecap="round"/><path d="M-3.552434136570633,9 L-4.933712,9" fill="none" stroke="#c23632" stroke-width="1" stroke-linecap="round"/></svg><rect x="905" y="290" width="440" height="216" rx="6" fill="#f6f7f8" stroke="#c8cdd4"/><text x="918" y="314" font-family="sans-serif" font-size="18">route 29 · ISEN_A · 13.55 mm</text><text x="918" y="334" font-family="sans-serif" font-size="14">Width 1.000–1.000 mm | 0 layer changes</text><svg x="920" y="342" width="410" height="150" viewBox="-17 8 13.066288 8"><path d="M-4.933712,9 L-10.933712,15" fill="none" stroke="#c23632" stroke-width="1" stroke-linecap="round"/><path d="M-10.933712,15 L-10.934000000000001,15" fill="none" stroke="#c23632" stroke-width="1" stroke-linecap="round"/><path d="M-10.934000000000001,15 L-16,15" fill="none" stroke="#c23632" stroke-width="1" stroke-linecap="round"/></svg><rect x="1355" y="290" width="440" height="216" rx="6" fill="#f6f7f8" stroke="#c8cdd4"/><text x="1368" y="314" font-family="sans-serif" font-size="18">route 30 · ISEN_B · 7.96 mm</text><text x="1368" y="334" font-family="sans-serif" font-size="14">Width 0.300–0.925 mm | 2 layer changes</text><svg x="1370" y="342" width="410" height="150" viewBox="-0.02499999999999991 1.9 5.958712 8.1"><path d="M0.9750000000000001,2.9 L0.9875,3.45" fill="none" stroke="#c23632" stroke-width="0.3" stroke-linecap="round"/><path d="M0.9875,3.45 L1,4" fill="none" stroke="#c23632" stroke-width="0.3" stroke-linecap="round"/><path d="M1,4 L1.1,4.2" fill="none" stroke="#c23632" stroke-width="0.3" stroke-linecap="round"/><path d="M1.1,4.2 L1.7875709243517348,4.863389248811447" fill="none" stroke="#2073b5" stroke-width="0.625" stroke-linecap="round"/><path d="M1.7875709243517348,4.863389248811447 L2.4833806162344896,5.4922594992076315" fill="none" stroke="#2073b5" stroke-width="0.625" stroke-linecap="round"/><path d="M2.4833806162344896,5.4922594992076315 L3.179190308117245,6.121129749603815" fill="none" stroke="#2073b5" stroke-width="0.75" stroke-linecap="round"/><path d="M3.179190308117245,6.121129749603815 L3.875,6.75" fill="none" stroke="#2073b5" stroke-width="0.75" stroke-linecap="round"/><path d="M3.875,6.75 L4.125,7.25" fill="none" stroke="#2073b5" stroke-width="0.75" stroke-linecap="round"/><path d="M4.125,7.25 L3.816629864369017,7.716629864369017" fill="none" stroke="#2073b5" stroke-width="0.625" stroke-linecap="round"/><path d="M3.816629864369017,7.716629864369017 L3.8,7.75" fill="none" stroke="#2073b5" stroke-width="0.5750000000000001" stroke-linecap="round"/><path d="M3.8,7.75 L3.846,7.912" fill="none" stroke="#c23632" stroke-width="0.5750000000000001" stroke-linecap="round"/><path d="M3.846,7.912 L4.389856,8.456" fill="none" stroke="#c23632" stroke-width="0.5750000000000001" stroke-linecap="round"/><path d="M4.389856,8.456 L4.933712,9" fill="none" stroke="#c23632" stroke-width="0.925" stroke-linecap="round"/><circle cx="1.1" cy="4.2" r="0.15" fill="white" stroke="#222" stroke-width="0.07"/><circle cx="3.8" cy="7.75" r="0.15" fill="white" stroke="#222" stroke-width="0.07"/></svg><rect x="5" y="515" width="440" height="216" rx="6" fill="#f6f7f8" stroke="#c8cdd4"/><text x="18" y="539" font-family="sans-serif" font-size="18">route 31 · ISEN_B · 10.72 mm</text><text x="18" y="559" font-family="sans-serif" font-size="14">Width 1.000–1.000 mm | 0 layer changes</text><svg x="20" y="567" width="410" height="150" viewBox="3.933712 8 11.066288 6"><path d="M4.933712,9 L8.933712,13" fill="none" stroke="#c23632" stroke-width="1" stroke-linecap="round"/><path d="M8.933712,13 L8.934000000000001,13" fill="none" stroke="#c23632" stroke-width="1" stroke-linecap="round"/><path d="M8.934000000000001,13 L14,13" fill="none" stroke="#c23632" stroke-width="1" stroke-linecap="round"/></svg><rect x="455" y="515" width="440" height="216" rx="6" fill="#f6f7f8" stroke="#c8cdd4"/><text x="468" y="539" font-family="sans-serif" font-size="18">route 32 · ENABLE · 5.78 mm</text><text x="468" y="559" font-family="sans-serif" font-size="14">Width 0.250–0.250 mm | 0 layer changes</text><svg x="470" y="567" width="410" height="150" viewBox="10.246636 -2 6.999999999999998 2.8370032"><path d="M16.246636,-1 L15.539741350847807,-0.1629968" fill="none" stroke="#c23632" stroke-width="0.25" stroke-linecap="round"/><path d="M15.539741350847807,-0.1629968 L11.953530649152192,-0.16299679999999994" fill="none" stroke="#c23632" stroke-width="0.25" stroke-linecap="round"/><path d="M11.953530649152192,-0.16299679999999994 L11.246636,-1" fill="none" stroke="#c23632" stroke-width="0.25" stroke-linecap="round"/></svg><rect x="905" y="515" width="440" height="216" rx="6" fill="#f6f7f8" stroke="#c8cdd4"/><text x="918" y="539" font-family="sans-serif" font-size="18">route 33 · ENABLE · 16.70 mm</text><text x="918" y="559" font-family="sans-serif" font-size="14">Width 0.250–0.250 mm | 2 layer changes</text><svg x="920" y="567" width="410" height="150" viewBox="-4.025 -2 16.271636 5.9"><path d="M-2.275,2.9 L-2.341788110897316,2.9" fill="none" stroke="#c23632" stroke-width="0.25" stroke-linecap="round"/><path d="M-2.341788110897316,2.9 L-2.8248211599909765,2.4169669509063394" fill="none" stroke="#c23632" stroke-width="0.25" stroke-linecap="round"/><path d="M-2.8248211599909765,2.4169669509063394 L-2.8248211599909765,2.299843974791129" fill="none" stroke="#c23632" stroke-width="0.25" stroke-linecap="round"/><path d="M-2.8248211599909765,2.299843974791129 L-3.025,2.295231472925941" fill="none" stroke="#c23632" stroke-width="0.25" stroke-linecap="round"/><path d="M-3.025,2.295231472925941 L5.1487685270740595,2.295231472925941" fill="none" stroke="#764aa2" stroke-width="0.25" stroke-linecap="round"/><path d="M5.1487685270740595,2.295231472925941 L6.753899372560119,0.6901006274398814" fill="none" stroke="#764aa2" stroke-width="0.25" stroke-linecap="round"/><path d="M6.753899372560119,0.6901006274398814 L6.807,0.637" fill="none" stroke="#764aa2" stroke-width="0.25" stroke-linecap="round"/><path d="M6.807,0.637 L9.61,0.637" fill="none" stroke="#c23632" stroke-width="0.25" stroke-linecap="round"/><path d="M9.61,0.637 L11.246636,-1" fill="none" stroke="#c23632" stroke-width="0.25" stroke-linecap="round"/><circle cx="-3.025" cy="2.295231472925941" r="0.15" fill="white" stroke="#222" stroke-width="0.07"/><circle cx="6.807" cy="0.637" r="0.15" fill="white" stroke="#222" stroke-width="0.07"/></svg><rect x="1355" y="515" width="440" height="216" rx="6" fill="#f6f7f8" stroke="#c8cdd4"/><text x="1368" y="539" font-family="sans-serif" font-size="18">route 34 · FAULT_N · 10.56 mm</text><text x="1368" y="559" font-family="sans-serif" font-size="14">Width 0.250–0.250 mm | 2 layer changes</text><svg x="1370" y="567" width="410" height="150" viewBox="27.249938 9 2.7215475183669717 12"><path d="M28.249938,10 L28.839314117352657,10.521497484658692" fill="none" stroke="#c23632" stroke-width="0.25" stroke-linecap="round"/><path d="M28.839314117352657,10.521497484658692 L28.971485518366972,10.60990581561497" fill="none" stroke="#b96705" stroke-width="0.25" stroke-linecap="round"/><path d="M28.971485518366972,10.60990581561497 L28.86836260019515,15.995730262584429" fill="none" stroke="#b96705" stroke-width="0.25" stroke-linecap="round"/><path d="M28.86836260019515,15.995730262584429 L28.33367839863478,16.560664155381428" fill="none" stroke="#b96705" stroke-width="0.25" stroke-linecap="round"/><path d="M28.33367839863478,16.560664155381428 L28.5462992,20" fill="none" stroke="#c23632" stroke-width="0.25" stroke-linecap="round"/><circle cx="28.839314117352657" cy="10.521497484658692" r="0.15" fill="white" stroke="#222" stroke-width="0.07"/><circle cx="28.33367839863478" cy="16.560664155381428" r="0.15" fill="white" stroke="#222" stroke-width="0.07"/></svg><rect x="5" y="740" width="440" height="216" rx="6" fill="#f6f7f8" stroke="#c8cdd4"/><text x="18" y="764" font-family="sans-serif" font-size="18">route 35 · FAULT_N · 6.77 mm</text><text x="18" y="784" font-family="sans-serif" font-size="14">Width 0.250–0.250 mm | 2 layer changes</text><svg x="20" y="792" width="410" height="150" viewBox="23.753364 4 5.496573999999999 7"><path d="M24.753364,5 L26.328,6.574999999999999" fill="none" stroke="#c23632" stroke-width="0.25" stroke-linecap="round"/><path d="M26.328,6.574999999999999 L26.328,6.947" fill="none" stroke="#c23632" stroke-width="0.25" stroke-linecap="round"/><path d="M26.328,6.947 L26.34234669027654,6.9613466902765415" fill="none" stroke="#2073b5" stroke-width="0.25" stroke-linecap="round"/><path d="M26.34234669027654,6.9613466902765415 L26.851659154979412,7.470659154979415" fill="none" stroke="#2073b5" stroke-width="0.25" stroke-linecap="round"/><path d="M26.851659154979412,7.470659154979415 L26.851659154979412,8.942878964334296" fill="none" stroke="#2073b5" stroke-width="0.25" stroke-linecap="round"/><path d="M26.851659154979412,8.942878964334296 L26.948806898506568,8.845730303438097" fill="none" stroke="#c23632" stroke-width="0.25" stroke-linecap="round"/><path d="M26.948806898506568,8.845730303438097 L26.948806898506568,8.916576038854206" fill="none" stroke="#c23632" stroke-width="0.25" stroke-linecap="round"/><path d="M26.948806898506568,8.916576038854206 L28.032230859652362,10" fill="none" stroke="#c23632" stroke-width="0.25" stroke-linecap="round"/><path d="M28.032230859652362,10 L28.249938,10" fill="none" stroke="#c23632" stroke-width="0.25" stroke-linecap="round"/><circle cx="26.328" cy="6.947" r="0.15" fill="white" stroke="#222" stroke-width="0.07"/><circle cx="26.851659154979412" cy="8.942878964334296" r="0.15" fill="white" stroke="#222" stroke-width="0.07"/></svg><rect x="455" y="740" width="440" height="216" rx="6" fill="#f6f7f8" stroke="#c8cdd4"/><text x="468" y="764" font-family="sans-serif" font-size="18">route 36 · FAULT_N · 12.57 mm</text><text x="468" y="784" font-family="sans-serif" font-size="14">Width 0.250–0.250 mm | 2 layer changes</text><svg x="470" y="792" width="410" height="150" viewBox="1.275 1.9 3.725 14.1"><path d="M2.275,2.9 L2.4406131082992895,3.264666135810645" fill="none" stroke="#c23632" stroke-width="0.25" stroke-linecap="round"/><path d="M2.4406131082992895,3.264666135810645 L3.0427286820486596,7.081896367672623" fill="none" stroke="#c23632" stroke-width="0.25" stroke-linecap="round"/><path d="M3.0427286820486596,7.081896367672623 L3.0427286820486596,7.12172868204866" fill="none" stroke="#c23632" stroke-width="0.25" stroke-linecap="round"/><path d="M3.0427286820486596,7.12172868204866 L3.1663908152298217,7.25901297043965" fill="none" stroke="#c23632" stroke-width="0.25" stroke-linecap="round"/><path d="M3.1663908152298217,7.25901297043965 L3.1787199630088647,12.930258541801894" fill="none" stroke="#764aa2" stroke-width="0.25" stroke-linecap="round"/><path d="M3.1787199630088647,12.930258541801894 L3.765231750673504,13.515489071739687" fill="none" stroke="#764aa2" stroke-width="0.25" stroke-linecap="round"/><path d="M3.765231750673504,13.515489071739687 L3.765231750673504,13.630231750673504" fill="none" stroke="#764aa2" stroke-width="0.25" stroke-linecap="round"/><path d="M3.765231750673504,13.630231750673504 L3.728777564164961,13.72460402675866" fill="none" stroke="#764aa2" stroke-width="0.25" stroke-linecap="round"/><path d="M3.728777564164961,13.72460402675866 L3.794,14.794" fill="none" stroke="#c23632" stroke-width="0.25" stroke-linecap="round"/><path d="M3.794,14.794 L4,15" fill="none" stroke="#c23632" stroke-width="0.25" stroke-linecap="round"/><circle cx="3.1663908152298217" cy="7.25901297043965" r="0.15" fill="white" stroke="#222" stroke-width="0.07"/><circle cx="3.728777564164961" cy="13.72460402675866" r="0.15" fill="white" stroke="#222" stroke-width="0.07"/></svg><rect x="905" y="740" width="440" height="216" rx="6" fill="#f6f7f8" stroke="#c8cdd4"/><text x="918" y="764" font-family="sans-serif" font-size="18">route 37 · FAULT_N · 23.37 mm</text><text x="918" y="784" font-family="sans-serif" font-size="14">Width 0.250–0.250 mm | 0 layer changes</text><svg x="920" y="792" width="410" height="150" viewBox="1.275 1.8301540387335988 24.478364000000003 4.169845961266401"><path d="M2.275,2.9 L2.3963323604599056,2.830154038733599" fill="none" stroke="#c23632" stroke-width="0.25" stroke-linecap="round"/><path d="M2.3963323604599056,2.830154038733599 L22.653364,2.9" fill="none" stroke="#c23632" stroke-width="0.25" stroke-linecap="round"/><path d="M22.653364,2.9 L24.753364,5" fill="none" stroke="#c23632" stroke-width="0.25" stroke-linecap="round"/></svg><rect x="1355" y="740" width="440" height="216" rx="6" fill="#f6f7f8" stroke="#c8cdd4"/><text x="1368" y="764" font-family="sans-serif" font-size="18">route 38 · LED_VM_A · 5.82 mm</text><text x="1368" y="784" font-family="sans-serif" font-size="14">Width 0.250–0.250 mm | 0 layer changes</text><svg x="1370" y="792" width="410" height="150" viewBox="-19.246636 8.195127800000002 6.995631199999998 2.8048721999999984"><path d="M-18.246636,10 L-17.667773417395193,9.195127800000002" fill="none" stroke="#c23632" stroke-width="0.25" stroke-linecap="round"/><path d="M-17.667773417395193,9.195127800000002 L-14.010784672657195,9.195127800000002" fill="none" stroke="#c23632" stroke-width="0.25" stroke-linecap="round"/><path d="M-14.010784672657195,9.195127800000002 L-13.829740382604806,9.195127800000002" fill="none" stroke="#c23632" stroke-width="0.25" stroke-linecap="round"/><path d="M-13.829740382604806,9.195127800000002 L-13.2510048,9.999873" fill="none" stroke="#c23632" stroke-width="0.25" stroke-linecap="round"/></svg><rect x="5" y="965" width="440" height="216" rx="6" fill="#f6f7f8" stroke="#c8cdd4"/><text x="18" y="989" font-family="sans-serif" font-size="18">route 39 · AIN1 · 5.78 mm</text><text x="18" y="1009" font-family="sans-serif" font-size="14">Width 0.250–0.250 mm | 0 layer changes</text><svg x="20" y="1017" width="410" height="150" viewBox="10.246636 -18.8370032 6.999999999999998 2.8370032000000016"><path d="M16.246636,-17 L15.539741350847809,-17.8370032" fill="none" stroke="#c23632" stroke-width="0.25" stroke-linecap="round"/><path d="M15.539741350847809,-17.8370032 L11.95353064915219,-17.8370032" fill="none" stroke="#c23632" stroke-width="0.25" stroke-linecap="round"/><path d="M11.95353064915219,-17.8370032 L11.246636,-17" fill="none" stroke="#c23632" stroke-width="0.25" stroke-linecap="round"/></svg><rect x="455" y="965" width="440" height="216" rx="6" fill="#f6f7f8" stroke="#c8cdd4"/><text x="468" y="989" font-family="sans-serif" font-size="18">route 40 · AIN1 · 8.84 mm</text><text x="468" y="1009" font-family="sans-serif" font-size="14">Width 0.250–0.250 mm | 2 layer changes</text><svg x="470" y="1017" width="410" height="150" viewBox="6.99249665 -18 5.254139350000001 8.975"><path d="M11.246636,-17 L11.246636,-16.446635999999998" fill="none" stroke="#c23632" stroke-width="0.25" stroke-linecap="round"/><path d="M11.246636,-16.446635999999998 L10.047145311229137,-15.247145311229136" fill="none" stroke="#c23632" stroke-width="0.25" stroke-linecap="round"/><path d="M10.047145311229137,-15.247145311229136 L10,-15.2" fill="none" stroke="#c23632" stroke-width="0.25" stroke-linecap="round"/><path d="M10,-15.2 L10,-11.15396120380107" fill="none" stroke="#764aa2" stroke-width="0.25" stroke-linecap="round"/><path d="M10,-11.15396120380107 L9.660496084338364,-10.814457288139433" fill="none" stroke="#764aa2" stroke-width="0.25" stroke-linecap="round"/><path d="M9.660496084338364,-10.814457288139433 L9.649457288139432,-10.814457288139433" fill="none" stroke="#764aa2" stroke-width="0.25" stroke-linecap="round"/><path d="M9.649457288139432,-10.814457288139433 L9.516622653251744,-10.612377346748255" fill="none" stroke="#764aa2" stroke-width="0.25" stroke-linecap="round"/><path d="M9.516622653251744,-10.612377346748255 L8.86,-10.025" fill="none" stroke="#c23632" stroke-width="0.25" stroke-linecap="round"/><path d="M8.86,-10.025 L7.99249665,-10.025148" fill="none" stroke="#c23632" stroke-width="0.25" stroke-linecap="round"/><circle cx="10" cy="-15.2" r="0.15" fill="white" stroke="#222" stroke-width="0.07"/><circle cx="9.516622653251744" cy="-10.612377346748255" r="0.15" fill="white" stroke="#222" stroke-width="0.07"/></svg><rect x="905" y="965" width="440" height="216" rx="6" fill="#f6f7f8" stroke="#c8cdd4"/><text x="918" y="989" font-family="sans-serif" font-size="18">route 41 · AIN1 · 16.45 mm</text><text x="918" y="1009" font-family="sans-serif" font-size="14">Width 0.250–0.250 mm | 2 layer changes</text><svg x="920" y="1017" width="410" height="150" viewBox="-4.025 -11.025148 13.01749665 9.125148"><path d="M-2.275,-2.9 L-2.6441740937234157,-2.9" fill="none" stroke="#c23632" stroke-width="0.25" stroke-linecap="round"/><path d="M-2.6441740937234157,-2.9 L-2.9131899439361773,-3.1690158502127614" fill="none" stroke="#c23632" stroke-width="0.25" stroke-linecap="round"/><path d="M-2.9131899439361773,-3.1690158502127614 L-2.9131899439361773,-3.195596935892063" fill="none" stroke="#c23632" stroke-width="0.25" stroke-linecap="round"/><path d="M-2.9131899439361773,-3.195596935892063 L-3.025,-3.2157260671518126" fill="none" stroke="#c23632" stroke-width="0.25" stroke-linecap="round"/><path d="M-3.025,-3.2157260671518126 L3.9620976328582764,-3.198535279862234" fill="none" stroke="#2073b5" stroke-width="0.25" stroke-linecap="round"/><path d="M3.9620976328582764,-3.198535279862234 L6.056575411997405,-5.163786309427444" fill="none" stroke="#2073b5" stroke-width="0.25" stroke-linecap="round"/><path d="M6.056575411997405,-5.163786309427444 L5.974771249920867,-7.0699919826317545" fill="none" stroke="#2073b5" stroke-width="0.25" stroke-linecap="round"/><path d="M5.974771249920867,-7.0699919826317545 L6.097877019641936,-7.1930977523528234" fill="none" stroke="#2073b5" stroke-width="0.25" stroke-linecap="round"/><path d="M6.097877019641936,-7.1930977523528234 L6.097877019641936,-7.222877019641936" fill="none" stroke="#2073b5" stroke-width="0.25" stroke-linecap="round"/><path d="M6.097877019641936,-7.222877019641936 L6.173,-7.298" fill="none" stroke="#2073b5" stroke-width="0.25" stroke-linecap="round"/><path d="M6.173,-7.298 L6.173,-8.206" fill="none" stroke="#c23632" stroke-width="0.25" stroke-linecap="round"/><path d="M6.173,-8.206 L7.99249665,-10.025148" fill="none" stroke="#c23632" stroke-width="0.25" stroke-linecap="round"/><circle cx="-3.025" cy="-3.2157260671518126" r="0.15" fill="white" stroke="#222" stroke-width="0.07"/><circle cx="6.173" cy="-7.298" r="0.15" fill="white" stroke="#222" stroke-width="0.07"/></svg><rect x="1355" y="965" width="440" height="216" rx="6" fill="#f6f7f8" stroke="#c8cdd4"/><text x="1368" y="989" font-family="sans-serif" font-size="18">route 42 · AIN2 · 5.79 mm</text><text x="1368" y="1009" font-family="sans-serif" font-size="14">Width 0.250–0.250 mm | 0 layer changes</text><svg x="1370" y="1017" width="410" height="150" viewBox="10.246636 -14.8370032 6.999999999999998 2.8370032"><path d="M16.246636,-13 L15.551572284314405,-13.8370032" fill="none" stroke="#c23632" stroke-width="0.25" stroke-linecap="round"/><path d="M15.551572284314405,-13.8370032 L11.958231182249591,-13.8370032" fill="none" stroke="#c23632" stroke-width="0.25" stroke-linecap="round"/><path d="M11.958231182249591,-13.8370032 L11.941699715685594,-13.8370032" fill="none" stroke="#c23632" stroke-width="0.25" stroke-linecap="round"/><path d="M11.941699715685594,-13.8370032 L11.246636,-13" fill="none" stroke="#c23632" stroke-width="0.25" stroke-linecap="round"/></svg><rect x="5" y="1190" width="440" height="216" rx="6" fill="#f6f7f8" stroke="#c8cdd4"/><text x="18" y="1214" font-family="sans-serif" font-size="18">route 43 · AIN2 · 4.10 mm</text><text x="18" y="1234" font-family="sans-serif" font-size="14">Width 0.250–0.250 mm | 0 layer changes</text><svg x="20" y="1242" width="410" height="150" viewBox="6.99249665 -14 5.254139350000001 4.324866"><path d="M11.246636,-13 L8.793394593313693,-10.805849359289677" fill="none" stroke="#c23632" stroke-width="0.25" stroke-linecap="round"/><path d="M8.793394593313693,-10.805849359289677 L7.99249665,-10.675134" fill="none" stroke="#c23632" stroke-width="0.25" stroke-linecap="round"/></svg><rect x="455" y="1190" width="440" height="216" rx="6" fill="#f6f7f8" stroke="#c8cdd4"/><text x="468" y="1214" font-family="sans-serif" font-size="18">route 44 · AIN2 · 14.58 mm</text><text x="468" y="1234" font-family="sans-serif" font-size="14">Width 0.250–0.250 mm | 2 layer changes</text><svg x="470" y="1242" width="410" height="150" viewBox="-2.903526519798725 -12 11.896023169798724 10.1"><path d="M-1.625,-2.9 L-1.625,-4.518037503994686" fill="none" stroke="#c23632" stroke-width="0.25" stroke-linecap="round"/><path d="M-1.625,-4.518037503994686 L-1.7182408651095418,-4.611278369104228" fill="none" stroke="#c23632" stroke-width="0.25" stroke-linecap="round"/><path d="M-1.7182408651095418,-4.611278369104228 L-1.7182408651095418,-4.694240865109542" fill="none" stroke="#c23632" stroke-width="0.25" stroke-linecap="round"/><path d="M-1.7182408651095418,-4.694240865109542 L-1.9035265197987248,-4.722073588280167" fill="none" stroke="#c23632" stroke-width="0.25" stroke-linecap="round"/><path d="M-1.9035265197987248,-4.722073588280167 L0.12503429995072876,-4.838273854358184" fill="none" stroke="#764aa2" stroke-width="0.25" stroke-linecap="round"/><path d="M0.12503429995072876,-4.838273854358184 L6.393680458851393,-11" fill="none" stroke="#764aa2" stroke-width="0.25" stroke-linecap="round"/><path d="M6.393680458851393,-11 L6.4,-11" fill="none" stroke="#764aa2" stroke-width="0.25" stroke-linecap="round"/><path d="M6.4,-11 L6.725,-10.675" fill="none" stroke="#c23632" stroke-width="0.25" stroke-linecap="round"/><path d="M6.725,-10.675 L7.99249665,-10.675134" fill="none" stroke="#c23632" stroke-width="0.25" stroke-linecap="round"/><circle cx="-1.9035265197987248" cy="-4.722073588280167" r="0.15" fill="white" stroke="#222" stroke-width="0.07"/><circle cx="6.4" cy="-11" r="0.15" fill="white" stroke="#222" stroke-width="0.07"/></svg><rect x="905" y="1190" width="440" height="216" rx="6" fill="#f6f7f8" stroke="#c8cdd4"/><text x="918" y="1214" font-family="sans-serif" font-size="18">route 45 · BIN1 · 5.78 mm</text><text x="918" y="1234" font-family="sans-serif" font-size="14">Width 0.250–0.250 mm | 0 layer changes</text><svg x="920" y="1242" width="410" height="150" viewBox="10.246636 -10 6.999999999999998 2.8370032"><path d="M16.246636,-9 L15.539741350847807,-8.1629968" fill="none" stroke="#c23632" stroke-width="0.25" stroke-linecap="round"/><path d="M15.539741350847807,-8.1629968 L11.953530649152192,-8.1629968" fill="none" stroke="#c23632" stroke-width="0.25" stroke-linecap="round"/><path d="M11.953530649152192,-8.1629968 L11.246636,-9" fill="none" stroke="#c23632" stroke-width="0.25" stroke-linecap="round"/></svg><rect x="1355" y="1190" width="440" height="216" rx="6" fill="#f6f7f8" stroke="#c8cdd4"/><text x="1368" y="1214" font-family="sans-serif" font-size="18">route 46 · BIN1 · 10.42 mm</text><text x="1368" y="1234" font-family="sans-serif" font-size="14">Width 0.250–0.250 mm | 2 layer changes</text><svg x="1370" y="1242" width="410" height="150" viewBox="2.216730046701051 -13.482508409375338 10.02990595329895 5.497508409375339"><path d="M11.246636,-9 L9.264824893780442,-9" fill="none" stroke="#c23632" stroke-width="0.25" stroke-linecap="round"/><path d="M9.264824893780442,-9 L9.252034114324129,-8.987209220543686" fill="none" stroke="#c23632" stroke-width="0.25" stroke-linecap="round"/><path d="M9.252034114324129,-8.987209220543686 L9.048209220543686,-8.987209220543686" fill="none" stroke="#c23632" stroke-width="0.25" stroke-linecap="round"/><path d="M9.048209220543686,-8.987209220543686 L9.046,-8.985" fill="none" stroke="#c23632" stroke-width="0.25" stroke-linecap="round"/><path d="M9.046,-8.985 L6.779304288445741,-8.985" fill="none" stroke="#b96705" stroke-width="0.25" stroke-linecap="round"/><path d="M6.779304288445741,-8.985 L3.4954057103657243,-12.268898578080016" fill="none" stroke="#b96705" stroke-width="0.25" stroke-linecap="round"/><path d="M3.4954057103657243,-12.268898578080016 L3.216730046701051,-12.482508409375338" fill="none" stroke="#b96705" stroke-width="0.25" stroke-linecap="round"/><path d="M3.216730046701051,-12.482508409375338 L3.654246480368609,-12.31375351963139" fill="none" stroke="#c23632" stroke-width="0.25" stroke-linecap="round"/><path d="M3.654246480368609,-12.31375351963139 L3.99250465,-11.97536" fill="none" stroke="#c23632" stroke-width="0.25" stroke-linecap="round"/><circle cx="9.046" cy="-8.985" r="0.15" fill="white" stroke="#222" stroke-width="0.07"/><circle cx="3.216730046701051" cy="-12.482508409375338" r="0.15" fill="white" stroke="#222" stroke-width="0.07"/></svg></svg>