%TF.GenerationSoftware,tscircuit,circuit-json-to-gerber,0.0.104*%
%TF.CreationDate,2026-09-29T17:23:09.010Z*%
%TF.SameCoordinates,Original*%
%TF.FileFunction,Legend,Bot*%
%TF.FilePolarity,Positive*%
%FSLAX46Y46*%
%MOMM*%
G04 Gerber Fmt 4.6, Leading zero omitted, Abs format (unit mm)*
G04 Created by tscircuit (builder) date 2026-09-29T17:23:09.010Z*
G01*
%LPD*%
G75*
G04 APERTURE MACROS START*
%AMHORZPILL*
0 Horizontal pill (stadium) shape macro*
0 Parameters:*
0 $1 = Total width*
0 $2 = Total height*
0 $3 = Circle diameter (equal to height)*
0 $4 = Circle center offset
0 21 = Center Line(Exposure, Width, Height, Center X, Center Y, Rotation)*
0 1 = Circle(Exposure, Diameter, Center X, Center Y, Rotation)*
21,1,$1-$3,$2,0.0,0.0,0.0*
1,1,$3,0.0-$4,0.0*
1,1,$3,$4,0.0*%
%AMVERTPILL*
0 Vertical pill (stadium) shape macro*
0 Parameters:*
0 $1 = Total width*
0 $2 = Total height*
0 $3 = Circle diameter (equal to width)*
0 $4 = Circle center offset
0 21 = Center Line(Exposure, Width, Height, Center X, Center Y, Rotation)*
21,1,$1,$2-$3,0.0,0.0,0.0*
1,1,$3,0.0,0.0-$4*
1,1,$3,0.0,$4*%
%AMROUNDRECT*
0 Rectangle with rounded corners*
0 $1 Corner radius*
0 $2 $3 $4 $5 $6 $7 $8 $9 X,Y Position of each corner*
0 Polygon box body*
4,1,4,$2,$3,$4,$5,$6,$7,$8,$9,$2,$3,0*
0 Circles for rounded corners*
1,1,$1+$1,$2,$3*
1,1,$1+$1,$4,$5*
1,1,$1+$1,$6,$7*
1,1,$1+$1,$8,$9*
0 Rectangles between the rounded corners*
20,1,$1+$1,$2,$3,$4,$5,0*
20,1,$1+$1,$4,$5,$6,$7,0*
20,1,$1+$1,$6,$7,$8,$9,0*
20,1,$1+$1,$8,$9,$2,$3,0*%
G04 APERTURE MACROS END*
G04 aperture START LIST*
%ADD10C,0.250000*%
%ADD11C,1.000000*%
%ADD12C,0.625000*%
%ADD13C,0.750000*%
%ADD14C,0.575000*%
%ADD15C,0.150000*%
%ADD16C,0.090000*%
%ADD17C,0.072000*%
%ADD18C,0.162000*%
%ADD19C,2.199996*%
%ADD20C,0.100000*%
%ADD21C,0.609600*%
%ADD22C,1.599997*%
%ADD23R,1.574800X1.599997*%
%ADD24C,0.081000*%
%ADD25C,0.600000*%
%ADD26C,0.450000*%
%TD*%
G04 aperture END LIST*
D18*
X012348039Y025288545D02*
X012348039Y024434298D01*
X012341893Y025282735D02*
X011807247Y025282735D01*
X012341893Y024864327D02*
X011893283Y024864327D01*
X010899802Y025075674D02*
X010990518Y025028306D01*
X010990518Y025028306D02*
X011081228Y024932183D01*
X011081228Y024932183D02*
X011126955Y024787302D01*
X011126955Y024787302D02*
X011126955Y024691175D01*
X011126955Y024691175D02*
X011081228Y024547686D01*
X011081228Y024547686D02*
X010990518Y024451560D01*
X010990518Y024451560D02*
X010899802Y024402804D01*
X010899802Y024402804D02*
X010764101Y024402804D01*
X010764101Y024402804D02*
X010673384Y024451560D01*
X010673384Y024451560D02*
X010582671Y024547686D01*
X010582671Y024547686D02*
X010536945Y024691175D01*
X010536945Y024691175D02*
X010536945Y024787302D01*
X010536945Y024787302D02*
X010582671Y024932183D01*
X010582671Y024932183D02*
X010673384Y025028306D01*
X010673384Y025028306D02*
X010764101Y025075674D01*
X010764101Y025075674D02*
X010899802Y025075674D01*
X009830197Y025075674D02*
X009830197Y024419397D01*
X009830197Y024794413D02*
X009769211Y024935722D01*
X009769211Y024935722D02*
X009647240Y025029475D01*
X009647240Y025029475D02*
X009525270Y025075674D01*
X009525270Y025075674D02*
X009342315Y025075674D01*
X007399102Y024787302D02*
X006790634Y024787302D01*
X006790634Y024883424D02*
X006840834Y024979549D01*
X006840834Y024979549D02*
X006892553Y025028306D01*
X006892553Y025028306D02*
X006992950Y025075674D01*
X006992950Y025075674D02*
X007145067Y025075674D01*
X007145067Y025075674D02*
X007246985Y025028306D01*
X007246985Y025028306D02*
X007348902Y024932183D01*
X007348902Y024932183D02*
X007399102Y024787302D01*
X007399102Y024787302D02*
X007399102Y024691175D01*
X007399102Y024691175D02*
X007348902Y024547686D01*
X007348902Y024547686D02*
X007246985Y024451560D01*
X007246985Y024451560D02*
X007145067Y024402804D01*
X007145067Y024402804D02*
X006992950Y024402804D01*
X006992950Y024402804D02*
X006892553Y024451560D01*
X006892553Y024451560D02*
X006790634Y024547686D01*
X006166945Y025059063D02*
X005849175Y024418234D01*
X005531406Y025059063D02*
X005849175Y024418234D01*
X004318627Y025075674D02*
X004318627Y024402804D01*
X004318627Y024932182D02*
X004414053Y025028306D01*
X004414053Y025028306D02*
X004508058Y025075674D01*
X004508058Y025075674D02*
X004650485Y025075674D01*
X004650485Y025075674D02*
X004745908Y025028306D01*
X004745908Y025028306D02*
X004841333Y024932182D01*
X004841333Y024932182D02*
X004888336Y024787299D01*
X004888336Y024787299D02*
X004888336Y024691175D01*
X004888336Y024691175D02*
X004841333Y024547685D01*
X004841333Y024547685D02*
X004745908Y024451560D01*
X004745908Y024451560D02*
X004650485Y024402804D01*
X004650485Y024402804D02*
X004508058Y024402804D01*
X004508058Y024402804D02*
X004414053Y024451560D01*
X004414053Y024451560D02*
X004318627Y024547685D01*
X003357788Y025334073D02*
X003357788Y024437484D01*
X002375416Y025057831D02*
X002375416Y024589071D01*
X002375416Y024589071D02*
X002327360Y024449114D01*
X002327360Y024449114D02*
X002231908Y024401558D01*
X002231908Y024401558D02*
X002088399Y024401558D01*
X002088399Y024401558D02*
X001992285Y024449114D01*
X001992285Y024449114D02*
X001848773Y024589071D01*
X001848773Y025057831D02*
X001848773Y024401558D01*
X000581546Y025075674D02*
X000581546Y024402804D01*
X000581546Y024932182D02*
X000676972Y025028306D01*
X000676972Y025028306D02*
X000770977Y025075674D01*
X000770977Y025075674D02*
X000913404Y025075674D01*
X000913404Y025075674D02*
X001008827Y025028306D01*
X001008827Y025028306D02*
X001104252Y024932182D01*
X001104252Y024932182D02*
X001151255Y024787299D01*
X001151255Y024787299D02*
X001151255Y024691175D01*
X001151255Y024691175D02*
X001104252Y024547685D01*
X001104252Y024547685D02*
X001008827Y024451560D01*
X001008827Y024451560D02*
X000913404Y024402804D01*
X000913404Y024402804D02*
X000770977Y024402804D01*
X000770977Y024402804D02*
X000676972Y024451560D01*
X000676972Y024451560D02*
X000581546Y024547685D01*
X-00310000Y025254706D02*
X-00310000Y024588548D01*
X-00310000Y024588548D02*
X-00379289Y024471653D01*
X-00379289Y024471653D02*
X-00517874Y024431932D01*
X-00517874Y024431932D02*
X-00656456Y024431932D01*
X-00102129Y024980093D02*
X-00587165Y024980093D01*
X-01574586Y025327305D02*
X-01675386Y025327305D01*
X-01624926Y025030128D02*
X-01624926Y024437011D01*
X-02802828Y025075674D02*
X-02712111Y025028306D01*
X-02712111Y025028306D02*
X-02621402Y024932183D01*
X-02621402Y024932183D02*
X-02575675Y024787302D01*
X-02575675Y024787302D02*
X-02575675Y024691175D01*
X-02575675Y024691175D02*
X-02621402Y024547686D01*
X-02621402Y024547686D02*
X-02712111Y024451560D01*
X-02712111Y024451560D02*
X-02802828Y024402804D01*
X-02802828Y024402804D02*
X-02938528Y024402804D01*
X-02938528Y024402804D02*
X-03029246Y024451560D01*
X-03029246Y024451560D02*
X-03119958Y024547686D01*
X-03119958Y024547686D02*
X-03165685Y024691175D01*
X-03165685Y024691175D02*
X-03165685Y024787302D01*
X-03165685Y024787302D02*
X-03119958Y024932183D01*
X-03119958Y024932183D02*
X-03029246Y025028306D01*
X-03029246Y025028306D02*
X-02938528Y025075674D01*
X-02938528Y025075674D02*
X-02802828Y025075674D01*
X-03853052Y025075674D02*
X-03853052Y024419397D01*
X-03853052Y024888165D02*
X-03996560Y025029475D01*
X-03996560Y025029475D02*
X-04092673Y025075674D01*
X-04092673Y025075674D02*
X-04236183Y025075674D01*
X-04236183Y025075674D02*
X-04331638Y025029475D01*
X-04331638Y025029475D02*
X-04379695Y024888165D01*
X-04379695Y024888165D02*
X-04379695Y024419397D01*
X-06539909Y025075674D02*
X-06449192Y025028306D01*
X-06449192Y025028306D02*
X-06358482Y024932183D01*
X-06358482Y024932183D02*
X-06312756Y024787302D01*
X-06312756Y024787302D02*
X-06312756Y024691175D01*
X-06312756Y024691175D02*
X-06358482Y024547686D01*
X-06358482Y024547686D02*
X-06449192Y024451560D01*
X-06449192Y024451560D02*
X-06539909Y024402804D01*
X-06539909Y024402804D02*
X-06675609Y024402804D01*
X-06675609Y024402804D02*
X-06766327Y024451560D01*
X-06766327Y024451560D02*
X-06857039Y024547686D01*
X-06857039Y024547686D02*
X-06902766Y024691175D01*
X-06902766Y024691175D02*
X-06902766Y024787302D01*
X-06902766Y024787302D02*
X-06857039Y024932183D01*
X-06857039Y024932183D02*
X-06766327Y025028306D01*
X-06766327Y025028306D02*
X-06675609Y025075674D01*
X-06675609Y025075674D02*
X-06539909Y025075674D01*
X-07590133Y025075674D02*
X-07590133Y024419397D01*
X-07590133Y024888165D02*
X-07733641Y025029475D01*
X-07733641Y025029475D02*
X-07829754Y025075674D01*
X-07829754Y025075674D02*
X-07973264Y025075674D01*
X-07973264Y025075674D02*
X-08068719Y025029475D01*
X-08068719Y025029475D02*
X-08116775Y024888165D01*
X-08116775Y024888165D02*
X-08116775Y024419397D01*
X-09099148Y025334073D02*
X-09099148Y024437484D01*
X-10072167Y025059063D02*
X-10369041Y024468940D01*
X-10667533Y025059063D02*
X-10369041Y024468940D01*
X-10369041Y024468940D02*
X-10270619Y024300336D01*
X-10270619Y024300336D02*
X-10171394Y024216033D01*
X-10171394Y024216033D02*
X-10072167Y024174491D01*
X-10072167Y024174491D02*
X-10022151Y024174491D01*
D18*
X017323739Y022575674D02*
X017323739Y021919397D01*
X017323739Y022388165D02*
X017180231Y022529475D01*
X017180231Y022529475D02*
X017084118Y022575674D01*
X017084118Y022575674D02*
X016940608Y022575674D01*
X016940608Y022575674D02*
X016845153Y022529475D01*
X016845153Y022529475D02*
X016797097Y022388165D01*
X016797097Y022388165D02*
X016797097Y021919397D01*
X015882576Y022575674D02*
X015973293Y022528306D01*
X015973293Y022528306D02*
X016064002Y022432183D01*
X016064002Y022432183D02*
X016109729Y022287302D01*
X016109729Y022287302D02*
X016109729Y022191175D01*
X016109729Y022191175D02*
X016064002Y022047686D01*
X016064002Y022047686D02*
X015973293Y021951560D01*
X015973293Y021951560D02*
X015882576Y021902804D01*
X015882576Y021902804D02*
X015746876Y021902804D01*
X015746876Y021902804D02*
X015656158Y021951560D01*
X015656158Y021951560D02*
X015565446Y022047686D01*
X015565446Y022047686D02*
X015519719Y022191175D01*
X015519719Y022191175D02*
X015519719Y022287302D01*
X015519719Y022287302D02*
X015565446Y022432183D01*
X015565446Y022432183D02*
X015656158Y022528306D01*
X015656158Y022528306D02*
X015746876Y022575674D01*
X015746876Y022575674D02*
X015882576Y022575674D01*
X014638323Y022754706D02*
X014638323Y022088548D01*
X014638323Y022088548D02*
X014569034Y021971653D01*
X014569034Y021971653D02*
X014430449Y021931932D01*
X014430449Y021931932D02*
X014291867Y021931932D01*
X014846194Y022480093D02*
X014361158Y022480093D01*
X012348039Y022788545D02*
X012348039Y021934298D01*
X012341893Y022782735D02*
X011807247Y022782735D01*
X012341893Y022364327D02*
X011893283Y022364327D01*
X010544634Y022600993D02*
X010583227Y022695053D01*
X010583227Y022695053D02*
X010654023Y022761650D01*
X010654023Y022761650D02*
X010788097Y022805156D01*
X010788097Y022805156D02*
X010887172Y022791870D01*
X010887172Y022791870D02*
X010974481Y022747278D01*
X010974481Y022747278D02*
X011059736Y022644356D01*
X011059736Y022644356D02*
X011119265Y022374197D01*
X011119265Y022374197D02*
X011072550Y022102615D01*
X011072550Y022102615D02*
X011002862Y021993249D01*
X011002862Y021993249D02*
X010930410Y021942071D01*
X010930410Y021942071D02*
X010789263Y021918870D01*
X010789263Y021918870D02*
X010666255Y021948524D01*
X010666255Y021948524D02*
X010575174Y022035061D01*
X010575174Y022035061D02*
X010544634Y022157198D01*
X009298941Y022600993D02*
X009337533Y022695053D01*
X009337533Y022695053D02*
X009408329Y022761650D01*
X009408329Y022761650D02*
X009542403Y022805156D01*
X009542403Y022805156D02*
X009641478Y022791870D01*
X009641478Y022791870D02*
X009728787Y022747278D01*
X009728787Y022747278D02*
X009814043Y022644356D01*
X009814043Y022644356D02*
X009873571Y022374197D01*
X009873571Y022374197D02*
X009826857Y022102615D01*
X009826857Y022102615D02*
X009757169Y021993249D01*
X009757169Y021993249D02*
X009684716Y021942071D01*
X009684716Y021942071D02*
X009543570Y021918870D01*
X009543570Y021918870D02*
X009420561Y021948524D01*
X009420561Y021948524D02*
X009329481Y022035061D01*
X009329481Y022035061D02*
X009298941Y022157198D01*
X006810014Y022575674D02*
X006810014Y021902804D01*
X006810014Y022432182D02*
X006905440Y022528306D01*
X006905440Y022528306D02*
X006999445Y022575674D01*
X006999445Y022575674D02*
X007141872Y022575674D01*
X007141872Y022575674D02*
X007237295Y022528306D01*
X007237295Y022528306D02*
X007332720Y022432182D01*
X007332720Y022432182D02*
X007379723Y022287299D01*
X007379723Y022287299D02*
X007379723Y022191175D01*
X007379723Y022191175D02*
X007332720Y022047685D01*
X007332720Y022047685D02*
X007237295Y021951560D01*
X007237295Y021951560D02*
X007141872Y021902804D01*
X007141872Y021902804D02*
X006999445Y021902804D01*
X006999445Y021902804D02*
X006905440Y021951560D01*
X006905440Y021951560D02*
X006810014Y022047685D01*
X006131569Y022575674D02*
X006131569Y021675653D01*
X006131569Y022447631D02*
X006036966Y022533406D01*
X006036966Y022533406D02*
X005943779Y022575674D01*
X005943779Y022575674D02*
X005802582Y022575674D01*
X005802582Y022575674D02*
X005707978Y022533406D01*
X005707978Y022533406D02*
X005613379Y022447631D01*
X005613379Y022447631D02*
X005566782Y022318347D01*
X005566782Y022318347D02*
X005566782Y022232570D01*
X005566782Y022232570D02*
X005613379Y022104529D01*
X005613379Y022104529D02*
X005707978Y022018753D01*
X005707978Y022018753D02*
X005802582Y021975247D01*
X005802582Y021975247D02*
X005943779Y021975247D01*
X005943779Y021975247D02*
X006036966Y022018753D01*
X006036966Y022018753D02*
X006131569Y022104529D01*
X004885875Y022575674D02*
X004885875Y021675653D01*
X004885875Y022447631D02*
X004791272Y022533406D01*
X004791272Y022533406D02*
X004698085Y022575674D01*
X004698085Y022575674D02*
X004556888Y022575674D01*
X004556888Y022575674D02*
X004462285Y022533406D01*
X004462285Y022533406D02*
X004367685Y022447631D01*
X004367685Y022447631D02*
X004321088Y022318347D01*
X004321088Y022318347D02*
X004321088Y022232570D01*
X004321088Y022232570D02*
X004367685Y022104529D01*
X004367685Y022104529D02*
X004462285Y022018753D01*
X004462285Y022018753D02*
X004556888Y021975247D01*
X004556888Y021975247D02*
X004698085Y021975247D01*
X004698085Y021975247D02*
X004791272Y022018753D01*
X004791272Y022018753D02*
X004885875Y022104529D01*
X003601729Y022575674D02*
X003601729Y021919397D01*
X003601729Y022294413D02*
X003540743Y022435722D01*
X003540743Y022435722D02*
X003418772Y022529475D01*
X003418772Y022529475D02*
X003296802Y022575674D01*
X003296802Y022575674D02*
X003113847Y022575674D01*
X002179947Y022575674D02*
X002270663Y022528306D01*
X002270663Y022528306D02*
X002361373Y022432183D01*
X002361373Y022432183D02*
X002407100Y022287302D01*
X002407100Y022287302D02*
X002407100Y022191175D01*
X002407100Y022191175D02*
X002361373Y022047686D01*
X002361373Y022047686D02*
X002270663Y021951560D01*
X002270663Y021951560D02*
X002179947Y021902804D01*
X002179947Y021902804D02*
X002044246Y021902804D01*
X002044246Y021902804D02*
X001953528Y021951560D01*
X001953528Y021951560D02*
X001862816Y022047686D01*
X001862816Y022047686D02*
X001817089Y022191175D01*
X001817089Y022191175D02*
X001817089Y022287302D01*
X001817089Y022287302D02*
X001862816Y022432183D01*
X001862816Y022432183D02*
X001953528Y022528306D01*
X001953528Y022528306D02*
X002044246Y022575674D01*
X002044246Y022575674D02*
X002179947Y022575674D01*
X001184170Y022559063D02*
X000866401Y021918234D01*
X000548631Y022559063D02*
X000866401Y021918234D01*
X-00075059Y022287302D02*
X-00683527Y022287302D01*
X-00683527Y022383424D02*
X-00633328Y022479549D01*
X-00633328Y022479549D02*
X-00581608Y022528306D01*
X-00581608Y022528306D02*
X-00481212Y022575674D01*
X-00481212Y022575674D02*
X-00329094Y022575674D01*
X-00329094Y022575674D02*
X-00227177Y022528306D01*
X-00227177Y022528306D02*
X-00125259Y022432183D01*
X-00125259Y022432183D02*
X-00075059Y022287302D01*
X-00075059Y022287302D02*
X-00075059Y022191175D01*
X-00075059Y022191175D02*
X-00125259Y022047686D01*
X-00125259Y022047686D02*
X-00227177Y021951560D01*
X-00227177Y021951560D02*
X-00329094Y021902804D01*
X-00329094Y021902804D02*
X-00481212Y021902804D01*
X-00481212Y021902804D02*
X-00581608Y021951560D01*
X-00581608Y021951560D02*
X-00683527Y022047686D01*
X-01907688Y022827305D02*
X-01907688Y021920419D01*
X-01907688Y022395751D02*
X-01812986Y022482061D01*
X-01812986Y022482061D02*
X-01719692Y022524591D01*
X-01719692Y022524591D02*
X-01578341Y022524591D01*
X-01578341Y022524591D02*
X-01483637Y022482061D01*
X-01483637Y022482061D02*
X-01388930Y022395751D01*
X-01388930Y022395751D02*
X-01342286Y022265661D01*
X-01342286Y022265661D02*
X-01342286Y022179349D01*
X-01342286Y022179349D02*
X-01388930Y022050509D01*
X-01388930Y022050509D02*
X-01483637Y021964198D01*
X-01483637Y021964198D02*
X-01578341Y021920419D01*
X-01578341Y021920419D02*
X-01719692Y021920419D01*
X-01719692Y021920419D02*
X-01812986Y021964198D01*
X-01812986Y021964198D02*
X-01907688Y022050509D01*
X-04383386Y022827305D02*
X-04249881Y022827305D01*
X-04249881Y022827305D02*
X-04116374Y022784324D01*
X-04116374Y022784324D02*
X-04049620Y022657839D01*
X-04049620Y022657839D02*
X-04049620Y021937011D01*
X-03849362Y022530129D02*
X-04316637Y022530129D01*
X-05294215Y022575674D02*
X-05203499Y022528306D01*
X-05203499Y022528306D02*
X-05112789Y022432183D01*
X-05112789Y022432183D02*
X-05067062Y022287302D01*
X-05067062Y022287302D02*
X-05067062Y022191175D01*
X-05067062Y022191175D02*
X-05112789Y022047686D01*
X-05112789Y022047686D02*
X-05203499Y021951560D01*
X-05203499Y021951560D02*
X-05294215Y021902804D01*
X-05294215Y021902804D02*
X-05429916Y021902804D01*
X-05429916Y021902804D02*
X-05520633Y021951560D01*
X-05520633Y021951560D02*
X-05611346Y022047686D01*
X-05611346Y022047686D02*
X-05657072Y022191175D01*
X-05657072Y022191175D02*
X-05657072Y022287302D01*
X-05657072Y022287302D02*
X-05611346Y022432183D01*
X-05611346Y022432183D02*
X-05520633Y022528306D01*
X-05520633Y022528306D02*
X-05429916Y022575674D01*
X-05429916Y022575674D02*
X-05294215Y022575674D01*
X-06363820Y022575674D02*
X-06363820Y021919397D01*
X-06363820Y022294413D02*
X-06424806Y022435722D01*
X-06424806Y022435722D02*
X-06546777Y022529475D01*
X-06546777Y022529475D02*
X-06668747Y022575674D01*
X-06668747Y022575674D02*
X-06851702Y022575674D01*
X-08855207Y022575674D02*
X-08855207Y021919397D01*
X-08855207Y022294413D02*
X-08916193Y022435722D01*
X-08916193Y022435722D02*
X-09038164Y022529475D01*
X-09038164Y022529475D02*
X-09160134Y022575674D01*
X-09160134Y022575674D02*
X-09343089Y022575674D01*
X-10040608Y022287302D02*
X-10649076Y022287302D01*
X-10649076Y022383424D02*
X-10598876Y022479549D01*
X-10598876Y022479549D02*
X-10547157Y022528306D01*
X-10547157Y022528306D02*
X-10446760Y022575674D01*
X-10446760Y022575674D02*
X-10294643Y022575674D01*
X-10294643Y022575674D02*
X-10192726Y022528306D01*
X-10192726Y022528306D02*
X-10090808Y022432183D01*
X-10090808Y022432183D02*
X-10040608Y022287302D01*
X-10040608Y022287302D02*
X-10040608Y022191175D01*
X-10040608Y022191175D02*
X-10090808Y022047686D01*
X-10090808Y022047686D02*
X-10192726Y021951560D01*
X-10192726Y021951560D02*
X-10294643Y021902804D01*
X-10294643Y021902804D02*
X-10446760Y021902804D01*
X-10446760Y021902804D02*
X-10547157Y021951560D01*
X-10547157Y021951560D02*
X-10649076Y022047686D01*
X-11810443Y022528306D02*
X-11716196Y022575674D01*
X-11716196Y022575674D02*
X-11559118Y022575674D01*
X-11559118Y022575674D02*
X-11433457Y022528306D01*
X-11433457Y022528306D02*
X-11339212Y022432183D01*
X-11339212Y022432183D02*
X-11339212Y022336059D01*
X-11339212Y022336059D02*
X-11433457Y022287302D01*
X-11433457Y022287302D02*
X-11590533Y022287302D01*
X-11590533Y022287302D02*
X-11747609Y022191175D01*
X-11747609Y022191175D02*
X-11841860Y022095052D01*
X-11841860Y022095052D02*
X-11841860Y021998927D01*
X-11841860Y021998927D02*
X-11747609Y021951560D01*
X-11747609Y021951560D02*
X-11621947Y021902804D01*
X-11621947Y021902804D02*
X-11464874Y021902804D01*
X-11464874Y021902804D02*
X-11370627Y021951560D01*
X-11370627Y021951560D02*
X-11339212Y022047686D01*
X-13121083Y022575674D02*
X-13121083Y021902804D01*
X-13121083Y022432182D02*
X-13025657Y022528306D01*
X-13025657Y022528306D02*
X-12931652Y022575674D01*
X-12931652Y022575674D02*
X-12789226Y022575674D01*
X-12789226Y022575674D02*
X-12693802Y022528306D01*
X-12693802Y022528306D02*
X-12598377Y022432182D01*
X-12598377Y022432182D02*
X-12551374Y022287299D01*
X-12551374Y022287299D02*
X-12551374Y022191175D01*
X-12551374Y022191175D02*
X-12598377Y022047685D01*
X-12598377Y022047685D02*
X-12693802Y021951560D01*
X-12693802Y021951560D02*
X-12789226Y021902804D01*
X-12789226Y021902804D02*
X-12931652Y021902804D01*
X-12931652Y021902804D02*
X-13025657Y021951560D01*
X-13025657Y021951560D02*
X-13121083Y022047685D01*
X-14081922Y022834073D02*
X-14081922Y021937484D01*
X-15023383Y022287302D02*
X-15631851Y022287302D01*
X-15631851Y022383424D02*
X-15581651Y022479549D01*
X-15581651Y022479549D02*
X-15529932Y022528306D01*
X-15529932Y022528306D02*
X-15429535Y022575674D01*
X-15429535Y022575674D02*
X-15277418Y022575674D01*
X-15277418Y022575674D02*
X-15175500Y022528306D01*
X-15175500Y022528306D02*
X-15073582Y022432183D01*
X-15073582Y022432183D02*
X-15023383Y022287302D01*
X-15023383Y022287302D02*
X-15023383Y022191175D01*
X-15023383Y022191175D02*
X-15073582Y022047686D01*
X-15073582Y022047686D02*
X-15175500Y021951560D01*
X-15175500Y021951560D02*
X-15277418Y021902804D01*
X-15277418Y021902804D02*
X-15429535Y021902804D01*
X-15429535Y021902804D02*
X-15529932Y021951560D01*
X-15529932Y021951560D02*
X-15631851Y022047686D01*
X-16650829Y022057647D02*
X-16495791Y022057647D01*
M02*