%TF.GenerationSoftware,tscircuit,circuit-json-to-gerber,0.0.104*%
%TF.CreationDate,2026-09-27T21:05:18.522Z*%
%TF.SameCoordinates,Original*%
%TF.FileFunction,Copper,L4,Bot*%
%TF.FilePolarity,Positive*%
%FSLAX46Y46*%
%MOMM*%
G04 Gerber Fmt 4.6, Leading zero omitted, Abs format (unit mm)*
G04 Created by tscircuit (builder) date 2026-09-27T21:05:18.522Z*
G01*
%LPD*%
G75*
G04 APERTURE MACROS START*
%AMHORZPILL*
0 Horizontal pill (stadium) shape macro*
0 Parameters:*
0 $1 = Total width*
0 $2 = Total height*
0 $3 = Circle diameter (equal to height)*
0 $4 = Circle center offset
0 21 = Center Line(Exposure, Width, Height, Center X, Center Y, Rotation)*
0 1 = Circle(Exposure, Diameter, Center X, Center Y, Rotation)*
21,1,$1-$3,$2,0.0,0.0,0.0*
1,1,$3,0.0-$4,0.0*
1,1,$3,$4,0.0*%
%AMVERTPILL*
0 Vertical pill (stadium) shape macro*
0 Parameters:*
0 $1 = Total width*
0 $2 = Total height*
0 $3 = Circle diameter (equal to width)*
0 $4 = Circle center offset
0 21 = Center Line(Exposure, Width, Height, Center X, Center Y, Rotation)*
21,1,$1,$2-$3,0.0,0.0,0.0*
1,1,$3,0.0,0.0-$4*
1,1,$3,0.0,$4*%
%AMROUNDRECT*
0 Rectangle with rounded corners*
0 $1 Corner radius*
0 $2 $3 $4 $5 $6 $7 $8 $9 X,Y Position of each corner*
0 Polygon box body*
4,1,4,$2,$3,$4,$5,$6,$7,$8,$9,$2,$3,0*
0 Circles for rounded corners*
1,1,$1+$1,$2,$3*
1,1,$1+$1,$4,$5*
1,1,$1+$1,$6,$7*
1,1,$1+$1,$8,$9*
0 Rectangles between the rounded corners*
20,1,$1+$1,$2,$3,$4,$5,0*
20,1,$1+$1,$4,$5,$6,$7,0*
20,1,$1+$1,$6,$7,$8,$9,0*
20,1,$1+$1,$8,$9,$2,$3,0*%
G04 APERTURE MACROS END*
G04 aperture START LIST*
%ADD10C,0.250000*%
%ADD11C,1.000000*%
%ADD12C,0.625000*%
%ADD13C,0.750000*%
%ADD14C,0.575000*%
%ADD15C,3.200000*%
%ADD16C,0.150000*%
%ADD17C,0.090000*%
%ADD18C,0.072000*%
%ADD19C,2.199996*%
%ADD20C,0.100000*%
%ADD21C,0.609600*%
%ADD22C,1.599997*%
%ADD23R,1.574800X1.599997*%
%ADD24C,0.600000*%
%ADD25C,0.450000*%
%ADD26C,0.001000*%
%TD*%
G04 aperture END LIST*
D26*
G36*
X037000000Y029500000D02*
G01*
X-37000000Y029500000D01*
G01*
X-37000000Y-29500000D01*
G01*
X037000000Y-29500000D01*
G01*
X037000000Y029500000D01*
G37*
%LPC*%
D26*
G36*
X-32500000Y021500000D02*
G01*
X-31817184Y021567252D01*
G01*
X-31160608Y021766422D01*
G01*
X-30555504Y022089856D01*
G01*
X-30025126Y022525126D01*
G01*
X-29589856Y023055504D01*
G01*
X-29266422Y023660608D01*
G01*
X-29067252Y024317184D01*
G01*
X-29000000Y025000000D01*
G01*
X-29067252Y025682816D01*
G01*
X-29266422Y026339392D01*
G01*
X-29589856Y026944496D01*
G01*
X-30025126Y027474874D01*
G01*
X-30555504Y027910144D01*
G01*
X-31160608Y028233578D01*
G01*
X-31817184Y028432748D01*
G01*
X-32500000Y028500000D01*
G01*
X-33182816Y028432748D01*
G01*
X-33839392Y028233578D01*
G01*
X-34444496Y027910144D01*
G01*
X-34974874Y027474874D01*
G01*
X-35410144Y026944496D01*
G01*
X-35733578Y026339392D01*
G01*
X-35932748Y025682816D01*
G01*
X-36000000Y025000000D01*
G01*
X-35932748Y024317184D01*
G01*
X-35733578Y023660608D01*
G01*
X-35410144Y023055504D01*
G01*
X-34974874Y022525126D01*
G01*
X-34444496Y022089856D01*
G01*
X-33839392Y021766422D01*
G01*
X-33182816Y021567252D01*
G01*
X-32500000Y021500000D01*
G37*
D26*
G36*
X032500000Y021500000D02*
G01*
X033182816Y021567252D01*
G01*
X033839392Y021766422D01*
G01*
X034444496Y022089856D01*
G01*
X034974874Y022525126D01*
G01*
X035410144Y023055504D01*
G01*
X035733578Y023660608D01*
G01*
X035932748Y024317184D01*
G01*
X036000000Y025000000D01*
G01*
X035932748Y025682816D01*
G01*
X035733578Y026339392D01*
G01*
X035410144Y026944496D01*
G01*
X034974874Y027474874D01*
G01*
X034444496Y027910144D01*
G01*
X033839392Y028233578D01*
G01*
X033182816Y028432748D01*
G01*
X032500000Y028500000D01*
G01*
X031817184Y028432748D01*
G01*
X031160608Y028233578D01*
G01*
X030555504Y027910144D01*
G01*
X030025126Y027474874D01*
G01*
X029589856Y026944496D01*
G01*
X029266422Y026339392D01*
G01*
X029067252Y025682816D01*
G01*
X029000000Y025000000D01*
G01*
X029067252Y024317184D01*
G01*
X029266422Y023660608D01*
G01*
X029589856Y023055504D01*
G01*
X030025126Y022525126D01*
G01*
X030555504Y022089856D01*
G01*
X031160608Y021766422D01*
G01*
X031817184Y021567252D01*
G01*
X032500000Y021500000D01*
G37*
D26*
G36*
X004815324Y016133324D02*
G01*
X004956765Y016147255D01*
G01*
X005092770Y016188512D01*
G01*
X005218113Y016255509D01*
G01*
X005327977Y016345672D01*
G01*
X005418140Y016455536D01*
G01*
X005485137Y016580879D01*
G01*
X005526394Y016716884D01*
G01*
X005536117Y016815607D01*
G01*
X005539055Y016815433D01*
G01*
X005680730Y019206009D01*
G01*
X005677793Y019206183D01*
G01*
X005682000Y019248900D01*
G01*
X005682000Y019400000D01*
G01*
X005668069Y019541440D01*
G01*
X005626813Y019677445D01*
G01*
X005559815Y019802788D01*
G01*
X005469652Y019912652D01*
G01*
X005359788Y020002815D01*
G01*
X005234445Y020069813D01*
G01*
X005098440Y020111069D01*
G01*
X004957000Y020125000D01*
G01*
X004815560Y020111069D01*
G01*
X004679555Y020069813D01*
G01*
X004554212Y020002815D01*
G01*
X004444348Y019912652D01*
G01*
X004354185Y019802788D01*
G01*
X004287187Y019677445D01*
G01*
X004245931Y019541440D01*
G01*
X004232000Y019400000D01*
G01*
X004232000Y019270362D01*
G01*
X004091594Y016901216D01*
G01*
X004094531Y016901042D01*
G01*
X004090324Y016858324D01*
G01*
X004104255Y016716884D01*
G01*
X004145512Y016580879D01*
G01*
X004212509Y016455536D01*
G01*
X004302672Y016345672D01*
G01*
X004412536Y016255509D01*
G01*
X004537879Y016188512D01*
G01*
X004673884Y016147255D01*
G01*
X004815324Y016133324D01*
G37*
D26*
G36*
X002822705Y017151069D02*
G01*
X002905618Y017159235D01*
G01*
X002985346Y017183420D01*
G01*
X003058822Y017222694D01*
G01*
X003123225Y017275549D01*
G01*
X003176080Y017339952D01*
G01*
X003215354Y017413429D01*
G01*
X003239539Y017493156D01*
G01*
X003247705Y017576069D01*
G01*
X003239539Y017658982D01*
G01*
X003215354Y017738710D01*
G01*
X003176080Y017812186D01*
G01*
X003123225Y017876589D01*
G01*
X003058822Y017929444D01*
G01*
X002985346Y017968718D01*
G01*
X002905618Y017992903D01*
G01*
X002822705Y018001069D01*
G01*
X002739792Y017992903D01*
G01*
X002660065Y017968718D01*
G01*
X002586588Y017929444D01*
G01*
X002522185Y017876589D01*
G01*
X002469330Y017812186D01*
G01*
X002430056Y017738710D01*
G01*
X002405871Y017658982D01*
G01*
X002397705Y017576069D01*
G01*
X002405871Y017493156D01*
G01*
X002430056Y017413429D01*
G01*
X002469330Y017339952D01*
G01*
X002522185Y017275549D01*
G01*
X002586588Y017222694D01*
G01*
X002660065Y017183420D01*
G01*
X002739792Y017159235D01*
G01*
X002822705Y017151069D01*
G37*
D26*
G36*
X022064000Y-04790000D02*
G01*
X022205440Y-04776069D01*
G01*
X022341445Y-04734813D01*
G01*
X022466788Y-04667815D01*
G01*
X022576652Y-04577652D01*
G01*
X022606340Y-04547965D01*
G01*
X022609808Y-04543739D01*
G01*
X023036192Y-04271565D01*
G01*
X023035475Y-04270441D01*
G01*
X023048889Y-04263271D01*
G01*
X023158753Y-04173108D01*
G01*
X023248916Y-04063244D01*
G01*
X023315913Y-03937901D01*
G01*
X023357170Y-03801896D01*
G01*
X023371101Y-03660456D01*
G01*
X023371101Y-03660348D01*
G01*
X023371101Y001223542D01*
G01*
X023438131Y001168532D01*
G01*
X023611018Y001076122D01*
G01*
X023798611Y001019216D01*
G01*
X023993701Y001000002D01*
G01*
X024188791Y001019216D01*
G01*
X024376384Y001076122D01*
G01*
X024549270Y001168532D01*
G01*
X024700806Y001292894D01*
G01*
X024825169Y001444431D01*
G01*
X024917579Y001617317D01*
G01*
X024974485Y001804910D01*
G01*
X024993699Y002000000D01*
G01*
X024974485Y002195090D01*
G01*
X024917579Y002382683D01*
G01*
X024825169Y002555569D01*
G01*
X024700806Y002707106D01*
G01*
X024549270Y002831468D01*
G01*
X024376384Y002923878D01*
G01*
X024188791Y002980784D01*
G01*
X023993701Y002999998D01*
G01*
X023798611Y002980784D01*
G01*
X023611018Y002923878D01*
G01*
X023438131Y002831468D01*
G01*
X023371101Y002776458D01*
G01*
X023371101Y003254244D01*
G01*
X023357170Y003395685D01*
G01*
X023315913Y003531690D01*
G01*
X023248916Y003657033D01*
G01*
X023158753Y003766897D01*
G01*
X023113493Y003804041D01*
G01*
X023214788Y003858185D01*
G01*
X023324652Y003948348D01*
G01*
X023414815Y004058212D01*
G01*
X023481813Y004183555D01*
G01*
X023523069Y004319560D01*
G01*
X023537000Y004461000D01*
G01*
X023531330Y004518563D01*
G01*
X023534690Y004518832D01*
G01*
X023404909Y006140627D01*
G01*
X023442818Y006211549D01*
G01*
X023484074Y006347554D01*
G01*
X023498005Y006488995D01*
G01*
X023484074Y006630435D01*
G01*
X023442818Y006766440D01*
G01*
X023375821Y006891783D01*
G01*
X023335950Y006940365D01*
G01*
X023357170Y007010318D01*
G01*
X023371101Y007151758D01*
G01*
X023371101Y008223542D01*
G01*
X023438131Y008168532D01*
G01*
X023611018Y008076122D01*
G01*
X023798611Y008019216D01*
G01*
X023993701Y008000002D01*
G01*
X024188791Y008019216D01*
G01*
X024376384Y008076122D01*
G01*
X024549270Y008168532D01*
G01*
X024700806Y008292894D01*
G01*
X024825169Y008444431D01*
G01*
X024917579Y008617317D01*
G01*
X024974485Y008804910D01*
G01*
X024993699Y009000000D01*
G01*
X024974485Y009195090D01*
G01*
X024917579Y009382683D01*
G01*
X024825169Y009555569D01*
G01*
X024700806Y009707106D01*
G01*
X024549270Y009831468D01*
G01*
X024376384Y009923878D01*
G01*
X024188791Y009980784D01*
G01*
X023993701Y009999998D01*
G01*
X023798611Y009980784D01*
G01*
X023611018Y009923878D01*
G01*
X023438131Y009831468D01*
G01*
X023371101Y009776458D01*
G01*
X023371101Y015030312D01*
G01*
X023357170Y015171752D01*
G01*
X023315913Y015307757D01*
G01*
X023248916Y015433100D01*
G01*
X023158753Y015542964D01*
G01*
X023101328Y015590092D01*
G01*
X023103526Y015592795D01*
G01*
X022441101Y016131495D01*
G01*
X022441101Y016999998D01*
G01*
X020466301Y016999998D01*
G01*
X020466301Y016726727D01*
G01*
X008395608Y016747818D01*
G01*
X008395608Y016747694D01*
G01*
X008394341Y016747819D01*
G01*
X008252901Y016733888D01*
G01*
X008116896Y016692631D01*
G01*
X007991553Y016625634D01*
G01*
X007881689Y016535471D01*
G01*
X007879366Y016532640D01*
G01*
X007879117Y016532887D01*
G01*
X005730292Y014362339D01*
G01*
X005701168Y014346772D01*
G01*
X005591304Y014256609D01*
G01*
X005528348Y014193652D01*
G01*
X005438185Y014083788D01*
G01*
X005371187Y013958445D01*
G01*
X005329931Y013822440D01*
G01*
X005316000Y013681000D01*
G01*
X005329931Y013539560D01*
G01*
X005371187Y013403555D01*
G01*
X005438185Y013278212D01*
G01*
X005528348Y013168348D01*
G01*
X005638212Y013078185D01*
G01*
X005763555Y013011187D01*
G01*
X005899560Y012969931D01*
G01*
X006041000Y012956000D01*
G01*
X006182440Y012969931D01*
G01*
X006318445Y013011187D01*
G01*
X006443788Y013078185D01*
G01*
X006482074Y013109605D01*
G01*
X006541073Y013141141D01*
G01*
X006650937Y013231304D01*
G01*
X006653260Y013234135D01*
G01*
X006653509Y013233888D01*
G01*
X008696261Y015297290D01*
G01*
X009587055Y015295734D01*
G01*
X009583166Y015282913D01*
G01*
X009575000Y015200000D01*
G01*
X009583166Y015117087D01*
G01*
X009607351Y015037360D01*
G01*
X009646625Y014963883D01*
G01*
X009699480Y014899480D01*
G01*
X009763883Y014846625D01*
G01*
X009837360Y014807351D01*
G01*
X009917087Y014783166D01*
G01*
X010000000Y014775000D01*
G01*
X010082913Y014783166D01*
G01*
X010162640Y014807351D01*
G01*
X010236117Y014846625D01*
G01*
X010300520Y014899480D01*
G01*
X010353375Y014963883D01*
G01*
X010392649Y015037360D01*
G01*
X010416834Y015117087D01*
G01*
X010425000Y015200000D01*
G01*
X010416834Y015282913D01*
G01*
X010413383Y015294290D01*
G01*
X018267660Y015280566D01*
G01*
X018279292Y015242219D01*
G01*
X018318566Y015168742D01*
G01*
X018371420Y015104339D01*
G01*
X018435823Y015051485D01*
G01*
X018509300Y015012211D01*
G01*
X018589027Y014988026D01*
G01*
X018671940Y014979860D01*
G01*
X018754854Y014988026D01*
G01*
X018834581Y015012211D01*
G01*
X018908058Y015051485D01*
G01*
X018972461Y015104339D01*
G01*
X019025315Y015168742D01*
G01*
X019064589Y015242219D01*
G01*
X019075793Y015279154D01*
G01*
X020466301Y015276724D01*
G01*
X020466301Y015000002D01*
G01*
X021534276Y015000002D01*
G01*
X021921101Y014685427D01*
G01*
X021921101Y009999998D01*
G01*
X020466301Y009999998D01*
G01*
X020466301Y008000002D01*
G01*
X021921101Y008000002D01*
G01*
X021921101Y007650585D01*
G01*
X021828964Y007615325D01*
G01*
X021829561Y007613764D01*
G01*
X021810641Y007608025D01*
G01*
X021685298Y007541028D01*
G01*
X021575434Y007450865D01*
G01*
X021485271Y007341001D01*
G01*
X021418273Y007215658D01*
G01*
X021377017Y007079653D01*
G01*
X021363086Y006938213D01*
G01*
X021365224Y006916508D01*
G01*
X021363413Y006916454D01*
G01*
X021403823Y005570637D01*
G01*
X021362640Y005592649D01*
G01*
X021282913Y005616834D01*
G01*
X021200000Y005625000D01*
G01*
X021117087Y005616834D01*
G01*
X021037360Y005592649D01*
G01*
X020963883Y005553375D01*
G01*
X020899480Y005500520D01*
G01*
X020846625Y005436117D01*
G01*
X020807351Y005362640D01*
G01*
X020783166Y005282913D01*
G01*
X020775000Y005200000D01*
G01*
X020783166Y005117087D01*
G01*
X020807351Y005037360D01*
G01*
X020846625Y004963883D01*
G01*
X020899480Y004899480D01*
G01*
X020963883Y004846625D01*
G01*
X021037360Y004807351D01*
G01*
X021117087Y004783166D01*
G01*
X021200000Y004775000D01*
G01*
X021282913Y004783166D01*
G01*
X021362640Y004807351D01*
G01*
X021425729Y004841072D01*
G01*
X021466928Y003468952D01*
G01*
X021468739Y003469006D01*
G01*
X021480532Y003349271D01*
G01*
X021521789Y003213266D01*
G01*
X021588786Y003087923D01*
G01*
X021660944Y002999998D01*
G01*
X020466301Y002999998D01*
G01*
X020466301Y001000002D01*
G01*
X021921101Y001000002D01*
G01*
X021921101Y-03263130D01*
G01*
X021703596Y-03401970D01*
G01*
X021704313Y-03403094D01*
G01*
X021690899Y-03410264D01*
G01*
X021581035Y-03500427D01*
G01*
X021490872Y-03610291D01*
G01*
X021466732Y-03655452D01*
G01*
X021461185Y-03662212D01*
G01*
X021394187Y-03787555D01*
G01*
X021352931Y-03923560D01*
G01*
X021339000Y-04065000D01*
G01*
X021352931Y-04206440D01*
G01*
X021394187Y-04342445D01*
G01*
X021461185Y-04467788D01*
G01*
X021551348Y-04577652D01*
G01*
X021661212Y-04667815D01*
G01*
X021786555Y-04734813D01*
G01*
X021922560Y-04776069D01*
G01*
X022064000Y-04790000D01*
G37*
D26*
G36*
X026533701Y015000002D02*
G01*
X026728791Y015019216D01*
G01*
X026916384Y015076122D01*
G01*
X027089270Y015168532D01*
G01*
X027240806Y015292894D01*
G01*
X027365169Y015444431D01*
G01*
X027457579Y015617317D01*
G01*
X027514485Y015804910D01*
G01*
X027533699Y016000000D01*
G01*
X027514485Y016195090D01*
G01*
X027457579Y016382683D01*
G01*
X027365169Y016555569D01*
G01*
X027240806Y016707106D01*
G01*
X027089270Y016831468D01*
G01*
X026916384Y016923878D01*
G01*
X026728791Y016980784D01*
G01*
X026533701Y016999998D01*
G01*
X026338611Y016980784D01*
G01*
X026151018Y016923878D01*
G01*
X025978131Y016831468D01*
G01*
X025826595Y016707106D01*
G01*
X025702233Y016555569D01*
G01*
X025609823Y016382683D01*
G01*
X025552917Y016195090D01*
G01*
X025533702Y016000000D01*
G01*
X025552917Y015804910D01*
G01*
X025609823Y015617317D01*
G01*
X025702233Y015444431D01*
G01*
X025826595Y015292894D01*
G01*
X025978131Y015168532D01*
G01*
X026151018Y015076122D01*
G01*
X026338611Y015019216D01*
G01*
X026533701Y015000002D01*
G37*
D26*
G36*
X-02428688Y015617997D02*
G01*
X-02345775Y015626163D01*
G01*
X-02266047Y015650348D01*
G01*
X-02192571Y015689622D01*
G01*
X-02128168Y015742476D01*
G01*
X-02075313Y015806879D01*
G01*
X-02036039Y015880356D01*
G01*
X-02011854Y015960083D01*
G01*
X-02003688Y016042997D01*
G01*
X-02011854Y016125910D01*
G01*
X-02036039Y016205637D01*
G01*
X-02075313Y016279114D01*
G01*
X-02128168Y016343517D01*
G01*
X-02192571Y016396371D01*
G01*
X-02266047Y016435646D01*
G01*
X-02345775Y016459831D01*
G01*
X-02428688Y016467997D01*
G01*
X-02511601Y016459831D01*
G01*
X-02591328Y016435646D01*
G01*
X-02664805Y016396371D01*
G01*
X-02729208Y016343517D01*
G01*
X-02782063Y016279114D01*
G01*
X-02821337Y016205637D01*
G01*
X-02845522Y016125910D01*
G01*
X-02853688Y016042997D01*
G01*
X-02845522Y015960083D01*
G01*
X-02821337Y015880356D01*
G01*
X-02782063Y015806879D01*
G01*
X-02729208Y015742476D01*
G01*
X-02664805Y015689622D01*
G01*
X-02591328Y015650348D01*
G01*
X-02511601Y015626163D01*
G01*
X-02428688Y015617997D01*
G37*
D26*
G36*
X-00044024Y013783833D02*
G01*
X000038890Y013791999D01*
G01*
X000118617Y013816184D01*
G01*
X000192094Y013855458D01*
G01*
X000256497Y013908312D01*
G01*
X000309351Y013972715D01*
G01*
X000348625Y014046192D01*
G01*
X000372810Y014125919D01*
G01*
X000380976Y014208833D01*
G01*
X000372810Y014291746D01*
G01*
X000348625Y014371473D01*
G01*
X000309351Y014444950D01*
G01*
X000256497Y014509353D01*
G01*
X000192094Y014562207D01*
G01*
X000118617Y014601482D01*
G01*
X000038890Y014625667D01*
G01*
X-00044024Y014633833D01*
G01*
X-00126937Y014625667D01*
G01*
X-00206664Y014601482D01*
G01*
X-00280141Y014562207D01*
G01*
X-00344544Y014509353D01*
G01*
X-00397398Y014444950D01*
G01*
X-00436673Y014371473D01*
G01*
X-00460858Y014291746D01*
G01*
X-00469024Y014208833D01*
G01*
X-00460858Y014125919D01*
G01*
X-00436673Y014046192D01*
G01*
X-00397398Y013972715D01*
G01*
X-00344544Y013908312D01*
G01*
X-00280141Y013855458D01*
G01*
X-00206664Y013816184D01*
G01*
X-00126937Y013791999D01*
G01*
X-00044024Y013783833D01*
G37*
D26*
G36*
X-28000000Y011199997D02*
G01*
X-27746383Y011224976D01*
G01*
X-27502512Y011298954D01*
G01*
X-27277760Y011419086D01*
G01*
X-27080763Y011580758D01*
G01*
X-26919091Y011777755D01*
G01*
X-26798959Y012002507D01*
G01*
X-26724981Y012246378D01*
G01*
X-26700002Y012499995D01*
G01*
X-26724981Y012753612D01*
G01*
X-26798959Y012997483D01*
G01*
X-26919091Y013222235D01*
G01*
X-27080763Y013419232D01*
G01*
X-27277760Y013580904D01*
G01*
X-27502512Y013701036D01*
G01*
X-27746383Y013775014D01*
G01*
X-28000000Y013799993D01*
G01*
X-28253617Y013775014D01*
G01*
X-28497488Y013701036D01*
G01*
X-28722240Y013580904D01*
G01*
X-28919237Y013419232D01*
G01*
X-29080909Y013222235D01*
G01*
X-29201041Y012997483D01*
G01*
X-29275019Y012753612D01*
G01*
X-29299998Y012499995D01*
G01*
X-29275019Y012246378D01*
G01*
X-29201041Y012002507D01*
G01*
X-29080909Y011777755D01*
G01*
X-28919237Y011580758D01*
G01*
X-28722240Y011419086D01*
G01*
X-28497488Y011298954D01*
G01*
X-28253617Y011224976D01*
G01*
X-28000000Y011199997D01*
G37*
D26*
G36*
X-04852358Y001575205D02*
G01*
X-04710917Y001589135D01*
G01*
X-04574912Y001630392D01*
G01*
X-04449570Y001697389D01*
G01*
X-04339706Y001787552D01*
G01*
X-04312066Y001821232D01*
G01*
X-04309845Y001819263D01*
G01*
X-03531104Y002697700D01*
G01*
X-03427788Y002612911D01*
G01*
X-03302445Y002545913D01*
G01*
X-03166440Y002504657D01*
G01*
X-03026784Y002490902D01*
G01*
X-03026784Y002490728D01*
G01*
X003960314Y002473537D01*
G01*
X003960314Y002473711D01*
G01*
X003962098Y002473535D01*
G01*
X004103538Y002487466D01*
G01*
X004239543Y002528723D01*
G01*
X004364886Y002595720D01*
G01*
X004456880Y002671217D01*
G01*
X004458180Y002669832D01*
G01*
X005595275Y003736769D01*
G01*
X005646395Y003674479D01*
G01*
X005710798Y003621625D01*
G01*
X005784275Y003582350D01*
G01*
X005864002Y003558165D01*
G01*
X005946916Y003549999D01*
G01*
X006029829Y003558165D01*
G01*
X006109556Y003582350D01*
G01*
X006183033Y003621625D01*
G01*
X006247436Y003674479D01*
G01*
X006300290Y003738882D01*
G01*
X006339564Y003812359D01*
G01*
X006363749Y003892086D01*
G01*
X006371916Y003974999D01*
G01*
X006363749Y004057912D01*
G01*
X006339564Y004137640D01*
G01*
X006300290Y004211116D01*
G01*
X006247436Y004275519D01*
G01*
X006205836Y004309660D01*
G01*
X006552658Y004635083D01*
G01*
X006551358Y004636468D01*
G01*
X006569228Y004651134D01*
G01*
X006659391Y004760998D01*
G01*
X006726388Y004886341D01*
G01*
X006767645Y005022346D01*
G01*
X006781575Y005163786D01*
G01*
X006778524Y005194769D01*
G01*
X006780909Y005194871D01*
G01*
X006711568Y006810657D01*
G01*
X006721180Y006828639D01*
G01*
X006775815Y006895212D01*
G01*
X006842813Y007020555D01*
G01*
X006884069Y007156560D01*
G01*
X006898000Y007298000D01*
G01*
X006884069Y007439440D01*
G01*
X006842813Y007575445D01*
G01*
X006775815Y007700788D01*
G01*
X006685652Y007810652D01*
G01*
X006575788Y007900815D01*
G01*
X006450445Y007967813D01*
G01*
X006314440Y008009069D01*
G01*
X006173000Y008023000D01*
G01*
X006031560Y008009069D01*
G01*
X005895555Y007967813D01*
G01*
X005770212Y007900815D01*
G01*
X005660348Y007810652D01*
G01*
X005585225Y007735529D01*
G01*
X005495062Y007625665D01*
G01*
X005483489Y007604014D01*
G01*
X005462119Y007582644D01*
G01*
X005371956Y007472780D01*
G01*
X005304959Y007347437D01*
G01*
X005263702Y007211432D01*
G01*
X005249771Y007069992D01*
G01*
X005252823Y007039009D01*
G01*
X005250438Y007038907D01*
G01*
X005280985Y006327096D01*
G01*
X005257641Y006339574D01*
G01*
X005177914Y006363759D01*
G01*
X005095000Y006371925D01*
G01*
X005012087Y006363759D01*
G01*
X004932360Y006339574D01*
G01*
X004858883Y006300300D01*
G01*
X004794480Y006247446D01*
G01*
X004784928Y006235807D01*
G01*
X003305026Y008110664D01*
G01*
X003424800Y008122461D01*
G01*
X003560805Y008163717D01*
G01*
X003686148Y008230715D01*
G01*
X003796012Y008320878D01*
G01*
X003886175Y008430742D01*
G01*
X003953172Y008556085D01*
G01*
X003994428Y008692090D01*
G01*
X004008359Y008833530D01*
G01*
X003994428Y008974971D01*
G01*
X003985392Y009004758D01*
G01*
X004033619Y009063523D01*
G01*
X004072893Y009137000D01*
G01*
X004097078Y009216727D01*
G01*
X004105244Y009299640D01*
G01*
X004097078Y009382554D01*
G01*
X004072893Y009462281D01*
G01*
X004033619Y009535758D01*
G01*
X003980765Y009600161D01*
G01*
X003916362Y009653015D01*
G01*
X003842885Y009692289D01*
G01*
X003763158Y009716474D01*
G01*
X003754487Y009717328D01*
G01*
X003759685Y010112374D01*
G01*
X003758810Y010112386D01*
G01*
X003759557Y010119978D01*
G01*
X003759745Y010119977D01*
G01*
X003759967Y010203042D01*
G01*
X003759778Y010203043D01*
G01*
X003759969Y010204978D01*
G01*
X003759969Y010788546D01*
G01*
X003769639Y010797305D01*
G01*
X003767873Y010799255D01*
G01*
X003795565Y010821982D01*
G01*
X003885728Y010931846D01*
G01*
X003892849Y010945168D01*
G01*
X004095096Y010945168D01*
G01*
X004236537Y010959098D01*
G01*
X004372542Y011000355D01*
G01*
X004497884Y011067352D01*
G01*
X004607748Y011157515D01*
G01*
X004697912Y011267379D01*
G01*
X004764909Y011392722D01*
G01*
X004806165Y011528727D01*
G01*
X004820096Y011670168D01*
G01*
X004820096Y012075231D01*
G01*
X004806165Y012216671D01*
G01*
X004764909Y012352676D01*
G01*
X004697912Y012478019D01*
G01*
X004607748Y012587883D01*
G01*
X004497884Y012678046D01*
G01*
X004372542Y012745044D01*
G01*
X004236537Y012786300D01*
G01*
X004095096Y012800231D01*
G01*
X003953656Y012786300D01*
G01*
X003817651Y012745044D01*
G01*
X003692308Y012678046D01*
G01*
X003617919Y012616997D01*
G01*
X003609379Y012645149D01*
G01*
X003570105Y012718626D01*
G01*
X003517250Y012783029D01*
G01*
X003452847Y012835883D01*
G01*
X003379371Y012875157D01*
G01*
X003299902Y012899264D01*
G01*
X003292559Y012973813D01*
G01*
X003251302Y013109818D01*
G01*
X003184305Y013235161D01*
G01*
X003094142Y013345025D01*
G01*
X003085590Y013353577D01*
G01*
X002975726Y013443740D01*
G01*
X002850383Y013510737D01*
G01*
X002714378Y013551994D01*
G01*
X002572938Y013565924D01*
G01*
X002431497Y013551994D01*
G01*
X002295492Y013510737D01*
G01*
X002170149Y013443740D01*
G01*
X002153286Y013429901D01*
G01*
X002132325Y013418697D01*
G01*
X002022461Y013328534D01*
G01*
X001932298Y013218670D01*
G01*
X001919861Y013195402D01*
G01*
X001375348Y012650889D01*
G01*
X001285185Y012541025D01*
G01*
X001218187Y012415682D01*
G01*
X001176931Y012279677D01*
G01*
X001163000Y012138237D01*
G01*
X001163000Y011884471D01*
G01*
X001113035Y011945353D01*
G01*
X001048632Y011998208D01*
G01*
X000975155Y012037482D01*
G01*
X000895428Y012061667D01*
G01*
X000812515Y012069833D01*
G01*
X000729602Y012061667D01*
G01*
X000649875Y012037482D01*
G01*
X000576398Y011998208D01*
G01*
X000511995Y011945353D01*
G01*
X000459140Y011880950D01*
G01*
X000419866Y011807473D01*
G01*
X000395681Y011727746D01*
G01*
X000387515Y011644833D01*
G01*
X000395681Y011561920D01*
G01*
X000419866Y011482193D01*
G01*
X000459140Y011408716D01*
G01*
X000511995Y011344313D01*
G01*
X000576398Y011291458D01*
G01*
X000649875Y011252184D01*
G01*
X000729602Y011227999D01*
G01*
X000812515Y011219833D01*
G01*
X000895428Y011227999D01*
G01*
X000975155Y011252184D01*
G01*
X001048632Y011291458D01*
G01*
X001113035Y011344313D01*
G01*
X001163000Y011405195D01*
G01*
X001163000Y004534635D01*
G01*
X001101235Y004567649D01*
G01*
X001021508Y004591834D01*
G01*
X000938595Y004600000D01*
G01*
X000855681Y004591834D01*
G01*
X000775954Y004567649D01*
G01*
X000702477Y004528375D01*
G01*
X000638074Y004475520D01*
G01*
X000585220Y004411117D01*
G01*
X000545946Y004337640D01*
G01*
X000521761Y004257913D01*
G01*
X000513595Y004175000D01*
G01*
X000521761Y004092087D01*
G01*
X000545946Y004012360D01*
G01*
X000585220Y003938883D01*
G01*
X000591007Y003931832D01*
G01*
X-00281534Y003933978D01*
G01*
X-00253972Y004024837D01*
G01*
X-00253154Y004024664D01*
G01*
X-00168124Y004425810D01*
G01*
X-00168943Y004425984D01*
G01*
X-00166297Y004434705D01*
G01*
X-00152366Y004576146D01*
G01*
X-00166297Y004717586D01*
G01*
X-00207553Y004853591D01*
G01*
X-00274551Y004978934D01*
G01*
X-00344955Y005064721D01*
G01*
X-00343195Y005066336D01*
G01*
X-01338771Y006151238D01*
G01*
X-01340530Y006149624D01*
G01*
X-01360290Y006173701D01*
G01*
X-01470154Y006263864D01*
G01*
X-01595497Y006330861D01*
G01*
X-01731502Y006372118D01*
G01*
X-01872942Y006386048D01*
G01*
X-02014383Y006372118D01*
G01*
X-02150388Y006330861D01*
G01*
X-02275731Y006263864D01*
G01*
X-02385595Y006173701D01*
G01*
X-02413235Y006140022D01*
G01*
X-02415455Y006141990D01*
G01*
X-05055481Y003163985D01*
G01*
X-05118688Y003144812D01*
G01*
X-05244031Y003077815D01*
G01*
X-05353895Y002987652D01*
G01*
X-05444058Y002877788D01*
G01*
X-05511055Y002752445D01*
G01*
X-05552311Y002616440D01*
G01*
X-05561729Y002520818D01*
G01*
X-05564781Y002521012D01*
G01*
X-05575896Y002346217D01*
G01*
X-05572845Y002346023D01*
G01*
X-05577358Y002300205D01*
G01*
X-05563427Y002158764D01*
G01*
X-05522171Y002022759D01*
G01*
X-05455173Y001897416D01*
G01*
X-05365010Y001787552D01*
G01*
X-05255146Y001697389D01*
G01*
X-05129803Y001630392D01*
G01*
X-04993798Y001589135D01*
G01*
X-04852358Y001575205D01*
G37*
D26*
G36*
X006400000Y010575000D02*
G01*
X006482913Y010583166D01*
G01*
X006562640Y010607351D01*
G01*
X006636117Y010646625D01*
G01*
X006700520Y010699480D01*
G01*
X006753375Y010763883D01*
G01*
X006792649Y010837360D01*
G01*
X006816834Y010917087D01*
G01*
X006825000Y011000000D01*
G01*
X006824389Y011006208D01*
G01*
X006866381Y010971745D01*
G01*
X006939858Y010932471D01*
G01*
X007019585Y010908286D01*
G01*
X007102499Y010900120D01*
G01*
X007185412Y010908286D01*
G01*
X007265139Y010932471D01*
G01*
X007338616Y010971745D01*
G01*
X007403019Y011024600D01*
G01*
X007455873Y011089003D01*
G01*
X007495147Y011162480D01*
G01*
X007519332Y011242207D01*
G01*
X007527499Y011325120D01*
G01*
X007519332Y011408033D01*
G01*
X007495147Y011487760D01*
G01*
X007455873Y011561237D01*
G01*
X007403019Y011625640D01*
G01*
X007338616Y011678495D01*
G01*
X007265139Y011717769D01*
G01*
X007185412Y011741954D01*
G01*
X007102499Y011750120D01*
G01*
X007019585Y011741954D01*
G01*
X006939858Y011717769D01*
G01*
X006866381Y011678495D01*
G01*
X006801978Y011625640D01*
G01*
X006749124Y011561237D01*
G01*
X006709850Y011487760D01*
G01*
X006685665Y011408033D01*
G01*
X006677499Y011325120D01*
G01*
X006678110Y011318911D01*
G01*
X006636117Y011353375D01*
G01*
X006562640Y011392649D01*
G01*
X006482913Y011416834D01*
G01*
X006400000Y011425000D01*
G01*
X006317087Y011416834D01*
G01*
X006237360Y011392649D01*
G01*
X006163883Y011353375D01*
G01*
X006099480Y011300520D01*
G01*
X006046625Y011236117D01*
G01*
X006007351Y011162640D01*
G01*
X005983166Y011082913D01*
G01*
X005975000Y011000000D01*
G01*
X005983166Y010917087D01*
G01*
X006007351Y010837360D01*
G01*
X006046625Y010763883D01*
G01*
X006099480Y010699480D01*
G01*
X006163883Y010646625D01*
G01*
X006237360Y010607351D01*
G01*
X006317087Y010583166D01*
G01*
X006400000Y010575000D01*
G37*
D26*
G36*
X009516623Y010187377D02*
G01*
X009599536Y010195544D01*
G01*
X009679263Y010219729D01*
G01*
X009752740Y010259003D01*
G01*
X009817143Y010311857D01*
G01*
X009869997Y010376260D01*
G01*
X009909271Y010449737D01*
G01*
X009933456Y010529464D01*
G01*
X009941623Y010612377D01*
G01*
X009933456Y010695291D01*
G01*
X009909271Y010775018D01*
G01*
X009869997Y010848495D01*
G01*
X009817143Y010912898D01*
G01*
X009752740Y010965752D01*
G01*
X009679263Y011005026D01*
G01*
X009599536Y011029211D01*
G01*
X009516623Y011037377D01*
G01*
X009433709Y011029211D01*
G01*
X009353982Y011005026D01*
G01*
X009280505Y010965752D01*
G01*
X009216102Y010912898D01*
G01*
X009163248Y010848495D01*
G01*
X009123974Y010775018D01*
G01*
X009099789Y010695291D01*
G01*
X009091623Y010612377D01*
G01*
X009099789Y010529464D01*
G01*
X009123974Y010449737D01*
G01*
X009163248Y010376260D01*
G01*
X009216102Y010311857D01*
G01*
X009280505Y010259003D01*
G01*
X009353982Y010219729D01*
G01*
X009433709Y010195544D01*
G01*
X009516623Y010187377D01*
G37*
D26*
G36*
X009046000Y008560000D02*
G01*
X009128913Y008568166D01*
G01*
X009208640Y008592351D01*
G01*
X009282117Y008631625D01*
G01*
X009346520Y008684480D01*
G01*
X009399375Y008748883D01*
G01*
X009438649Y008822360D01*
G01*
X009462834Y008902087D01*
G01*
X009471000Y008985000D01*
G01*
X009462834Y009067913D01*
G01*
X009438649Y009147640D01*
G01*
X009399375Y009221117D01*
G01*
X009346520Y009285520D01*
G01*
X009282117Y009338375D01*
G01*
X009208640Y009377649D01*
G01*
X009128913Y009401834D01*
G01*
X009046000Y009410000D01*
G01*
X008963087Y009401834D01*
G01*
X008883360Y009377649D01*
G01*
X008809883Y009338375D01*
G01*
X008745480Y009285520D01*
G01*
X008692625Y009221117D01*
G01*
X008653351Y009147640D01*
G01*
X008629166Y009067913D01*
G01*
X008621000Y008985000D01*
G01*
X008629166Y008902087D01*
G01*
X008653351Y008822360D01*
G01*
X008692625Y008748883D01*
G01*
X008745480Y008684480D01*
G01*
X008809883Y008631625D01*
G01*
X008883360Y008592351D01*
G01*
X008963087Y008568166D01*
G01*
X009046000Y008560000D01*
G37*
D26*
G36*
X-08399000Y007974000D02*
G01*
X-08316087Y007982166D01*
G01*
X-08236360Y008006351D01*
G01*
X-08162883Y008045625D01*
G01*
X-08098480Y008098480D01*
G01*
X-08045625Y008162883D01*
G01*
X-08006351Y008236360D01*
G01*
X-07982166Y008316087D01*
G01*
X-07974000Y008399000D01*
G01*
X-07982166Y008481913D01*
G01*
X-08006351Y008561640D01*
G01*
X-08045625Y008635117D01*
G01*
X-08098480Y008699520D01*
G01*
X-08162883Y008752375D01*
G01*
X-08236360Y008791649D01*
G01*
X-08316087Y008815834D01*
G01*
X-08399000Y008824000D01*
G01*
X-08481913Y008815834D01*
G01*
X-08561640Y008791649D01*
G01*
X-08635117Y008752375D01*
G01*
X-08699520Y008699520D01*
G01*
X-08752375Y008635117D01*
G01*
X-08791649Y008561640D01*
G01*
X-08815834Y008481913D01*
G01*
X-08824000Y008399000D01*
G01*
X-08815834Y008316087D01*
G01*
X-08791649Y008236360D01*
G01*
X-08752375Y008162883D01*
G01*
X-08699520Y008098480D01*
G01*
X-08635117Y008045625D01*
G01*
X-08561640Y008006351D01*
G01*
X-08481913Y007982166D01*
G01*
X-08399000Y007974000D01*
G37*
D26*
G36*
X-06405000Y007943000D02*
G01*
X-06322087Y007951166D01*
G01*
X-06242360Y007975351D01*
G01*
X-06168883Y008014625D01*
G01*
X-06104480Y008067480D01*
G01*
X-06051625Y008131883D01*
G01*
X-06012351Y008205360D01*
G01*
X-05988166Y008285087D01*
G01*
X-05980000Y008368000D01*
G01*
X-05988166Y008450913D01*
G01*
X-06012351Y008530640D01*
G01*
X-06051625Y008604117D01*
G01*
X-06104480Y008668520D01*
G01*
X-06168883Y008721375D01*
G01*
X-06242360Y008760649D01*
G01*
X-06322087Y008784834D01*
G01*
X-06405000Y008793000D01*
G01*
X-06487913Y008784834D01*
G01*
X-06567640Y008760649D01*
G01*
X-06641117Y008721375D01*
G01*
X-06705520Y008668520D01*
G01*
X-06758375Y008604117D01*
G01*
X-06797649Y008530640D01*
G01*
X-06821834Y008450913D01*
G01*
X-06830000Y008368000D01*
G01*
X-06821834Y008285087D01*
G01*
X-06797649Y008205360D01*
G01*
X-06758375Y008131883D01*
G01*
X-06705520Y008067480D01*
G01*
X-06641117Y008014625D01*
G01*
X-06567640Y007975351D01*
G01*
X-06487913Y007951166D01*
G01*
X-06405000Y007943000D01*
G37*
D26*
G36*
X-05462813Y004320579D02*
G01*
X-05379900Y004328746D01*
G01*
X-05300173Y004352931D01*
G01*
X-05226696Y004392205D01*
G01*
X-05162293Y004445059D01*
G01*
X-05109438Y004509462D01*
G01*
X-05070164Y004582939D01*
G01*
X-05045979Y004662666D01*
G01*
X-05037813Y004745579D01*
G01*
X-05045979Y004828493D01*
G01*
X-05070164Y004908220D01*
G01*
X-05109438Y004981697D01*
G01*
X-05162293Y005046100D01*
G01*
X-05226696Y005098954D01*
G01*
X-05300173Y005138228D01*
G01*
X-05379900Y005162413D01*
G01*
X-05462813Y005170579D01*
G01*
X-05545726Y005162413D01*
G01*
X-05625453Y005138228D01*
G01*
X-05698930Y005098954D01*
G01*
X-05763333Y005046100D01*
G01*
X-05816188Y004981697D01*
G01*
X-05855462Y004908220D01*
G01*
X-05879647Y004828493D01*
G01*
X-05887813Y004745579D01*
G01*
X-05879647Y004662666D01*
G01*
X-05855462Y004582939D01*
G01*
X-05816188Y004509462D01*
G01*
X-05763333Y004445059D01*
G01*
X-05698930Y004392205D01*
G01*
X-05625453Y004352931D01*
G01*
X-05545726Y004328746D01*
G01*
X-05462813Y004320579D01*
G37*
D26*
G36*
X003936000Y001198000D02*
G01*
X004018913Y001206166D01*
G01*
X004098640Y001230351D01*
G01*
X004172117Y001269625D01*
G01*
X004236520Y001322480D01*
G01*
X004289375Y001386883D01*
G01*
X004328649Y001460360D01*
G01*
X004352834Y001540087D01*
G01*
X004361000Y001623000D01*
G01*
X004352834Y001705913D01*
G01*
X004328649Y001785640D01*
G01*
X004289375Y001859117D01*
G01*
X004236520Y001923520D01*
G01*
X004172117Y001976375D01*
G01*
X004098640Y002015649D01*
G01*
X004018913Y002039834D01*
G01*
X003936000Y002048000D01*
G01*
X003853087Y002039834D01*
G01*
X003773360Y002015649D01*
G01*
X003699883Y001976375D01*
G01*
X003635480Y001923520D01*
G01*
X003582625Y001859117D01*
G01*
X003543351Y001785640D01*
G01*
X003519166Y001705913D01*
G01*
X003511000Y001623000D01*
G01*
X003519166Y001540087D01*
G01*
X003543351Y001460360D01*
G01*
X003582625Y001386883D01*
G01*
X003635480Y001322480D01*
G01*
X003699883Y001269625D01*
G01*
X003773360Y001230351D01*
G01*
X003853087Y001206166D01*
G01*
X003936000Y001198000D01*
G37*
D26*
G36*
X006807000Y-01062000D02*
G01*
X006889913Y-01053834D01*
G01*
X006969640Y-01029649D01*
G01*
X007043117Y-00990375D01*
G01*
X007107520Y-00937520D01*
G01*
X007160375Y-00873117D01*
G01*
X007199649Y-00799640D01*
G01*
X007223834Y-00719913D01*
G01*
X007232000Y-00637000D01*
G01*
X007223834Y-00554087D01*
G01*
X007199649Y-00474360D01*
G01*
X007160375Y-00400883D01*
G01*
X007107520Y-00336480D01*
G01*
X007043117Y-00283625D01*
G01*
X006969640Y-00244351D01*
G01*
X006889913Y-00220166D01*
G01*
X006807000Y-00212000D01*
G01*
X006724087Y-00220166D01*
G01*
X006644360Y-00244351D01*
G01*
X006570883Y-00283625D01*
G01*
X006506480Y-00336480D01*
G01*
X006453625Y-00400883D01*
G01*
X006414351Y-00474360D01*
G01*
X006390166Y-00554087D01*
G01*
X006382000Y-00637000D01*
G01*
X006390166Y-00719913D01*
G01*
X006414351Y-00799640D01*
G01*
X006453625Y-00873117D01*
G01*
X006506480Y-00937520D01*
G01*
X006570883Y-00990375D01*
G01*
X006644360Y-01029649D01*
G01*
X006724087Y-01053834D01*
G01*
X006807000Y-01062000D01*
G37*
D26*
G36*
X-03025000Y-02720231D02*
G01*
X-02942087Y-02712065D01*
G01*
X-02862360Y-02687880D01*
G01*
X-02788883Y-02648606D01*
G01*
X-02724480Y-02595752D01*
G01*
X-02671625Y-02531349D01*
G01*
X-02632351Y-02457872D01*
G01*
X-02608166Y-02378145D01*
G01*
X-02600000Y-02295231D01*
G01*
X-02608166Y-02212318D01*
G01*
X-02632351Y-02132591D01*
G01*
X-02671625Y-02059114D01*
G01*
X-02724480Y-01994711D01*
G01*
X-02788883Y-01941857D01*
G01*
X-02862360Y-01902583D01*
G01*
X-02942087Y-01878398D01*
G01*
X-03025000Y-01870231D01*
G01*
X-03107913Y-01878398D01*
G01*
X-03187640Y-01902583D01*
G01*
X-03261117Y-01941857D01*
G01*
X-03325520Y-01994711D01*
G01*
X-03378375Y-02059114D01*
G01*
X-03417649Y-02132591D01*
G01*
X-03441834Y-02212318D01*
G01*
X-03450000Y-02295231D01*
G01*
X-03441834Y-02378145D01*
G01*
X-03417649Y-02457872D01*
G01*
X-03378375Y-02531349D01*
G01*
X-03325520Y-02595752D01*
G01*
X-03261117Y-02648606D01*
G01*
X-03187640Y-02687880D01*
G01*
X-03107913Y-02712065D01*
G01*
X-03025000Y-02720231D01*
G37*
D26*
G36*
X013499995Y-25299998D02*
G01*
X013753612Y-25275019D01*
G01*
X013997483Y-25201041D01*
G01*
X014222235Y-25080909D01*
G01*
X014419232Y-24919237D01*
G01*
X014580904Y-24722240D01*
G01*
X014701036Y-24497488D01*
G01*
X014775014Y-24253617D01*
G01*
X014799993Y-24000000D01*
G01*
X014775014Y-23746383D01*
G01*
X014701036Y-23502512D01*
G01*
X014580904Y-23277760D01*
G01*
X014419232Y-23080763D01*
G01*
X014222235Y-22919091D01*
G01*
X013997483Y-22798959D01*
G01*
X013792368Y-22736738D01*
G01*
X013578487Y-22522856D01*
G01*
X012879161Y-21823530D01*
G01*
X012179835Y-21124203D01*
G01*
X011480508Y-20424877D01*
G01*
X011103365Y-20047733D01*
G01*
X011103365Y-18503365D01*
G01*
X011082229Y-18288765D01*
G01*
X011019632Y-18082413D01*
G01*
X010917981Y-17892238D01*
G01*
X010781182Y-17725547D01*
G01*
X005277817Y-12222183D01*
G01*
X001694000Y-08638366D01*
G01*
X001694000Y-06059897D01*
G01*
X001793952Y-06181689D01*
G01*
X001832032Y-06212940D01*
G01*
X001829624Y-06215604D01*
G01*
X002525434Y-06844475D01*
G01*
X002783645Y-07077845D01*
G01*
X002773742Y-07096373D01*
G01*
X002749557Y-07176100D01*
G01*
X002741391Y-07259013D01*
G01*
X002749557Y-07341926D01*
G01*
X002773742Y-07421653D01*
G01*
X002813016Y-07495130D01*
G01*
X002865870Y-07559533D01*
G01*
X002915584Y-07600333D01*
G01*
X002904130Y-07716630D01*
G01*
X002921663Y-07894650D01*
G01*
X002929191Y-07919465D01*
G01*
X002929553Y-07923143D01*
G01*
X002980057Y-08089632D01*
G01*
X003062071Y-08243069D01*
G01*
X003172443Y-08377557D01*
G01*
X003306931Y-08487929D01*
G01*
X003460368Y-08569943D01*
G01*
X003626857Y-08620447D01*
G01*
X003800000Y-08637500D01*
G01*
X003973143Y-08620447D01*
G01*
X004139632Y-08569943D01*
G01*
X004149696Y-08564563D01*
G01*
X004165828Y-08559670D01*
G01*
X004323588Y-08475346D01*
G01*
X004461865Y-08361865D01*
G01*
X004575346Y-08223588D01*
G01*
X004577544Y-08219477D01*
G01*
X004577915Y-08219722D01*
G01*
X004702372Y-08031392D01*
G01*
X004814429Y-07939429D01*
G01*
X004935683Y-07791681D01*
G01*
X005025783Y-07623116D01*
G01*
X005081266Y-07440213D01*
G01*
X005100000Y-07250000D01*
G01*
X005081266Y-07059787D01*
G01*
X005025783Y-06876884D01*
G01*
X004993189Y-06815906D01*
G01*
X004997067Y-06813967D01*
G01*
X004747067Y-06313967D01*
G01*
X004743189Y-06315906D01*
G01*
X004685683Y-06208319D01*
G01*
X004564429Y-06060571D01*
G01*
X004526348Y-06029319D01*
G01*
X004528756Y-06026655D01*
G01*
X003832947Y-05397785D01*
G01*
X003137137Y-04768915D01*
G01*
X003134730Y-04771579D01*
G01*
X003025062Y-04681577D01*
G01*
X002856497Y-04591477D01*
G01*
X002843107Y-04587415D01*
G01*
X002410456Y-04196387D01*
G01*
X001733584Y-03543321D01*
G01*
X001732570Y-03544371D01*
G01*
X001606958Y-03441284D01*
G01*
X001449199Y-03356960D01*
G01*
X001278020Y-03305033D01*
G01*
X001100000Y-03287500D01*
G01*
X000921980Y-03305033D01*
G01*
X000750801Y-03356960D01*
G01*
X000593042Y-03441284D01*
G01*
X000454765Y-03554765D01*
G01*
X000341284Y-03693042D01*
G01*
X000256960Y-03850801D01*
G01*
X000205033Y-04021980D01*
G01*
X000188378Y-04191083D01*
G01*
X000173048Y-04195733D01*
G01*
X-00017127Y-04297383D01*
G01*
X-00183817Y-04434183D01*
G01*
X-00320617Y-04600873D01*
G01*
X-00422267Y-04791048D01*
G01*
X-00484864Y-04997401D01*
G01*
X-00506000Y-05212000D01*
G01*
X-00506000Y-09094000D01*
G01*
X-00484864Y-09308599D01*
G01*
X-00422267Y-09514952D01*
G01*
X-00320617Y-09705127D01*
G01*
X-00183817Y-09871817D01*
G01*
X003401299Y-13456933D01*
G01*
X003375403Y-13488487D01*
G01*
X003336129Y-13561964D01*
G01*
X003311944Y-13641691D01*
G01*
X003303778Y-13724604D01*
G01*
X003311944Y-13807517D01*
G01*
X003336129Y-13887244D01*
G01*
X003375403Y-13960721D01*
G01*
X003428257Y-14025124D01*
G01*
X003492660Y-14077979D01*
G01*
X003566137Y-14117253D01*
G01*
X003645864Y-14141438D01*
G01*
X003728778Y-14149604D01*
G01*
X003811691Y-14141438D01*
G01*
X003891418Y-14117253D01*
G01*
X003964895Y-14077979D01*
G01*
X003996449Y-14052083D01*
G01*
X008903365Y-18959000D01*
G01*
X008903365Y-20503368D01*
G01*
X008924501Y-20717967D01*
G01*
X008987097Y-20924319D01*
G01*
X009088748Y-21114495D01*
G01*
X009225547Y-21281185D01*
G01*
X009924868Y-21980506D01*
G01*
X009924873Y-21980512D01*
G01*
X009924879Y-21980517D01*
G01*
X010624199Y-22679838D01*
G01*
X011323520Y-23379159D01*
G01*
X011323525Y-23379165D01*
G01*
X011323531Y-23379170D01*
G01*
X012022851Y-24078491D01*
G01*
X012236732Y-24292372D01*
G01*
X012298954Y-24497488D01*
G01*
X012419086Y-24722240D01*
G01*
X012580758Y-24919237D01*
G01*
X012777755Y-25080909D01*
G01*
X013002507Y-25201041D01*
G01*
X013246378Y-25275019D01*
G01*
X013499995Y-25299998D01*
G37*
D26*
G36*
X-05499995Y-25299998D02*
G01*
X-05246378Y-25275019D01*
G01*
X-05002507Y-25201041D01*
G01*
X-04777755Y-25080909D01*
G01*
X-04580758Y-24919237D01*
G01*
X-04419086Y-24722240D01*
G01*
X-04298954Y-24497488D01*
G01*
X-04236732Y-24292371D01*
G01*
X-02644024Y-22699664D01*
G01*
X-02644006Y-22699642D01*
G01*
X-01951306Y-22006943D01*
G01*
X-01814507Y-21840252D01*
G01*
X-01712856Y-21650077D01*
G01*
X-01650260Y-21443724D01*
G01*
X-01629124Y-21229125D01*
G01*
X-01629124Y-12249395D01*
G01*
X-01629124Y-11251647D01*
G01*
X-01629124Y-10253900D01*
G01*
X-01629124Y-09256152D01*
G01*
X-01629124Y-08258404D01*
G01*
X-01629124Y-07260657D01*
G01*
X-01650260Y-07046057D01*
G01*
X-01712856Y-06839705D01*
G01*
X-01814507Y-06649530D01*
G01*
X-01951306Y-06482839D01*
G01*
X-02117997Y-06346040D01*
G01*
X-02308172Y-06244389D01*
G01*
X-02514524Y-06181793D01*
G01*
X-02729124Y-06160657D01*
G01*
X-02943723Y-06181793D01*
G01*
X-03150076Y-06244389D01*
G01*
X-03340251Y-06346040D01*
G01*
X-03506941Y-06482839D01*
G01*
X-03643740Y-06649530D01*
G01*
X-03745391Y-06839705D01*
G01*
X-03807988Y-07046057D01*
G01*
X-03829124Y-07260657D01*
G01*
X-03829124Y-08258404D01*
G01*
X-03829124Y-09256152D01*
G01*
X-03829124Y-10253900D01*
G01*
X-03829124Y-11251647D01*
G01*
X-03829124Y-12249395D01*
G01*
X-03829124Y-20773491D01*
G01*
X-04199659Y-21144025D01*
G01*
X-04199677Y-21144047D01*
G01*
X-05792366Y-22736737D01*
G01*
X-05997483Y-22798959D01*
G01*
X-06222235Y-22919091D01*
G01*
X-06419232Y-23080763D01*
G01*
X-06580904Y-23277760D01*
G01*
X-06701036Y-23502512D01*
G01*
X-06775014Y-23746383D01*
G01*
X-06799993Y-24000000D01*
G01*
X-06775014Y-24253617D01*
G01*
X-06701036Y-24497488D01*
G01*
X-06580904Y-24722240D01*
G01*
X-06419232Y-24919237D01*
G01*
X-06222235Y-25080909D01*
G01*
X-05997483Y-25201041D01*
G01*
X-05753612Y-25275019D01*
G01*
X-05499995Y-25299998D01*
G37*
D26*
G36*
X026851659Y-09667879D02*
G01*
X026993100Y-09653948D01*
G01*
X027129105Y-09612692D01*
G01*
X027254448Y-09545694D01*
G01*
X027364312Y-09455531D01*
G01*
X027454475Y-09345667D01*
G01*
X027521472Y-09220324D01*
G01*
X027562728Y-09084319D01*
G01*
X027576659Y-08942879D01*
G01*
X027576659Y-07470659D01*
G01*
X027562728Y-07329219D01*
G01*
X027521472Y-07193214D01*
G01*
X027454475Y-07067871D01*
G01*
X027364312Y-06958007D01*
G01*
X026854999Y-06448694D01*
G01*
X026840652Y-06434348D01*
G01*
X026730788Y-06344185D01*
G01*
X026605445Y-06277187D01*
G01*
X026469440Y-06235931D01*
G01*
X026328000Y-06222000D01*
G01*
X026186560Y-06235931D01*
G01*
X026050555Y-06277187D01*
G01*
X025925212Y-06344185D01*
G01*
X025815348Y-06434348D01*
G01*
X025725185Y-06544212D01*
G01*
X025658187Y-06669555D01*
G01*
X025616931Y-06805560D01*
G01*
X025603000Y-06947000D01*
G01*
X025616931Y-07088440D01*
G01*
X025658187Y-07224445D01*
G01*
X025725185Y-07349788D01*
G01*
X025815348Y-07459652D01*
G01*
X025829694Y-07473999D01*
G01*
X026126659Y-07770964D01*
G01*
X026126659Y-08942879D01*
G01*
X026140590Y-09084319D01*
G01*
X026181846Y-09220324D01*
G01*
X026248844Y-09345667D01*
G01*
X026339007Y-09455531D01*
G01*
X026448871Y-09545694D01*
G01*
X026574214Y-09612692D01*
G01*
X026710219Y-09653948D01*
G01*
X026851659Y-09667879D01*
G37*
D26*
G36*
X028839314Y-10946497D02*
G01*
X028922228Y-10938331D01*
G01*
X029001955Y-10914146D01*
G01*
X029075431Y-10874872D01*
G01*
X029139834Y-10822018D01*
G01*
X029192689Y-10757615D01*
G01*
X029231963Y-10684138D01*
G01*
X029256148Y-10604411D01*
G01*
X029264314Y-10521497D01*
G01*
X029256148Y-10438584D01*
G01*
X029231963Y-10358857D01*
G01*
X029192689Y-10285380D01*
G01*
X029139834Y-10220977D01*
G01*
X029075431Y-10168123D01*
G01*
X029001955Y-10128849D01*
G01*
X028922228Y-10104664D01*
G01*
X028839314Y-10096497D01*
G01*
X028756401Y-10104664D01*
G01*
X028676674Y-10128849D01*
G01*
X028603197Y-10168123D01*
G01*
X028538794Y-10220977D01*
G01*
X028485940Y-10285380D01*
G01*
X028446665Y-10358857D01*
G01*
X028422480Y-10438584D01*
G01*
X028414314Y-10521497D01*
G01*
X028422480Y-10604411D01*
G01*
X028446665Y-10684138D01*
G01*
X028485940Y-10757615D01*
G01*
X028538794Y-10822018D01*
G01*
X028603197Y-10874872D01*
G01*
X028676674Y-10914146D01*
G01*
X028756401Y-10938331D01*
G01*
X028839314Y-10946497D01*
G37*
D26*
G36*
X015400707Y-12441563D02*
G01*
X015483620Y-12433397D01*
G01*
X015563347Y-12409212D01*
G01*
X015636824Y-12369938D01*
G01*
X015701227Y-12317084D01*
G01*
X015754082Y-12252681D01*
G01*
X015793356Y-12179204D01*
G01*
X015817541Y-12099477D01*
G01*
X015825707Y-12016563D01*
G01*
X015817541Y-11933650D01*
G01*
X015793356Y-11853923D01*
G01*
X015754082Y-11780446D01*
G01*
X015701227Y-11716043D01*
G01*
X015636824Y-11663189D01*
G01*
X015563347Y-11623914D01*
G01*
X015483620Y-11599730D01*
G01*
X015400707Y-11591563D01*
G01*
X015317794Y-11599730D01*
G01*
X015238067Y-11623914D01*
G01*
X015164590Y-11663189D01*
G01*
X015100187Y-11716043D01*
G01*
X015047332Y-11780446D01*
G01*
X015008058Y-11853923D01*
G01*
X014983873Y-11933650D01*
G01*
X014975707Y-12016563D01*
G01*
X014983873Y-12099477D01*
G01*
X015008058Y-12179204D01*
G01*
X015047332Y-12252681D01*
G01*
X015100187Y-12317084D01*
G01*
X015164590Y-12369938D01*
G01*
X015238067Y-12409212D01*
G01*
X015317794Y-12433397D01*
G01*
X015400707Y-12441563D01*
G37*
D26*
G36*
X017345000Y-13143000D02*
G01*
X017427913Y-13134834D01*
G01*
X017507640Y-13110649D01*
G01*
X017581117Y-13071375D01*
G01*
X017645520Y-13018520D01*
G01*
X017698375Y-12954117D01*
G01*
X017737649Y-12880640D01*
G01*
X017761834Y-12800913D01*
G01*
X017770000Y-12718000D01*
G01*
X017761834Y-12635087D01*
G01*
X017737649Y-12555360D01*
G01*
X017698375Y-12481883D01*
G01*
X017645520Y-12417480D01*
G01*
X017581117Y-12364625D01*
G01*
X017507640Y-12325351D01*
G01*
X017427913Y-12301166D01*
G01*
X017345000Y-12293000D01*
G01*
X017262087Y-12301166D01*
G01*
X017182360Y-12325351D01*
G01*
X017108883Y-12364625D01*
G01*
X017044480Y-12417480D01*
G01*
X016991625Y-12481883D01*
G01*
X016952351Y-12555360D01*
G01*
X016928166Y-12635087D01*
G01*
X016920000Y-12718000D01*
G01*
X016928166Y-12800913D01*
G01*
X016952351Y-12880640D01*
G01*
X016991625Y-12954117D01*
G01*
X017044480Y-13018520D01*
G01*
X017108883Y-13071375D01*
G01*
X017182360Y-13110649D01*
G01*
X017262087Y-13134834D01*
G01*
X017345000Y-13143000D01*
G37*
D26*
G36*
X029090179Y-17507886D02*
G01*
X029231620Y-17493956D01*
G01*
X029367625Y-17452699D01*
G01*
X029492968Y-17385702D01*
G01*
X029504813Y-17375981D01*
G01*
X029505581Y-17377080D01*
G01*
X029599737Y-17311256D01*
G01*
X029598968Y-17310157D01*
G01*
X029696988Y-17229714D01*
G01*
X029787151Y-17119850D01*
G01*
X029854148Y-16994507D01*
G01*
X029895404Y-16858502D01*
G01*
X029897148Y-16840796D01*
G01*
X029898702Y-16835673D01*
G01*
X029912632Y-16694233D01*
G01*
X029898702Y-16552792D01*
G01*
X029857445Y-16416787D01*
G01*
X029790448Y-16291444D01*
G01*
X029763159Y-16258193D01*
G01*
X029765507Y-16256414D01*
G01*
X029208469Y-15521181D01*
G01*
X029206121Y-15522960D01*
G01*
X029143246Y-15446348D01*
G01*
X029033382Y-15356185D01*
G01*
X028908040Y-15289187D01*
G01*
X028772035Y-15247931D01*
G01*
X028630594Y-15234000D01*
G01*
X028626555Y-15234398D01*
G01*
X028626553Y-15234011D01*
G01*
X027768546Y-15238793D01*
G01*
X027768548Y-15239180D01*
G01*
X027631146Y-15252713D01*
G01*
X027495141Y-15293969D01*
G01*
X027369798Y-15360967D01*
G01*
X027259934Y-15451130D01*
G01*
X027169771Y-15560994D01*
G01*
X027102774Y-15686337D01*
G01*
X027061517Y-15822342D01*
G01*
X027047586Y-15963782D01*
G01*
X027061517Y-16105223D01*
G01*
X027102774Y-16241228D01*
G01*
X027169771Y-16366570D01*
G01*
X027259934Y-16476434D01*
G01*
X027369798Y-16566598D01*
G01*
X027495141Y-16633595D01*
G01*
X027631146Y-16674851D01*
G01*
X027772586Y-16688782D01*
G01*
X027776625Y-16688384D01*
G01*
X027776627Y-16688771D01*
G01*
X027930294Y-16687915D01*
G01*
X027941030Y-16723305D01*
G01*
X027980304Y-16796782D01*
G01*
X028033158Y-16861185D01*
G01*
X028097561Y-16914039D01*
G01*
X028171038Y-16953313D01*
G01*
X028250765Y-16977498D01*
G01*
X028333678Y-16985664D01*
G01*
X028395859Y-16979540D01*
G01*
X028420367Y-17060332D01*
G01*
X028487364Y-17185675D01*
G01*
X028577527Y-17295539D01*
G01*
X028687391Y-17385702D01*
G01*
X028812734Y-17452699D01*
G01*
X028948739Y-17493956D01*
G01*
X029090179Y-17507886D01*
G37*
D26*
G36*
X004400000Y-16825000D02*
G01*
X004482913Y-16816834D01*
G01*
X004562640Y-16792649D01*
G01*
X004636117Y-16753375D01*
G01*
X004700520Y-16700520D01*
G01*
X004753375Y-16636117D01*
G01*
X004792649Y-16562640D01*
G01*
X004816834Y-16482913D01*
G01*
X004825000Y-16400000D01*
G01*
X004816834Y-16317087D01*
G01*
X004792649Y-16237360D01*
G01*
X004753375Y-16163883D01*
G01*
X004700520Y-16099480D01*
G01*
X004636117Y-16046625D01*
G01*
X004562640Y-16007351D01*
G01*
X004482913Y-15983166D01*
G01*
X004400000Y-15975000D01*
G01*
X004317087Y-15983166D01*
G01*
X004237360Y-16007351D01*
G01*
X004163883Y-16046625D01*
G01*
X004099480Y-16099480D01*
G01*
X004046625Y-16163883D01*
G01*
X004007351Y-16237360D01*
G01*
X003983166Y-16317087D01*
G01*
X003975000Y-16400000D01*
G01*
X003983166Y-16482913D01*
G01*
X004007351Y-16562640D01*
G01*
X004046625Y-16636117D01*
G01*
X004099480Y-16700520D01*
G01*
X004163883Y-16753375D01*
G01*
X004237360Y-16792649D01*
G01*
X004317087Y-16816834D01*
G01*
X004400000Y-16825000D01*
G37*
D26*
G36*
X026006299Y-20999998D02*
G01*
X026201389Y-20980784D01*
G01*
X026388982Y-20923878D01*
G01*
X026561869Y-20831468D01*
G01*
X026713405Y-20707106D01*
G01*
X026837767Y-20555569D01*
G01*
X026930177Y-20382683D01*
G01*
X026987083Y-20195090D01*
G01*
X027006298Y-20000000D01*
G01*
X026987083Y-19804910D01*
G01*
X026930177Y-19617317D01*
G01*
X026837767Y-19444431D01*
G01*
X026713405Y-19292894D01*
G01*
X026561869Y-19168532D01*
G01*
X026388982Y-19076122D01*
G01*
X026201389Y-19019216D01*
G01*
X026006299Y-19000002D01*
G01*
X025811209Y-19019216D01*
G01*
X025623616Y-19076122D01*
G01*
X025450730Y-19168532D01*
G01*
X025299194Y-19292894D01*
G01*
X025174831Y-19444431D01*
G01*
X025082421Y-19617317D01*
G01*
X025025515Y-19804910D01*
G01*
X025006301Y-20000000D01*
G01*
X025025515Y-20195090D01*
G01*
X025082421Y-20382683D01*
G01*
X025174831Y-20555569D01*
G01*
X025299194Y-20707106D01*
G01*
X025450730Y-20831468D01*
G01*
X025623616Y-20923878D01*
G01*
X025811209Y-20980784D01*
G01*
X026006299Y-20999998D01*
G37*
D26*
G36*
X027558899Y-20999998D02*
G01*
X029533699Y-20999998D01*
G01*
X029533699Y-19000002D01*
G01*
X027558899Y-19000002D01*
G01*
X027558899Y-20999998D01*
G37*
D26*
G36*
X-32500000Y-28500000D02*
G01*
X-31817184Y-28432748D01*
G01*
X-31160608Y-28233578D01*
G01*
X-30555504Y-27910144D01*
G01*
X-30025126Y-27474874D01*
G01*
X-29589856Y-26944496D01*
G01*
X-29266422Y-26339392D01*
G01*
X-29067252Y-25682816D01*
G01*
X-29000000Y-25000000D01*
G01*
X-29067252Y-24317184D01*
G01*
X-29266422Y-23660608D01*
G01*
X-29589856Y-23055504D01*
G01*
X-30025126Y-22525126D01*
G01*
X-30555504Y-22089856D01*
G01*
X-31160608Y-21766422D01*
G01*
X-31817184Y-21567252D01*
G01*
X-32500000Y-21500000D01*
G01*
X-33182816Y-21567252D01*
G01*
X-33839392Y-21766422D01*
G01*
X-34444496Y-22089856D01*
G01*
X-34974874Y-22525126D01*
G01*
X-35410144Y-23055504D01*
G01*
X-35733578Y-23660608D01*
G01*
X-35932748Y-24317184D01*
G01*
X-36000000Y-25000000D01*
G01*
X-35932748Y-25682816D01*
G01*
X-35733578Y-26339392D01*
G01*
X-35410144Y-26944496D01*
G01*
X-34974874Y-27474874D01*
G01*
X-34444496Y-27910144D01*
G01*
X-33839392Y-28233578D01*
G01*
X-33182816Y-28432748D01*
G01*
X-32500000Y-28500000D01*
G37*
D26*
G36*
X032500000Y-28500000D02*
G01*
X033182816Y-28432748D01*
G01*
X033839392Y-28233578D01*
G01*
X034444496Y-27910144D01*
G01*
X034974874Y-27474874D01*
G01*
X035410144Y-26944496D01*
G01*
X035733578Y-26339392D01*
G01*
X035932748Y-25682816D01*
G01*
X036000000Y-25000000D01*
G01*
X035932748Y-24317184D01*
G01*
X035733578Y-23660608D01*
G01*
X035410144Y-23055504D01*
G01*
X034974874Y-22525126D01*
G01*
X034444496Y-22089856D01*
G01*
X033839392Y-21766422D01*
G01*
X033182816Y-21567252D01*
G01*
X032500000Y-21500000D01*
G01*
X031817184Y-21567252D01*
G01*
X031160608Y-21766422D01*
G01*
X030555504Y-22089856D01*
G01*
X030025126Y-22525126D01*
G01*
X029589856Y-23055504D01*
G01*
X029266422Y-23660608D01*
G01*
X029067252Y-24317184D01*
G01*
X029000000Y-25000000D01*
G01*
X029067252Y-25682816D01*
G01*
X029266422Y-26339392D01*
G01*
X029589856Y-26944496D01*
G01*
X030025126Y-27474874D01*
G01*
X030555504Y-27910144D01*
G01*
X031160608Y-28233578D01*
G01*
X031817184Y-28432748D01*
G01*
X032500000Y-28500000D01*
G37*
D26*
G36*
X-00500005Y-25299998D02*
G01*
X-00246388Y-25275019D01*
G01*
X-00002517Y-25201041D01*
G01*
X000222235Y-25080909D01*
G01*
X000419232Y-24919237D01*
G01*
X000580904Y-24722240D01*
G01*
X000701036Y-24497488D01*
G01*
X000775014Y-24253617D01*
G01*
X000799993Y-24000000D01*
G01*
X000775014Y-23746383D01*
G01*
X000701036Y-23502512D01*
G01*
X000580904Y-23277760D01*
G01*
X000419232Y-23080763D01*
G01*
X000222235Y-22919091D01*
G01*
X-00002517Y-22798959D01*
G01*
X-00246388Y-22724981D01*
G01*
X-00500005Y-22700002D01*
G01*
X-00753622Y-22724981D01*
G01*
X-00997493Y-22798959D01*
G01*
X-01222245Y-22919091D01*
G01*
X-01419242Y-23080763D01*
G01*
X-01580914Y-23277760D01*
G01*
X-01701046Y-23502512D01*
G01*
X-01775024Y-23746383D01*
G01*
X-01800003Y-24000000D01*
G01*
X-01775024Y-24253617D01*
G01*
X-01701046Y-24497488D01*
G01*
X-01580914Y-24722240D01*
G01*
X-01419242Y-24919237D01*
G01*
X-01222245Y-25080909D01*
G01*
X-00997493Y-25201041D01*
G01*
X-00753622Y-25275019D01*
G01*
X-00500005Y-25299998D01*
G37*
D26*
G36*
X008500005Y-25299998D02*
G01*
X008753622Y-25275019D01*
G01*
X008997493Y-25201041D01*
G01*
X009222245Y-25080909D01*
G01*
X009419242Y-24919237D01*
G01*
X009580914Y-24722240D01*
G01*
X009701046Y-24497488D01*
G01*
X009775024Y-24253617D01*
G01*
X009800003Y-24000000D01*
G01*
X009775024Y-23746383D01*
G01*
X009701046Y-23502512D01*
G01*
X009580914Y-23277760D01*
G01*
X009419242Y-23080763D01*
G01*
X009222245Y-22919091D01*
G01*
X008997493Y-22798959D01*
G01*
X008753622Y-22724981D01*
G01*
X008500005Y-22700002D01*
G01*
X008246388Y-22724981D01*
G01*
X008002517Y-22798959D01*
G01*
X007777765Y-22919091D01*
G01*
X007580768Y-23080763D01*
G01*
X007419096Y-23277760D01*
G01*
X007298964Y-23502512D01*
G01*
X007224986Y-23746383D01*
G01*
X007200007Y-24000000D01*
G01*
X007224986Y-24253617D01*
G01*
X007298964Y-24497488D01*
G01*
X007419096Y-24722240D01*
G01*
X007580768Y-24919237D01*
G01*
X007777765Y-25080909D01*
G01*
X008002517Y-25201041D01*
G01*
X008246388Y-25275019D01*
G01*
X008500005Y-25299998D01*
G37*
%LPD*%
D19*
X-28000000Y012499995D03*
D19*
X-28000000Y007500005D03*
D21*
X000500126Y000499872D03*
D21*
X-00499872Y000499872D03*
D21*
X-00499872Y-00500126D03*
D21*
X000500126Y-00500126D03*
D19*
X-05499995Y-24000000D03*
D19*
X-00500005Y-24000000D03*
D19*
X008500005Y-24000000D03*
D19*
X013499995Y-24000000D03*
D22*
X026533701Y016000000D03*
D22*
X023993701Y016000000D03*
D23*
X021453701Y016000000D03*
D22*
X026533701Y009000000D03*
D22*
X023993701Y009000000D03*
D23*
X021453701Y009000000D03*
D22*
X026533701Y002000000D03*
D22*
X023993701Y002000000D03*
D23*
X021453701Y002000000D03*
D22*
X023466299Y-20000000D03*
D22*
X026006299Y-20000000D03*
D23*
X028546299Y-20000000D03*
D24*
X-00700000Y005900000D03*
D24*
X009000000Y012700000D03*
D24*
X-12400000Y-08400000D03*
D24*
X-12400000Y-09600000D03*
D24*
X012400000Y-08400000D03*
D24*
X012400000Y-09600000D03*
D10*
X021453701Y016000000D02*
X008394341Y016022819D01*
D10*
X008394341Y016022819D02*
X006138285Y013743956D01*
D10*
X006138285Y013743956D02*
X006103956Y013743956D01*
D10*
X006103956Y013743956D02*
X006041000Y013681000D01*
D10*
X021453701Y016000000D02*
X022646101Y015030312D01*
D10*
X022646101Y015030312D02*
X022646101Y007151758D01*
D10*
X022646101Y007151758D02*
X022088086Y006938213D01*
D10*
X022088086Y006938213D02*
X022191601Y003490711D01*
D10*
X022191601Y003490711D02*
X022646101Y003254244D01*
D10*
X022646101Y003254244D02*
X022646101Y-03660348D01*
D10*
X022646101Y-03660348D02*
X022646101Y-03660456D01*
D10*
X022646101Y-03660456D02*
X022093687Y-04013079D01*
D10*
X022093687Y-04013079D02*
X022093687Y-04035313D01*
D10*
X022093687Y-04035313D02*
X022064000Y-04065000D01*
D11*
X-02729124Y-07260657D02*
X-02729124Y-08258404D01*
D11*
X-02729124Y-08258404D02*
X-02729124Y-09256152D01*
D11*
X-02729124Y-09256152D02*
X-02729124Y-10253900D01*
D11*
X-02729124Y-10253900D02*
X-02729124Y-11251647D01*
D11*
X-02729124Y-11251647D02*
X-02729124Y-12249395D01*
D11*
X-02729124Y-12249395D02*
X-02729124Y-21229125D01*
D11*
X-02729124Y-21229125D02*
X-03421842Y-21921843D01*
D11*
X-03421842Y-21921843D02*
X-03421842Y-21921847D01*
D11*
X-03421842Y-21921847D02*
X-05499995Y-24000000D01*
D11*
X000594000Y-05212000D02*
X000594000Y-09094000D01*
D11*
X000594000Y-09094000D02*
X004500000Y-13000000D01*
D11*
X004500000Y-13000000D02*
X010003365Y-18503365D01*
D11*
X010003365Y-18503365D02*
X010003365Y-20503368D01*
D11*
X010003365Y-20503368D02*
X010702691Y-21202694D01*
D11*
X010702691Y-21202694D02*
X011402017Y-21902021D01*
D11*
X011402017Y-21902021D02*
X012101343Y-22601347D01*
D11*
X012101343Y-22601347D02*
X012800669Y-23300674D01*
D11*
X012800669Y-23300674D02*
X013499995Y-24000000D01*
D12*
X001100000Y-04200000D02*
X001787571Y-04863389D01*
D12*
X001787571Y-04863389D02*
X002483381Y-05492259D01*
D13*
X002483381Y-05492259D02*
X003179190Y-06121130D01*
D13*
X003179190Y-06121130D02*
X003875000Y-06750000D01*
D13*
X003875000Y-06750000D02*
X004125000Y-07250000D01*
D12*
X004125000Y-07250000D02*
X003816630Y-07716630D01*
D14*
X003816630Y-07716630D02*
X003800000Y-07750000D01*
D10*
X026328000Y-06947000D02*
X026342347Y-06961347D01*
D10*
X026342347Y-06961347D02*
X026851659Y-07470659D01*
D10*
X026851659Y-07470659D02*
X026851659Y-08942879D01*
D10*
X-03025000Y003215726D02*
X003962098Y003198535D01*
D10*
X003962098Y003198535D02*
X006056575Y005163786D01*
D10*
X006056575Y005163786D02*
X005974771Y007069992D01*
D10*
X005974771Y007069992D02*
X006097877Y007193098D01*
D10*
X006097877Y007193098D02*
X006097877Y007222877D01*
D10*
X006097877Y007222877D02*
X006173000Y007298000D01*
D10*
X003283359Y008833530D02*
X003142396Y009007837D01*
D10*
X003142396Y009007837D02*
X003025087Y009387740D01*
D10*
X003025087Y009387740D02*
X003034748Y010121913D01*
D10*
X003034748Y010121913D02*
X003034969Y010204978D01*
D10*
X003034969Y010204978D02*
X003034969Y011110041D01*
D10*
X003034969Y011110041D02*
X003282912Y011334634D01*
D10*
X003282912Y011334634D02*
X003284969Y011670168D01*
D10*
X003284969Y011670168D02*
X003690033Y011670168D01*
D10*
X003690033Y011670168D02*
X004095096Y011670168D01*
D10*
X004095096Y011670168D02*
X004095096Y012075231D01*
D10*
X004095096Y012075231D02*
X003992505Y011975360D01*
D10*
X001888000Y004410000D02*
X001888000Y012138237D01*
D10*
X001888000Y012138237D02*
X002551654Y012801891D01*
D10*
X002551654Y012801891D02*
X002551654Y012819641D01*
D10*
X002551654Y012819641D02*
X002572938Y012840924D01*
D10*
X004753897Y005104973D02*
X002520832Y007933995D01*
D10*
X002520832Y007933995D02*
X002535114Y012815881D01*
D10*
X002535114Y012815881D02*
X002581490Y012832372D01*
D10*
X002581490Y012832372D02*
X002572938Y012840924D01*
D10*
X-00962396Y004175000D02*
X-00877366Y004576146D01*
D10*
X-00877366Y004576146D02*
X-01872942Y005661048D01*
D10*
X-01872942Y005661048D02*
X-04852358Y002300205D01*
D10*
X-04852358Y002300205D02*
X-04841242Y002474999D01*
D10*
X022812000Y004461000D02*
X022672000Y006210500D01*
D10*
X022672000Y006210500D02*
X022672000Y006330000D01*
D10*
X022672000Y006330000D02*
X022773005Y006488995D01*
D10*
X004815324Y016858324D02*
X004957000Y019248900D01*
D10*
X004957000Y019248900D02*
X004957000Y019400000D01*
D10*
X029184335Y-16717062D02*
X029090179Y-16782886D01*
D10*
X029090179Y-16782886D02*
X029187632Y-16694233D01*
D10*
X029187632Y-16694233D02*
X028630594Y-15959000D01*
D10*
X028630594Y-15959000D02*
X027772586Y-15963782D01*
D25*
X005095000Y005946925D03*
D25*
X005946916Y003974999D03*
D25*
X-08399000Y008399000D03*
D25*
X-06405000Y008368000D03*
D25*
X003680244Y009299640D03*
D25*
X000812515Y011644833D03*
D25*
X006041000Y013681000D03*
D25*
X022064000Y-04065000D03*
D25*
X015400707Y-12016563D03*
D25*
X004400000Y-16400000D03*
D25*
X-02729124Y-07260657D03*
D25*
X000594000Y-05212000D03*
D25*
X001100000Y-04200000D03*
D25*
X003800000Y-07750000D03*
D25*
X-03025000Y-02295231D03*
D25*
X006807000Y-00637000D03*
D25*
X028839314Y-10521497D03*
D25*
X028333678Y-16560664D03*
D25*
X026328000Y-06947000D03*
D25*
X026851659Y-08942879D03*
D25*
X003166391Y-07259013D03*
D25*
X003728778Y-13724604D03*
D25*
X010000000Y015200000D03*
D25*
X009516623Y010612377D03*
D25*
X-03025000Y003215726D03*
D25*
X006173000Y007298000D03*
D25*
X-01903527Y004722074D03*
D25*
X006400000Y011000000D03*
D25*
X009046000Y008985000D03*
D25*
X003216730Y012482508D03*
D25*
X002575644Y004169522D03*
D25*
X003283359Y008833530D03*
D25*
X003992505Y011975360D03*
D25*
X001888000Y004410000D03*
D25*
X002572938Y012840924D03*
D25*
X004753897Y005104973D03*
D25*
X000938595Y004175000D03*
D25*
X003936000Y001623000D03*
D25*
X-00962396Y004175000D03*
D25*
X-04841242Y002474999D03*
D25*
X018671940Y015404860D03*
D25*
X022812000Y004461000D03*
D25*
X022773005Y006488995D03*
D25*
X021200000Y005200000D03*
D25*
X-00044024Y014208833D03*
D25*
X-02428688Y016042997D03*
D25*
X007102499Y011325120D03*
D25*
X002822705Y017576069D03*
D25*
X004815324Y016858324D03*
D25*
X004957000Y019400000D03*
D25*
X-05462813Y004745579D03*
D25*
X017345000Y-12718000D03*
D25*
X029184335Y-16717062D03*
D25*
X027772586Y-15963782D03*
%LPC*%
D15*
X-32500000Y025000000D03*
%LPD*%
%LPC*%
D15*
X032500000Y025000000D03*
%LPD*%
%LPC*%
D15*
X-32500000Y-25000000D03*
%LPD*%
%LPC*%
D15*
X032500000Y-25000000D03*
%LPD*%
M02*