%TF.GenerationSoftware,tscircuit,circuit-json-to-gerber,0.0.104*%
%TF.CreationDate,2026-09-27T21:05:18.522Z*%
%TF.SameCoordinates,Original*%
%TF.FileFunction,Copper,L1,Top*%
%TF.FilePolarity,Positive*%
%FSLAX46Y46*%
%MOMM*%
G04 Gerber Fmt 4.6, Leading zero omitted, Abs format (unit mm)*
G04 Created by tscircuit (builder) date 2026-09-27T21:05:18.522Z*
G01*
%LPD*%
G75*
G04 APERTURE MACROS START*
%AMHORZPILL*
0 Horizontal pill (stadium) shape macro*
0 Parameters:*
0 $1 = Total width*
0 $2 = Total height*
0 $3 = Circle diameter (equal to height)*
0 $4 = Circle center offset
0 21 = Center Line(Exposure, Width, Height, Center X, Center Y, Rotation)*
0 1 = Circle(Exposure, Diameter, Center X, Center Y, Rotation)*
21,1,$1-$3,$2,0.0,0.0,0.0*
1,1,$3,0.0-$4,0.0*
1,1,$3,$4,0.0*%
%AMVERTPILL*
0 Vertical pill (stadium) shape macro*
0 Parameters:*
0 $1 = Total width*
0 $2 = Total height*
0 $3 = Circle diameter (equal to width)*
0 $4 = Circle center offset
0 21 = Center Line(Exposure, Width, Height, Center X, Center Y, Rotation)*
21,1,$1,$2-$3,0.0,0.0,0.0*
1,1,$3,0.0,0.0-$4*
1,1,$3,0.0,$4*%
%AMROUNDRECT*
0 Rectangle with rounded corners*
0 $1 Corner radius*
0 $2 $3 $4 $5 $6 $7 $8 $9 X,Y Position of each corner*
0 Polygon box body*
4,1,4,$2,$3,$4,$5,$6,$7,$8,$9,$2,$3,0*
0 Circles for rounded corners*
1,1,$1+$1,$2,$3*
1,1,$1+$1,$4,$5*
1,1,$1+$1,$6,$7*
1,1,$1+$1,$8,$9*
0 Rectangles between the rounded corners*
20,1,$1+$1,$2,$3,$4,$5,0*
20,1,$1+$1,$4,$5,$6,$7,0*
20,1,$1+$1,$6,$7,$8,$9,0*
20,1,$1+$1,$8,$9,$2,$3,0*%
G04 APERTURE MACROS END*
G04 aperture START LIST*
%ADD10C,0.300000*%
%ADD11C,1.000000*%
%ADD12C,0.989990*%
%ADD13C,0.405003*%
%ADD14C,0.375000*%
%ADD15C,0.750000*%
%ADD16C,0.625000*%
%ADD17C,0.425000*%
%ADD18C,0.799998*%
%ADD19C,0.250000*%
%ADD20C,0.325000*%
%ADD21C,0.550000*%
%ADD22C,0.725000*%
%ADD23C,0.900000*%
%ADD24C,0.275000*%
%ADD25C,0.300000*%
%ADD26C,0.500000*%
%ADD27C,0.925000*%
%ADD28C,0.806475*%
%ADD29C,0.350000*%
%ADD30C,0.525000*%
%ADD31C,0.650000*%
%ADD32C,0.425000*%
%ADD33C,0.675000*%
%ADD34C,0.800000*%
%ADD35C,0.875000*%
%ADD36C,0.412500*%
%ADD37C,0.975000*%
%ADD38C,0.575000*%
%ADD39C,3.200000*%
%ADD40C,0.150000*%
%ADD41C,0.090000*%
%ADD42C,0.072000*%
%ADD43C,2.199996*%
%ADD44C,0.100000*%
%ADD45R,3.150000X1.960000*%
%ADD46R,2.205000X1.372000*%
%ADD47R,0.405003X0.989990*%
%ADD48R,0.283502X0.692993*%
%ADD49R,2.234997X1.724990*%
%ADD50R,1.564498X1.207493*%
%ADD51R,3.259988X1.150010*%
%ADD52R,2.281992X0.805007*%
%ADD53R,2.047494X2.192401*%
%ADD54R,1.433246X1.534681*%
%ADD55R,0.806475X0.864006*%
%ADD56R,0.564533X0.604804*%
%ADD57R,0.799998X0.799998*%
%ADD58R,0.559999X0.559999*%
%ADD59ROUNDRECT,0.050000X-0.175000X0.700000X0.175000X0.700000X0.175000X-0.700000X-0.175000X-0.700000*%
%ADD60R,0.450000X1.500000*%
%ADD61R,5.000000X3.400000*%
%ADD62R,2.310000X2.460000*%
%ADD63C,0.609600*%
%ADD64R,1.282522X3.456000*%
%ADD65R,0.897766X2.419200*%
%ADD66R,1.410005X1.350010*%
%ADD67R,0.987003X0.945007*%
%ADD68R,0.799998X0.899998*%
%ADD69R,0.559999X0.629999*%
%ADD70C,1.599997*%
%ADD71R,1.574800X1.599997*%
%ADD72R,0.729996X0.399999*%
%ADD73R,0.510997X0.279999*%
%ADD74R,0.699999X0.399999*%
%ADD75R,0.489999X0.279999*%
%ADD76C,1.200000*%
%ADD77C,0.840000*%
%ADD78C,0.600000*%
%ADD79C,0.450000*%
%ADD80C,0.001000*%
%TD*%
G04 aperture END LIST*
D80*
G36*
X037000000Y029500000D02*
G01*
X-37000000Y029500000D01*
G01*
X-37000000Y-29500000D01*
G01*
X037000000Y-29500000D01*
G01*
X037000000Y029500000D01*
G37*
%LPC*%
D80*
G36*
X-32500000Y021500000D02*
G01*
X-31817184Y021567252D01*
G01*
X-31160608Y021766422D01*
G01*
X-30555504Y022089856D01*
G01*
X-30025126Y022525126D01*
G01*
X-29589856Y023055504D01*
G01*
X-29266422Y023660608D01*
G01*
X-29067252Y024317184D01*
G01*
X-29000000Y025000000D01*
G01*
X-29067252Y025682816D01*
G01*
X-29266422Y026339392D01*
G01*
X-29589856Y026944496D01*
G01*
X-30025126Y027474874D01*
G01*
X-30555504Y027910144D01*
G01*
X-31160608Y028233578D01*
G01*
X-31817184Y028432748D01*
G01*
X-32500000Y028500000D01*
G01*
X-33182816Y028432748D01*
G01*
X-33839392Y028233578D01*
G01*
X-34444496Y027910144D01*
G01*
X-34974874Y027474874D01*
G01*
X-35410144Y026944496D01*
G01*
X-35733578Y026339392D01*
G01*
X-35932748Y025682816D01*
G01*
X-36000000Y025000000D01*
G01*
X-35932748Y024317184D01*
G01*
X-35733578Y023660608D01*
G01*
X-35410144Y023055504D01*
G01*
X-34974874Y022525126D01*
G01*
X-34444496Y022089856D01*
G01*
X-33839392Y021766422D01*
G01*
X-33182816Y021567252D01*
G01*
X-32500000Y021500000D01*
G37*
D80*
G36*
X032500000Y021500000D02*
G01*
X033182816Y021567252D01*
G01*
X033839392Y021766422D01*
G01*
X034444496Y022089856D01*
G01*
X034974874Y022525126D01*
G01*
X035410144Y023055504D01*
G01*
X035733578Y023660608D01*
G01*
X035932748Y024317184D01*
G01*
X036000000Y025000000D01*
G01*
X035932748Y025682816D01*
G01*
X035733578Y026339392D01*
G01*
X035410144Y026944496D01*
G01*
X034974874Y027474874D01*
G01*
X034444496Y027910144D01*
G01*
X033839392Y028233578D01*
G01*
X033182816Y028432748D01*
G01*
X032500000Y028500000D01*
G01*
X031817184Y028432748D01*
G01*
X031160608Y028233578D01*
G01*
X030555504Y027910144D01*
G01*
X030025126Y027474874D01*
G01*
X029589856Y026944496D01*
G01*
X029266422Y026339392D01*
G01*
X029067252Y025682816D01*
G01*
X029000000Y025000000D01*
G01*
X029067252Y024317184D01*
G01*
X029266422Y023660608D01*
G01*
X029589856Y023055504D01*
G01*
X030025126Y022525126D01*
G01*
X030555504Y022089856D01*
G01*
X031160608Y021766422D01*
G01*
X031817184Y021567252D01*
G01*
X032500000Y021500000D01*
G37*
D80*
G36*
X-29064716Y-13351200D02*
G01*
X-21048960Y-13351200D01*
G01*
X-20834360Y-13330064D01*
G01*
X-20628008Y-13267468D01*
G01*
X-20437832Y-13165817D01*
G01*
X-20271142Y-13029018D01*
G01*
X-20134343Y-12862328D01*
G01*
X-20032692Y-12672152D01*
G01*
X-19970096Y-12465800D01*
G01*
X-19948960Y-12251200D01*
G01*
X-19948960Y-11910238D01*
G01*
X-19568411Y-11469297D01*
G01*
X-19293450Y-11150701D01*
G01*
X-19293448Y-11150700D01*
G01*
X-19297204Y-11147459D01*
G01*
X-19211583Y-11043130D01*
G01*
X-19123059Y-10877513D01*
G01*
X-19109933Y-10852956D01*
G01*
X-19109932Y-10852954D01*
G01*
X-19080466Y-10755819D01*
G01*
X-18993866Y-10655476D01*
G01*
X-18997291Y-10652520D01*
G01*
X-18919202Y-10557369D01*
G01*
X-18849874Y-10427665D01*
G01*
X-18849874Y-10632003D01*
G01*
X-18594818Y-10632003D01*
G01*
X-18524081Y-10669813D01*
G01*
X-18388076Y-10711069D01*
G01*
X-18246636Y-10725000D01*
G01*
X-18105196Y-10711069D01*
G01*
X-17969191Y-10669813D01*
G01*
X-17898454Y-10632003D01*
G01*
X-17643398Y-10632003D01*
G01*
X-17643398Y-10402937D01*
G01*
X-17296162Y-09920128D01*
G01*
X-14201365Y-09920128D01*
G01*
X-13851004Y-10407313D01*
G01*
X-13851004Y-10599872D01*
G01*
X-13657224Y-10599872D01*
G01*
X-13653793Y-10602688D01*
G01*
X-13528450Y-10669686D01*
G01*
X-13392445Y-10710942D01*
G01*
X-13251005Y-10724873D01*
G01*
X-13109564Y-10710942D01*
G01*
X-12973559Y-10669686D01*
G01*
X-12848216Y-10602688D01*
G01*
X-12844785Y-10599872D01*
G01*
X-12651006Y-10599872D01*
G01*
X-12651006Y-10406094D01*
G01*
X-12648189Y-10402661D01*
G01*
X-12581192Y-10277318D01*
G01*
X-12539935Y-10141313D01*
G01*
X-12526005Y-09999873D01*
G01*
X-12539935Y-09858433D01*
G01*
X-12581192Y-09722428D01*
G01*
X-12648189Y-09597085D01*
G01*
X-12651006Y-09593652D01*
G01*
X-12651006Y-09399874D01*
G01*
X-12789485Y-09399874D01*
G01*
X-13241142Y-08771835D01*
G01*
X-13242783Y-08773015D01*
G01*
X-13317088Y-08682475D01*
G01*
X-13426952Y-08592312D01*
G01*
X-13552295Y-08525315D01*
G01*
X-13688300Y-08484058D01*
G01*
X-13829740Y-08470128D01*
G01*
X-14010785Y-08470128D01*
G01*
X-17667773Y-08470128D01*
G01*
X-17809214Y-08484058D01*
G01*
X-17945219Y-08525315D01*
G01*
X-18070562Y-08592312D01*
G01*
X-18180426Y-08682475D01*
G01*
X-18254717Y-08772999D01*
G01*
X-18256360Y-08771818D01*
G01*
X-18685130Y-09367997D01*
G01*
X-18849874Y-09367997D01*
G01*
X-18849874Y-09572335D01*
G01*
X-18900000Y-09478556D01*
G01*
X-18900000Y-07600001D01*
G01*
X-18900000Y-07599999D01*
G01*
X-18900000Y-07000000D01*
G01*
X-18900000Y-01010620D01*
G01*
X-18667197Y-00777817D01*
G01*
X-18664889Y-00775005D01*
G01*
X-17615020Y-00775005D01*
G01*
X-17615020Y-00029707D01*
G01*
X-17256128Y000145183D01*
G01*
X-17129048Y000183733D01*
G01*
X-16938873Y000285383D01*
G01*
X-16772183Y000422183D01*
G01*
X-16722183Y000472183D01*
G01*
X-16699354Y000500000D01*
G01*
X-12855634Y000500000D01*
G01*
X-11577817Y-00777817D01*
G01*
X-11411127Y-00914617D01*
G01*
X-11220952Y-01016267D01*
G01*
X-11014599Y-01078864D01*
G01*
X-10800000Y-01100000D01*
G01*
X-09445014Y-01100000D01*
G01*
X-09230415Y-01078864D01*
G01*
X-09024062Y-01016267D01*
G01*
X-08833887Y-00914617D01*
G01*
X-08667197Y-00777817D01*
G01*
X-08664889Y-00775005D01*
G01*
X-07615020Y-00775005D01*
G01*
X-07615020Y000775005D01*
G01*
X-07669361Y000775005D01*
G01*
X-06338288Y002106078D01*
G01*
X-06185401Y002121136D01*
G01*
X-05979048Y002183733D01*
G01*
X-05788873Y002285383D01*
G01*
X-05622183Y002422183D01*
G01*
X-05565901Y002478465D01*
G01*
X-05566242Y002474999D01*
G01*
X-05563232Y002444441D01*
G01*
X-05565594Y002444341D01*
G01*
X-05524328Y001469342D01*
G01*
X-05521966Y001469442D01*
G01*
X-05511045Y001358560D01*
G01*
X-05469789Y001222555D01*
G01*
X-05402791Y001097212D01*
G01*
X-05399975Y001093781D01*
G01*
X-05399975Y000850001D01*
G01*
X-05114490Y000850001D01*
G01*
X-05077421Y000830187D01*
G01*
X-04941416Y000788931D01*
G01*
X-04799976Y000775000D01*
G01*
X-04658536Y000788931D01*
G01*
X-04522531Y000830187D01*
G01*
X-04485462Y000850001D01*
G01*
X-04199977Y000850001D01*
G01*
X-04199977Y001093781D01*
G01*
X-04197161Y001097212D01*
G01*
X-04130163Y001222555D01*
G01*
X-04088907Y001358560D01*
G01*
X-04074976Y001500000D01*
G01*
X-04077986Y001530558D01*
G01*
X-04075624Y001530658D01*
G01*
X-04116891Y002505657D01*
G01*
X-04119252Y002505557D01*
G01*
X-04130173Y002616440D01*
G01*
X-04171429Y002752445D01*
G01*
X-04238427Y002877788D01*
G01*
X-04296192Y002948174D01*
G01*
X-03630069Y003614297D01*
G01*
X-03694813Y003493172D01*
G01*
X-03736069Y003357167D01*
G01*
X-03750000Y003215726D01*
G01*
X-03736069Y003074286D01*
G01*
X-03694813Y002938281D01*
G01*
X-03627815Y002812938D01*
G01*
X-03537652Y002703074D01*
G01*
X-03427788Y002612911D01*
G01*
X-03330259Y002560780D01*
G01*
X-03156827Y002387348D01*
G01*
X-03046963Y002297185D01*
G01*
X-02921620Y002230187D01*
G01*
X-02785615Y002188931D01*
G01*
X-02700000Y002180498D01*
G01*
X-02700000Y001950000D01*
G01*
X-01850000Y001950000D01*
G01*
X-01200000Y001950000D01*
G01*
X-00550000Y001950000D01*
G01*
X-00550000Y002315414D01*
G01*
X-00462348Y002387348D01*
G01*
X-00372185Y002497212D01*
G01*
X-00332053Y002572293D01*
G01*
X-00288209Y002490267D01*
G01*
X-00196491Y002378509D01*
G01*
X-00100000Y002299320D01*
G01*
X-00100000Y001950000D01*
G01*
X000750000Y001950000D01*
G01*
X001400000Y001950000D01*
G01*
X002050000Y001950000D01*
G01*
X002700000Y001950000D01*
G01*
X002700000Y002315414D01*
G01*
X002787652Y002387348D01*
G01*
X002877815Y002497212D01*
G01*
X002944813Y002622555D01*
G01*
X002986069Y002758560D01*
G01*
X003000000Y002900000D01*
G01*
X003000000Y003574572D01*
G01*
X003067415Y003636805D01*
G01*
X003065877Y003638471D01*
G01*
X003088296Y003656869D01*
G01*
X003178460Y003766733D01*
G01*
X003245457Y003892076D01*
G01*
X003286713Y004028081D01*
G01*
X003300644Y004169522D01*
G01*
X003286713Y004310962D01*
G01*
X003259704Y004400000D01*
G01*
X003750000Y004400000D01*
G01*
X003964599Y004421136D01*
G01*
X004170952Y004483733D01*
G01*
X004293647Y004549315D01*
G01*
X004351108Y004502158D01*
G01*
X004476451Y004435160D01*
G01*
X004612456Y004393904D01*
G01*
X004753897Y004379973D01*
G01*
X004895337Y004393904D01*
G01*
X004910331Y004398452D01*
G01*
X004910627Y004397117D01*
G01*
X004934042Y004402302D01*
G01*
X004930648Y004395951D01*
G01*
X004868052Y004189598D01*
G01*
X004846916Y003974999D01*
G01*
X004868052Y003760400D01*
G01*
X004881218Y003716998D01*
G01*
X004799976Y003725000D01*
G01*
X004658536Y003711069D01*
G01*
X004522531Y003669813D01*
G01*
X004485462Y003649999D01*
G01*
X004199977Y003649999D01*
G01*
X004199977Y003425304D01*
G01*
X003423340Y002648645D01*
G01*
X003423341Y002648644D01*
G01*
X003333185Y002538788D01*
G01*
X003266187Y002413445D01*
G01*
X003224931Y002277440D01*
G01*
X003211000Y002136000D01*
G01*
X003211000Y001623000D01*
G01*
X003224931Y001481560D01*
G01*
X003266187Y001345555D01*
G01*
X003333185Y001220212D01*
G01*
X003423348Y001110348D01*
G01*
X003533212Y001020185D01*
G01*
X003658555Y000953187D01*
G01*
X003794560Y000911931D01*
G01*
X003936000Y000898000D01*
G01*
X004077440Y000911931D01*
G01*
X004213445Y000953187D01*
G01*
X004338788Y001020185D01*
G01*
X004448652Y001110348D01*
G01*
X004538815Y001220212D01*
G01*
X004605813Y001345555D01*
G01*
X004647069Y001481560D01*
G01*
X004661000Y001623000D01*
G01*
X004661000Y001835701D01*
G01*
X005175286Y002350001D01*
G01*
X005399975Y002350001D01*
G01*
X005399975Y002406145D01*
G01*
X005492918Y002292894D01*
G01*
X005644454Y002168531D01*
G01*
X005817341Y002076121D01*
G01*
X006004934Y002019216D01*
G01*
X006200024Y002000001D01*
G01*
X006395114Y002019216D01*
G01*
X006582707Y002076121D01*
G01*
X006755594Y002168531D01*
G01*
X006907130Y002292894D01*
G01*
X007031493Y002444430D01*
G01*
X007123903Y002617317D01*
G01*
X007180808Y002804910D01*
G01*
X007199855Y002998297D01*
G01*
X007216291Y003029046D01*
G01*
X007278888Y003235399D01*
G01*
X007300024Y003449998D01*
G01*
X007300024Y003450000D01*
G01*
X007300024Y003721891D01*
G01*
X007278888Y003936490D01*
G01*
X007216291Y004142842D01*
G01*
X007145652Y004275000D01*
G01*
X011246636Y004275000D01*
G01*
X011388076Y004288931D01*
G01*
X011524081Y004330187D01*
G01*
X011594818Y004367997D01*
G01*
X011849874Y004367997D01*
G01*
X011849874Y004593103D01*
G01*
X012268326Y005112003D01*
G01*
X015224946Y005112003D01*
G01*
X015643398Y004593103D01*
G01*
X015643398Y004367997D01*
G01*
X015898454Y004367997D01*
G01*
X015969191Y004330187D01*
G01*
X016105196Y004288931D01*
G01*
X016246636Y004275000D01*
G01*
X016388076Y004288931D01*
G01*
X016524081Y004330187D01*
G01*
X016594818Y004367997D01*
G01*
X016849874Y004367997D01*
G01*
X016849874Y004598003D01*
G01*
X016916449Y004722555D01*
G01*
X016957705Y004858560D01*
G01*
X016971636Y005000000D01*
G01*
X016957705Y005141440D01*
G01*
X016916449Y005277445D01*
G01*
X016849874Y005401997D01*
G01*
X016849874Y005632003D01*
G01*
X016668344Y005632003D01*
G01*
X016136017Y006292113D01*
G01*
X016133320Y006289938D01*
G01*
X016084311Y006349656D01*
G01*
X015974447Y006439819D01*
G01*
X015849104Y006506816D01*
G01*
X015713099Y006548073D01*
G01*
X015571659Y006562003D01*
G01*
X011966551Y006562003D01*
G01*
X011921613Y006562003D01*
G01*
X011780173Y006548073D01*
G01*
X011644168Y006506816D01*
G01*
X011518825Y006439819D01*
G01*
X011408961Y006349656D01*
G01*
X011359952Y006289938D01*
G01*
X011357255Y006292113D01*
G01*
X010899923Y005725000D01*
G01*
X006122973Y005725000D01*
G01*
X006082978Y005773734D01*
G01*
X005973114Y005863897D01*
G01*
X005903013Y005901367D01*
G01*
X005907500Y005946925D01*
G01*
X005891888Y006105436D01*
G01*
X005845653Y006257856D01*
G01*
X005770569Y006398326D01*
G01*
X005669525Y006521450D01*
G01*
X005546401Y006622495D01*
G01*
X005405931Y006697578D01*
G01*
X005253511Y006743814D01*
G01*
X005095000Y006759425D01*
G01*
X004936490Y006743814D01*
G01*
X004840858Y006714804D01*
G01*
X004839709Y006718276D01*
G01*
X004527255Y006614864D01*
G01*
X004428020Y006644967D01*
G01*
X004250000Y006662500D01*
G01*
X004071980Y006644967D01*
G01*
X003900801Y006593040D01*
G01*
X003888333Y006586376D01*
G01*
X003750000Y006600000D01*
G01*
X003250000Y006600000D01*
G01*
X003100002Y006600000D01*
G01*
X003100002Y007000000D01*
G01*
X003078866Y007214599D01*
G01*
X003016269Y007420952D01*
G01*
X002914619Y007611127D01*
G01*
X002905004Y007622843D01*
G01*
X002905004Y007875005D01*
G01*
X002659396Y007875005D01*
G01*
X002611129Y007914617D01*
G01*
X002420954Y008016267D01*
G01*
X002214601Y008078864D01*
G01*
X002000002Y008100000D01*
G01*
X001785403Y008078864D01*
G01*
X001579050Y008016267D01*
G01*
X001388875Y007914617D01*
G01*
X001340608Y007875005D01*
G01*
X001095000Y007875005D01*
G01*
X001095000Y007650632D01*
G01*
X000855826Y007411458D01*
G01*
X000430732Y008086291D01*
G01*
X000428607Y008084953D01*
G01*
X000414617Y008111127D01*
G01*
X000277817Y008277817D01*
G01*
X-00222183Y008777817D01*
G01*
X-00388873Y008914617D01*
G01*
X-00579048Y009016267D01*
G01*
X-00785401Y009078864D01*
G01*
X-01000000Y009100000D01*
G01*
X-03000000Y009100000D01*
G01*
X-03999998Y009100000D01*
G01*
X-04214597Y009078864D01*
G01*
X-04420950Y009016267D01*
G01*
X-04611125Y008914617D01*
G01*
X-04747258Y008802895D01*
G01*
X-05090181Y009145817D01*
G01*
X-05247720Y009275107D01*
G01*
X-05246636Y009275000D01*
G01*
X-05105196Y009288931D01*
G01*
X-04969191Y009330187D01*
G01*
X-04898454Y009367997D01*
G01*
X-04643398Y009367997D01*
G01*
X-04643398Y009577966D01*
G01*
X-03946618Y010275000D01*
G01*
X000299976Y010275000D01*
G01*
X000441416Y010288931D01*
G01*
X000577421Y010330187D01*
G01*
X000614490Y010350001D01*
G01*
X000899975Y010350001D01*
G01*
X000899975Y010589701D01*
G01*
X001380071Y011193717D01*
G01*
X001377406Y011195835D01*
G01*
X001415330Y011242045D01*
G01*
X001482328Y011367387D01*
G01*
X001523584Y011503393D01*
G01*
X001531914Y011587970D01*
G01*
X002924550Y010182260D01*
G01*
X002924781Y010182489D01*
G01*
X002926939Y010179859D01*
G01*
X003036803Y010089696D01*
G01*
X003162146Y010022699D01*
G01*
X003197644Y010011931D01*
G01*
X003014379Y009586431D01*
G01*
X003015231Y009586064D01*
G01*
X003010432Y009577086D01*
G01*
X002969175Y009441081D01*
G01*
X002955244Y009299640D01*
G01*
X002969175Y009158200D01*
G01*
X002978211Y009128411D01*
G01*
X002929985Y009069647D01*
G01*
X002890710Y008996170D01*
G01*
X002866525Y008916443D01*
G01*
X002858359Y008833530D01*
G01*
X002866525Y008750617D01*
G01*
X002890710Y008670890D01*
G01*
X002929985Y008597413D01*
G01*
X002982839Y008533010D01*
G01*
X003047242Y008480155D01*
G01*
X003120719Y008440881D01*
G01*
X003200446Y008416696D01*
G01*
X003283359Y008408530D01*
G01*
X003366273Y008416696D01*
G01*
X003446000Y008440881D01*
G01*
X003519477Y008480155D01*
G01*
X003583880Y008533010D01*
G01*
X003622696Y008580308D01*
G01*
X003680244Y008574640D01*
G01*
X003821685Y008588571D01*
G01*
X003957690Y008629828D01*
G01*
X004083033Y008696825D01*
G01*
X004192897Y008786988D01*
G01*
X004283060Y008896852D01*
G01*
X004345258Y009013217D01*
G01*
X004346109Y009012850D01*
G01*
X004429230Y009205837D01*
G01*
X004506320Y009213430D01*
G01*
X004642325Y009254686D01*
G01*
X004767668Y009321684D01*
G01*
X004877532Y009411847D01*
G01*
X005920191Y010454506D01*
G01*
X006212348Y010162348D01*
G01*
X006322212Y010072185D01*
G01*
X006447555Y010005187D01*
G01*
X006583560Y009963931D01*
G01*
X006725000Y009950000D01*
G01*
X006725077Y009950008D01*
G01*
X006725077Y009950000D01*
G01*
X006891948Y009950018D01*
G01*
X005660397Y008718702D01*
G01*
X005660402Y008718697D01*
G01*
X005660348Y008718652D01*
G01*
X005570185Y008608788D01*
G01*
X005503187Y008483445D01*
G01*
X005461931Y008347440D01*
G01*
X005448000Y008206000D01*
G01*
X005448000Y007298000D01*
G01*
X005461931Y007156560D01*
G01*
X005503187Y007020555D01*
G01*
X005570185Y006895212D01*
G01*
X005660348Y006785348D01*
G01*
X005770212Y006695185D01*
G01*
X005895555Y006628187D01*
G01*
X006031560Y006586931D01*
G01*
X006173000Y006573000D01*
G01*
X006314440Y006586931D01*
G01*
X006450445Y006628187D01*
G01*
X006575788Y006695185D01*
G01*
X006685652Y006785348D01*
G01*
X006775815Y006895212D01*
G01*
X006842813Y007020555D01*
G01*
X006884069Y007156560D01*
G01*
X006898000Y007298000D01*
G01*
X006898000Y007905654D01*
G01*
X008292710Y009300097D01*
G01*
X008396303Y009300079D01*
G01*
X008376187Y009262445D01*
G01*
X008334931Y009126440D01*
G01*
X008321000Y008985000D01*
G01*
X008334931Y008843560D01*
G01*
X008376187Y008707555D01*
G01*
X008443185Y008582212D01*
G01*
X008533348Y008472348D01*
G01*
X008643212Y008382185D01*
G01*
X008768555Y008315187D01*
G01*
X008904560Y008273931D01*
G01*
X009046000Y008260000D01*
G01*
X009068428Y008262209D01*
G01*
X009252034Y008262209D01*
G01*
X009381901Y008275000D01*
G01*
X010909970Y008275000D01*
G01*
X011399639Y007695205D01*
G01*
X011402251Y007697411D01*
G01*
X011440878Y007650344D01*
G01*
X011550742Y007560181D01*
G01*
X011676085Y007493184D01*
G01*
X011812090Y007451927D01*
G01*
X011953531Y007437997D01*
G01*
X015539741Y007437997D01*
G01*
X015681182Y007451927D01*
G01*
X015817187Y007493184D01*
G01*
X015942530Y007560181D01*
G01*
X016052394Y007650344D01*
G01*
X016091021Y007697411D01*
G01*
X016093633Y007695205D01*
G01*
X016661843Y008367997D01*
G01*
X016849874Y008367997D01*
G01*
X016849874Y008598003D01*
G01*
X016916449Y008722555D01*
G01*
X016957705Y008858560D01*
G01*
X016971636Y009000000D01*
G01*
X016957705Y009141440D01*
G01*
X016916449Y009277445D01*
G01*
X016849874Y009401997D01*
G01*
X016849874Y009632003D01*
G01*
X016594818Y009632003D01*
G01*
X016524081Y009669813D01*
G01*
X016388076Y009711069D01*
G01*
X016246636Y009725000D01*
G01*
X016105196Y009711069D01*
G01*
X015969191Y009669813D01*
G01*
X015898454Y009632003D01*
G01*
X015643398Y009632003D01*
G01*
X015643398Y009409363D01*
G01*
X015203077Y008887997D01*
G01*
X012290195Y008887997D01*
G01*
X011849874Y009409363D01*
G01*
X011849874Y009632003D01*
G01*
X011594818Y009632003D01*
G01*
X011524081Y009669813D01*
G01*
X011388076Y009711069D01*
G01*
X011246636Y009725000D01*
G01*
X009612055Y009725000D01*
G01*
X009999991Y010072025D01*
G01*
X009998099Y010074140D01*
G01*
X010029275Y010099725D01*
G01*
X010119438Y010209589D01*
G01*
X010186435Y010334932D01*
G01*
X010227692Y010470937D01*
G01*
X010241623Y010612377D01*
G01*
X010227692Y010753818D01*
G01*
X010186435Y010889823D01*
G01*
X010119438Y011015166D01*
G01*
X010117540Y011017479D01*
G01*
X011627532Y012367997D01*
G01*
X011849874Y012367997D01*
G01*
X011849874Y012591592D01*
G01*
X012282033Y013112003D01*
G01*
X015211239Y013112003D01*
G01*
X015643398Y012591592D01*
G01*
X015643398Y012367997D01*
G01*
X015898454Y012367997D01*
G01*
X015969191Y012330187D01*
G01*
X016105196Y012288931D01*
G01*
X016246636Y012275000D01*
G01*
X016388076Y012288931D01*
G01*
X016524081Y012330187D01*
G01*
X016594818Y012367997D01*
G01*
X016849874Y012367997D01*
G01*
X016849874Y012598003D01*
G01*
X016916449Y012722555D01*
G01*
X016957705Y012858560D01*
G01*
X016971636Y013000000D01*
G01*
X016957705Y013141440D01*
G01*
X016916449Y013277445D01*
G01*
X016849874Y013401997D01*
G01*
X016849874Y013632003D01*
G01*
X016664196Y013632003D01*
G01*
X016109331Y014300177D01*
G01*
X016106655Y014297955D01*
G01*
X016064225Y014349656D01*
G01*
X015954361Y014439819D01*
G01*
X015829018Y014506816D01*
G01*
X015693013Y014548073D01*
G01*
X015551572Y014562003D01*
G01*
X011958231Y014562003D01*
G01*
X011941700Y014562003D01*
G01*
X011800259Y014548073D01*
G01*
X011664254Y014506816D01*
G01*
X011538911Y014439819D01*
G01*
X011429047Y014349656D01*
G01*
X011386617Y014297955D01*
G01*
X011383941Y014300177D01*
G01*
X010829076Y013632003D01*
G01*
X010643398Y013632003D01*
G01*
X010643398Y013433142D01*
G01*
X008641076Y011642289D01*
G01*
X008595312Y011727908D01*
G01*
X008505149Y011837772D01*
G01*
X008395285Y011927935D01*
G01*
X008269942Y011994933D01*
G01*
X008133937Y012036189D01*
G01*
X007992497Y012050120D01*
G01*
X007102499Y012050120D01*
G01*
X006961058Y012036189D01*
G01*
X006887742Y012013949D01*
G01*
X006764133Y013732997D01*
G01*
X006760901Y013732765D01*
G01*
X006752069Y013822440D01*
G01*
X006710813Y013958445D01*
G01*
X006643815Y014083788D01*
G01*
X006553652Y014193652D01*
G01*
X006443788Y014283815D01*
G01*
X006318445Y014350813D01*
G01*
X006182440Y014392069D01*
G01*
X006041000Y014406000D01*
G01*
X005899560Y014392069D01*
G01*
X005763555Y014350813D01*
G01*
X005638212Y014283815D01*
G01*
X005528348Y014193652D01*
G01*
X005438185Y014083788D01*
G01*
X005371187Y013958445D01*
G01*
X005329931Y013822440D01*
G01*
X005316000Y013681000D01*
G01*
X005321099Y013629235D01*
G01*
X005317867Y013629003D01*
G01*
X005433665Y012018590D01*
G01*
X004715026Y011299950D01*
G01*
X004717505Y011325120D01*
G01*
X004703574Y011466560D01*
G01*
X004662317Y011602565D01*
G01*
X004636834Y011650240D01*
G01*
X004662317Y011697915D01*
G01*
X004703574Y011833920D01*
G01*
X004717505Y011975360D01*
G01*
X004703574Y012116800D01*
G01*
X004662317Y012252805D01*
G01*
X004595320Y012378148D01*
G01*
X004505249Y012487899D01*
G01*
X004505260Y012487910D01*
G01*
X004167001Y012826303D01*
G01*
X004166991Y012826293D01*
G01*
X004166899Y012826406D01*
G01*
X004057035Y012916569D01*
G01*
X003931692Y012983566D01*
G01*
X003914601Y012988751D01*
G01*
X003915152Y012990180D01*
G01*
X003477635Y013158935D01*
G01*
X003477084Y013157506D01*
G01*
X003358171Y013193578D01*
G01*
X003216730Y013207508D01*
G01*
X003196186Y013205485D01*
G01*
X003175753Y013243713D01*
G01*
X003085590Y013353577D01*
G01*
X002975726Y013443740D01*
G01*
X002850383Y013510737D01*
G01*
X002714378Y013551994D01*
G01*
X002572938Y013565924D01*
G01*
X002431497Y013551994D01*
G01*
X002295492Y013510737D01*
G01*
X002170149Y013443740D01*
G01*
X002060285Y013353577D01*
G01*
X001970122Y013243713D01*
G01*
X001956996Y013219156D01*
G01*
X000471018Y014719084D01*
G01*
X000470787Y014718855D01*
G01*
X000468629Y014721485D01*
G01*
X000358765Y014811648D01*
G01*
X000233422Y014878645D01*
G01*
X000097417Y014919902D01*
G01*
X-00044024Y014933833D01*
G01*
X-00185464Y014919902D01*
G01*
X-00321469Y014878645D01*
G01*
X-00446812Y014811648D01*
G01*
X-00556676Y014721485D01*
G01*
X-00646839Y014611621D01*
G01*
X-00713836Y014486278D01*
G01*
X-00755093Y014350273D01*
G01*
X-00769024Y014208833D01*
G01*
X-00755093Y014067392D01*
G01*
X-00713836Y013931387D01*
G01*
X-00646839Y013806044D01*
G01*
X-00558835Y013698810D01*
G01*
X-00559066Y013698581D01*
G01*
X000762230Y012364880D01*
G01*
X000671075Y012355902D01*
G01*
X000535070Y012314646D01*
G01*
X000409727Y012247648D01*
G01*
X000299863Y012157485D01*
G01*
X000247624Y012093831D01*
G01*
X000244959Y012095949D01*
G01*
X-00049886Y011725000D01*
G01*
X-04247000Y011725000D01*
G01*
X-04388440Y011711069D01*
G01*
X-04521636Y011670665D01*
G01*
X-04521636Y014493636D01*
G01*
X-04535567Y014635076D01*
G01*
X-04576823Y014771081D01*
G01*
X-04643821Y014896424D01*
G01*
X-04733984Y015006288D01*
G01*
X-04734025Y015006322D01*
G01*
X-04734021Y015006326D01*
G01*
X-06037385Y016309501D01*
G01*
X-05969191Y016330187D01*
G01*
X-05898454Y016367997D01*
G01*
X-05643398Y016367997D01*
G01*
X-05643398Y016598003D01*
G01*
X-05576823Y016722555D01*
G01*
X-05535567Y016858560D01*
G01*
X-05521636Y017000000D01*
G01*
X-05521636Y020995758D01*
G01*
X-05535567Y021137199D01*
G01*
X-05576823Y021273204D01*
G01*
X-05643821Y021398547D01*
G01*
X-05651006Y021407302D01*
G01*
X-05651006Y021600126D01*
G01*
X-05844785Y021600126D01*
G01*
X-05848216Y021602942D01*
G01*
X-05973559Y021669940D01*
G01*
X-06109564Y021711196D01*
G01*
X-06251005Y021725127D01*
G01*
X-06392445Y021711196D01*
G01*
X-06528450Y021669940D01*
G01*
X-06653793Y021602942D01*
G01*
X-06657224Y021600126D01*
G01*
X-06851004Y021600126D01*
G01*
X-06851004Y021406346D01*
G01*
X-06853820Y021402915D01*
G01*
X-06920817Y021277572D01*
G01*
X-06962074Y021141567D01*
G01*
X-06976005Y021000127D01*
G01*
X-06971636Y020955769D01*
G01*
X-06971636Y017243616D01*
G01*
X-07150126Y017422080D01*
G01*
X-07150126Y017632003D01*
G01*
X-07405182Y017632003D01*
G01*
X-07475919Y017669813D01*
G01*
X-07611924Y017711069D01*
G01*
X-07753364Y017725000D01*
G01*
X-07894804Y017711069D01*
G01*
X-08030809Y017669813D01*
G01*
X-08101546Y017632003D01*
G01*
X-08356602Y017632003D01*
G01*
X-08356602Y017401997D01*
G01*
X-08423177Y017277445D01*
G01*
X-08464433Y017141440D01*
G01*
X-08478364Y017000000D01*
G01*
X-08464433Y016858560D01*
G01*
X-08423177Y016722555D01*
G01*
X-08356602Y016598003D01*
G01*
X-08356602Y016367997D01*
G01*
X-08146649Y016367997D01*
G01*
X-05971636Y014193300D01*
G01*
X-05971636Y010000000D01*
G01*
X-05957705Y009858560D01*
G01*
X-05916449Y009722555D01*
G01*
X-05849874Y009598003D01*
G01*
X-05849874Y009466215D01*
G01*
X-05867998Y009468000D01*
G01*
X-06150126Y009468000D01*
G01*
X-06150126Y009568174D01*
G01*
X-06087766Y009712590D01*
G01*
X-06088669Y009712980D01*
G01*
X-06083551Y009722555D01*
G01*
X-06042295Y009858560D01*
G01*
X-06028364Y010000000D01*
G01*
X-06042295Y010141440D01*
G01*
X-06083551Y010277445D01*
G01*
X-06150126Y010401997D01*
G01*
X-06150126Y010632003D01*
G01*
X-06405182Y010632003D01*
G01*
X-06475919Y010669813D01*
G01*
X-06611924Y010711069D01*
G01*
X-06753364Y010725000D01*
G01*
X-06894804Y010711069D01*
G01*
X-07030809Y010669813D01*
G01*
X-07101546Y010632003D01*
G01*
X-07356602Y010632003D01*
G01*
X-07356602Y010401997D01*
G01*
X-07418059Y010287020D01*
G01*
X-07418962Y010287410D01*
G01*
X-07829781Y009336017D01*
G01*
X-07978048Y009415267D01*
G01*
X-08184401Y009477864D01*
G01*
X-08399000Y009499000D01*
G01*
X-08451605Y009493819D01*
G01*
X-08451793Y009497732D01*
G01*
X-10912312Y009379506D01*
G01*
X-10902639Y009411393D01*
G01*
X-10887507Y009565027D01*
G01*
X-10902639Y009718661D01*
G01*
X-10947452Y009866390D01*
G01*
X-11020225Y010002539D01*
G01*
X-11118160Y010121874D01*
G01*
X-11237495Y010219809D01*
G01*
X-11272506Y010238523D01*
G01*
X-11272506Y010260022D01*
G01*
X-11312728Y010260022D01*
G01*
X-11373644Y010292582D01*
G01*
X-11521373Y010337395D01*
G01*
X-11598237Y010344966D01*
G01*
X-11757272Y010475482D01*
G01*
X-11771059Y010482851D01*
G01*
X-11731313Y010494908D01*
G01*
X-10682375Y010494908D01*
G01*
X-10682375Y011400156D01*
G01*
X-10605984Y011423329D01*
G01*
X-10416674Y011524518D01*
G01*
X-10250742Y011660694D01*
G01*
X-10114566Y011826626D01*
G01*
X-10013377Y012015936D01*
G01*
X-09951066Y012221350D01*
G01*
X-09930026Y012434973D01*
G01*
X-09951066Y012648596D01*
G01*
X-10013377Y012854010D01*
G01*
X-10114566Y013043320D01*
G01*
X-10250742Y013209252D01*
G01*
X-10416674Y013345428D01*
G01*
X-10605984Y013446617D01*
G01*
X-10811398Y013508928D01*
G01*
X-11025021Y013529968D01*
G01*
X-11025027Y013529968D01*
G01*
X-11065615Y013529968D01*
G01*
X-11106241Y013529968D01*
G01*
X-11146867Y013529968D01*
G01*
X-11176705Y013529968D01*
G01*
X-11227522Y013534973D01*
G01*
X-11227523Y013534973D01*
G01*
X-11228119Y013534973D01*
G01*
X-11268746Y013534973D01*
G01*
X-11309372Y013534973D01*
G01*
X-11349998Y013534973D01*
G01*
X-11390624Y013534973D01*
G01*
X-11431250Y013534973D01*
G01*
X-11471876Y013534973D01*
G01*
X-11522693Y013529968D01*
G01*
X-11553129Y013529968D01*
G01*
X-11593755Y013529968D01*
G01*
X-11634381Y013529968D01*
G01*
X-11675006Y013525967D01*
G01*
X-11715632Y013529968D01*
G01*
X-11756258Y013529968D01*
G01*
X-11796883Y013529968D01*
G01*
X-11827316Y013529968D01*
G01*
X-11878133Y013534973D01*
G01*
X-11918759Y013534973D01*
G01*
X-11959384Y013534973D01*
G01*
X-12000009Y013534973D01*
G01*
X-12040634Y013534973D01*
G01*
X-12081260Y013534973D01*
G01*
X-12121885Y013534973D01*
G01*
X-12122490Y013534973D01*
G01*
X-12122492Y013534973D01*
G01*
X-12173309Y013529968D01*
G01*
X-12203135Y013529968D01*
G01*
X-12243761Y013529968D01*
G01*
X-12284386Y013529968D01*
G01*
X-12324973Y013529968D01*
G01*
X-12324993Y013529968D01*
G01*
X-12345306Y013527967D01*
G01*
X-12365619Y013529968D01*
G01*
X-12406245Y013529968D01*
G01*
X-12446871Y013529968D01*
G01*
X-12477307Y013529968D01*
G01*
X-12518385Y013534014D01*
G01*
X-13217189Y014232817D01*
G01*
X-13383879Y014369617D01*
G01*
X-13574054Y014471267D01*
G01*
X-13780407Y014533864D01*
G01*
X-13995006Y014555000D01*
G01*
X-17225000Y014555000D01*
G01*
X-17225000Y014635000D01*
G01*
X-20775000Y014635000D01*
G01*
X-20775000Y012275000D01*
G01*
X-17225000Y012275000D01*
G01*
X-17225000Y012355000D01*
G01*
X-14450640Y012355000D01*
G01*
X-13955299Y011859658D01*
G01*
X-13955297Y011859656D01*
G01*
X-13824340Y011752182D01*
G01*
X-13749258Y011660694D01*
G01*
X-13583326Y011524518D01*
G01*
X-13394016Y011423329D01*
G01*
X-13317371Y011400079D01*
G01*
X-13317371Y010599921D01*
G01*
X-13394016Y010576671D01*
G01*
X-13583326Y010475482D01*
G01*
X-13749258Y010339306D01*
G01*
X-13885434Y010173374D01*
G01*
X-13986623Y009984064D01*
G01*
X-14048934Y009778650D01*
G01*
X-14069974Y009565027D01*
G01*
X-14048934Y009351404D01*
G01*
X-13986623Y009145990D01*
G01*
X-13885434Y008956680D01*
G01*
X-13749258Y008790748D01*
G01*
X-13583326Y008654572D01*
G01*
X-13394016Y008553383D01*
G01*
X-13188602Y008491072D01*
G01*
X-13100000Y008482345D01*
G01*
X-13100000Y008250000D01*
G01*
X-13078864Y008035401D01*
G01*
X-13016267Y007829048D01*
G01*
X-12914617Y007638873D01*
G01*
X-12777817Y007472183D01*
G01*
X-12611127Y007335383D01*
G01*
X-12420952Y007233733D01*
G01*
X-12214599Y007171136D01*
G01*
X-12000000Y007150000D01*
G01*
X-11500000Y007150000D01*
G01*
X-11447395Y007155181D01*
G01*
X-11447207Y007151268D01*
G01*
X-08970931Y007270251D01*
G01*
X-08972887Y007250387D01*
G01*
X-08972634Y007247819D01*
G01*
X-08972883Y007247818D01*
G01*
X-08971995Y006997431D01*
G01*
X-08971747Y006997432D01*
G01*
X-08958069Y006858560D01*
G01*
X-08916813Y006722555D01*
G01*
X-08849874Y006597322D01*
G01*
X-08849874Y006367997D01*
G01*
X-08595182Y006367997D01*
G01*
X-08524445Y006330187D01*
G01*
X-08388440Y006288931D01*
G01*
X-08247000Y006275000D01*
G01*
X-08246636Y006275000D01*
G01*
X-08017538Y006275000D01*
G01*
X-06373270Y004630731D01*
G01*
X-06420952Y004616267D01*
G01*
X-06611127Y004514617D01*
G01*
X-06777817Y004377817D01*
G01*
X-06861712Y004293922D01*
G01*
X-07014599Y004278864D01*
G01*
X-07220952Y004216267D01*
G01*
X-07411127Y004114617D01*
G01*
X-07577817Y003977817D01*
G01*
X-09977817Y001577817D01*
G01*
X-10114617Y001411127D01*
G01*
X-10216267Y001220952D01*
G01*
X-10252958Y001100000D01*
G01*
X-10344366Y001100000D01*
G01*
X-11622183Y002377817D01*
G01*
X-11788873Y002514617D01*
G01*
X-11979048Y002616267D01*
G01*
X-12185401Y002678864D01*
G01*
X-12400000Y002700000D01*
G01*
X-17200000Y002700000D01*
G01*
X-17414599Y002678864D01*
G01*
X-17620952Y002616267D01*
G01*
X-17811127Y002514617D01*
G01*
X-17977817Y002377817D01*
G01*
X-18245040Y002110594D01*
G01*
X-19541453Y001478842D01*
G01*
X-19539469Y001474770D01*
G01*
X-19670712Y001404619D01*
G01*
X-19837402Y001267820D01*
G01*
X-19920190Y001166942D01*
G01*
X-19924169Y001170072D01*
G01*
X-20234923Y000775005D01*
G01*
X-21275008Y000775005D01*
G01*
X-21275008Y-00775005D01*
G01*
X-21100000Y-00775005D01*
G01*
X-21100000Y-07000000D01*
G01*
X-21100000Y-07599999D01*
G01*
X-21100000Y-07600001D01*
G01*
X-21100000Y-09567996D01*
G01*
X-21100000Y-09567998D01*
G01*
X-21078864Y-09782597D01*
G01*
X-21063230Y-09834134D01*
G01*
X-21233913Y-10031903D01*
G01*
X-21881711Y-10782503D01*
G01*
X-21877955Y-10785744D01*
G01*
X-21963576Y-10890073D01*
G01*
X-22065227Y-11080249D01*
G01*
X-22086750Y-11151200D01*
G01*
X-28026926Y-11151200D01*
G01*
X-28048449Y-11080249D01*
G01*
X-28150100Y-10890073D01*
G01*
X-28235817Y-10785627D01*
G01*
X-28232065Y-10782388D01*
G01*
X-28880045Y-10031787D01*
G01*
X-29136929Y-09734221D01*
G01*
X-29136929Y-08703799D01*
G01*
X-31584423Y-08703799D01*
G01*
X-31584423Y-11296200D01*
G01*
X-30694879Y-11296200D01*
G01*
X-30545347Y-11469413D01*
G01*
X-30164716Y-11910325D01*
G01*
X-30164716Y-12251200D01*
G01*
X-30143580Y-12465800D01*
G01*
X-30080984Y-12672152D01*
G01*
X-29979333Y-12862328D01*
G01*
X-29842534Y-13029018D01*
G01*
X-29675844Y-13165817D01*
G01*
X-29485668Y-13267468D01*
G01*
X-29279316Y-13330064D01*
G01*
X-29064716Y-13351200D01*
G37*
D80*
G36*
X-02428688Y015317997D02*
G01*
X-02287247Y015331927D01*
G01*
X-02151242Y015373184D01*
G01*
X-02025900Y015440181D01*
G01*
X-01916036Y015530344D01*
G01*
X-01825872Y015640208D01*
G01*
X-01758875Y015765551D01*
G01*
X-01717619Y015901556D01*
G01*
X-01703688Y016042997D01*
G01*
X-01717619Y016184437D01*
G01*
X-01745068Y016274924D01*
G01*
X-01742124Y016275923D01*
G01*
X-01773361Y016367997D01*
G01*
X-01594818Y016367997D01*
G01*
X-01524081Y016330187D01*
G01*
X-01388076Y016288931D01*
G01*
X-01246636Y016275000D01*
G01*
X-01105196Y016288931D01*
G01*
X-00969191Y016330187D01*
G01*
X-00898454Y016367997D01*
G01*
X-00643398Y016367997D01*
G01*
X-00643398Y016598003D01*
G01*
X-00576823Y016722555D01*
G01*
X-00535567Y016858560D01*
G01*
X-00521636Y017000000D01*
G01*
X-00521636Y020995758D01*
G01*
X-00535567Y021137199D01*
G01*
X-00576823Y021273204D01*
G01*
X-00643821Y021398547D01*
G01*
X-00651006Y021407302D01*
G01*
X-00651006Y021600126D01*
G01*
X-00844785Y021600126D01*
G01*
X-00848216Y021602942D01*
G01*
X-00973559Y021669940D01*
G01*
X-01109564Y021711196D01*
G01*
X-01251005Y021725127D01*
G01*
X-01392445Y021711196D01*
G01*
X-01528450Y021669940D01*
G01*
X-01653793Y021602942D01*
G01*
X-01657224Y021600126D01*
G01*
X-01851004Y021600126D01*
G01*
X-01851004Y021406346D01*
G01*
X-01853820Y021402915D01*
G01*
X-01920817Y021277572D01*
G01*
X-01962074Y021141567D01*
G01*
X-01976005Y021000127D01*
G01*
X-01971636Y020955769D01*
G01*
X-01971636Y017000000D01*
G01*
X-01965033Y016932962D01*
G01*
X-02066800Y017232926D01*
G01*
X-02069744Y017231927D01*
G01*
X-02083551Y017277445D01*
G01*
X-02150126Y017401997D01*
G01*
X-02150126Y017632003D01*
G01*
X-02405182Y017632003D01*
G01*
X-02475919Y017669813D01*
G01*
X-02611924Y017711069D01*
G01*
X-02753364Y017725000D01*
G01*
X-02894804Y017711069D01*
G01*
X-03030809Y017669813D01*
G01*
X-03101546Y017632003D01*
G01*
X-03356602Y017632003D01*
G01*
X-03356602Y017401997D01*
G01*
X-03423177Y017277445D01*
G01*
X-03464433Y017141440D01*
G01*
X-03478364Y017000000D01*
G01*
X-03464433Y016858560D01*
G01*
X-03436984Y016768073D01*
G01*
X-03439928Y016767074D01*
G01*
X-03356602Y016521465D01*
G01*
X-03356602Y016367997D01*
G01*
X-03304536Y016367997D01*
G01*
X-03115252Y015810071D01*
G01*
X-03112309Y015811070D01*
G01*
X-03098501Y015765551D01*
G01*
X-03031503Y015640208D01*
G01*
X-02941340Y015530344D01*
G01*
X-02831476Y015440181D01*
G01*
X-02706133Y015373184D01*
G01*
X-02570128Y015331927D01*
G01*
X-02428688Y015317997D01*
G37*
D80*
G36*
X004957000Y018675000D02*
G01*
X005098440Y018688931D01*
G01*
X005234445Y018730187D01*
G01*
X005359788Y018797185D01*
G01*
X005469652Y018887348D01*
G01*
X005559815Y018997212D01*
G01*
X005626813Y019122555D01*
G01*
X005668069Y019258560D01*
G01*
X005682000Y019400000D01*
G01*
X005682000Y019792122D01*
G01*
X005668069Y019933563D01*
G01*
X005626813Y020069568D01*
G01*
X005559815Y020194911D01*
G01*
X005469652Y020304775D01*
G01*
X004348994Y021425433D01*
G01*
X004348994Y021600126D01*
G01*
X004155215Y021600126D01*
G01*
X004151784Y021602942D01*
G01*
X004026441Y021669940D01*
G01*
X003890436Y021711196D01*
G01*
X003748995Y021725127D01*
G01*
X003607555Y021711196D01*
G01*
X003471550Y021669940D01*
G01*
X003346207Y021602942D01*
G01*
X003342776Y021600126D01*
G01*
X003148996Y021600126D01*
G01*
X003148996Y021406346D01*
G01*
X003146180Y021402915D01*
G01*
X003079183Y021277572D01*
G01*
X003037926Y021141567D01*
G01*
X003023995Y021000127D01*
G01*
X003037926Y020858687D01*
G01*
X003079183Y020722682D01*
G01*
X003146180Y020597339D01*
G01*
X003148996Y020593908D01*
G01*
X003148996Y020400128D01*
G01*
X003323690Y020400128D01*
G01*
X004232000Y019491818D01*
G01*
X004232000Y019400000D01*
G01*
X004245931Y019258560D01*
G01*
X004287187Y019122555D01*
G01*
X004354185Y018997212D01*
G01*
X004444348Y018887348D01*
G01*
X004554212Y018797185D01*
G01*
X004679555Y018730187D01*
G01*
X004815560Y018688931D01*
G01*
X004957000Y018675000D01*
G37*
D80*
G36*
X010000000Y014475000D02*
G01*
X010141440Y014488931D01*
G01*
X010277445Y014530187D01*
G01*
X010402788Y014597185D01*
G01*
X010512652Y014687348D01*
G01*
X010559798Y014734493D01*
G01*
X011759288Y015933984D01*
G01*
X011849451Y016043848D01*
G01*
X011916449Y016169191D01*
G01*
X011957705Y016305196D01*
G01*
X011971636Y016446636D01*
G01*
X011971636Y016734810D01*
G01*
X012290195Y017112003D01*
G01*
X015203077Y017112003D01*
G01*
X015643398Y016590637D01*
G01*
X015643398Y016367997D01*
G01*
X015898454Y016367997D01*
G01*
X015969191Y016330187D01*
G01*
X016105196Y016288931D01*
G01*
X016246636Y016275000D01*
G01*
X016388076Y016288931D01*
G01*
X016524081Y016330187D01*
G01*
X016594818Y016367997D01*
G01*
X016849874Y016367997D01*
G01*
X016849874Y016598003D01*
G01*
X016916449Y016722555D01*
G01*
X016957705Y016858560D01*
G01*
X016971636Y017000000D01*
G01*
X016957705Y017141440D01*
G01*
X016916449Y017277445D01*
G01*
X016849874Y017401997D01*
G01*
X016849874Y017632003D01*
G01*
X016661843Y017632003D01*
G01*
X016093633Y018304795D01*
G01*
X016091021Y018302589D01*
G01*
X016052394Y018349656D01*
G01*
X015942530Y018439819D01*
G01*
X015817187Y018506816D01*
G01*
X015681182Y018548073D01*
G01*
X015539741Y018562003D01*
G01*
X011953531Y018562003D01*
G01*
X011812090Y018548073D01*
G01*
X011676085Y018506816D01*
G01*
X011550742Y018439819D01*
G01*
X011440878Y018349656D01*
G01*
X011402251Y018302589D01*
G01*
X011399639Y018304795D01*
G01*
X010831429Y017632003D01*
G01*
X010643398Y017632003D01*
G01*
X010643398Y017401997D01*
G01*
X010576823Y017277445D01*
G01*
X010535567Y017141440D01*
G01*
X010521636Y017000000D01*
G01*
X010521636Y016746940D01*
G01*
X009534493Y015759798D01*
G01*
X009487348Y015712652D01*
G01*
X009397185Y015602788D01*
G01*
X009330187Y015477445D01*
G01*
X009288931Y015341440D01*
G01*
X009275000Y015200000D01*
G01*
X009288931Y015058560D01*
G01*
X009330187Y014922555D01*
G01*
X009397185Y014797212D01*
G01*
X009487348Y014687348D01*
G01*
X009597212Y014597185D01*
G01*
X009722555Y014530187D01*
G01*
X009858560Y014488931D01*
G01*
X010000000Y014475000D01*
G37*
D80*
G36*
X004815324Y016133324D02*
G01*
X004956765Y016147255D01*
G01*
X005092770Y016188512D01*
G01*
X005218113Y016255509D01*
G01*
X005327977Y016345672D01*
G01*
X005418140Y016455536D01*
G01*
X005485137Y016580879D01*
G01*
X005526394Y016716884D01*
G01*
X005540324Y016858324D01*
G01*
X005526394Y016999765D01*
G01*
X005485137Y017135770D01*
G01*
X005478275Y017148608D01*
G01*
X005479449Y017149122D01*
G01*
X005417414Y017290798D01*
G01*
X005416240Y017290284D01*
G01*
X005356105Y017402788D01*
G01*
X005265942Y017512652D01*
G01*
X005156078Y017602815D01*
G01*
X005030735Y017669813D01*
G01*
X004894730Y017711069D01*
G01*
X004753289Y017725000D01*
G01*
X003753364Y017725000D01*
G01*
X003611924Y017711069D01*
G01*
X003536657Y017688237D01*
G01*
X003533774Y017717510D01*
G01*
X003492518Y017853515D01*
G01*
X003425521Y017978858D01*
G01*
X003335357Y018088721D01*
G01*
X003225494Y018178885D01*
G01*
X003100151Y018245882D01*
G01*
X002964146Y018287138D01*
G01*
X002822705Y018301069D01*
G01*
X002681265Y018287138D01*
G01*
X002545260Y018245882D01*
G01*
X002419917Y018178885D01*
G01*
X002310053Y018088721D01*
G01*
X001853335Y017632003D01*
G01*
X001643398Y017632003D01*
G01*
X001643398Y017401997D01*
G01*
X001576823Y017277445D01*
G01*
X001535567Y017141440D01*
G01*
X001521636Y017000000D01*
G01*
X001535567Y016858560D01*
G01*
X001576823Y016722555D01*
G01*
X001643398Y016598003D01*
G01*
X001643398Y016367997D01*
G01*
X001898454Y016367997D01*
G01*
X001969191Y016330187D01*
G01*
X002105196Y016288931D01*
G01*
X002246636Y016275000D01*
G01*
X002388076Y016288931D01*
G01*
X002524081Y016330187D01*
G01*
X002594818Y016367997D01*
G01*
X002849874Y016367997D01*
G01*
X002849874Y016577934D01*
G01*
X003062824Y016790884D01*
G01*
X003083551Y016722555D01*
G01*
X003150126Y016598003D01*
G01*
X003150126Y016367997D01*
G01*
X003405182Y016367997D01*
G01*
X003475919Y016330187D01*
G01*
X003611924Y016288931D01*
G01*
X003753364Y016275000D01*
G01*
X004388786Y016275000D01*
G01*
X004412536Y016255509D01*
G01*
X004537879Y016188512D01*
G01*
X004673884Y016147255D01*
G01*
X004815324Y016133324D01*
G37*
D80*
G36*
X018671940Y014679860D02*
G01*
X018813381Y014693790D01*
G01*
X018949386Y014735047D01*
G01*
X019074729Y014802044D01*
G01*
X019184593Y014892207D01*
G01*
X019274756Y015002071D01*
G01*
X019341753Y015127414D01*
G01*
X019383010Y015263419D01*
G01*
X019396934Y015404796D01*
G01*
X019396940Y015404796D01*
G01*
X019397000Y016080936D01*
G01*
X019396994Y016080936D01*
G01*
X019397000Y016081000D01*
G01*
X019383069Y016222440D01*
G01*
X019341813Y016358445D01*
G01*
X019274815Y016483788D01*
G01*
X019184744Y016593541D01*
G01*
X019184754Y016593551D01*
G01*
X018356602Y017422031D01*
G01*
X018356602Y017632003D01*
G01*
X018101546Y017632003D01*
G01*
X018030809Y017669813D01*
G01*
X017894804Y017711069D01*
G01*
X017753364Y017725000D01*
G01*
X017611924Y017711069D01*
G01*
X017475919Y017669813D01*
G01*
X017405182Y017632003D01*
G01*
X017150126Y017632003D01*
G01*
X017150126Y017401997D01*
G01*
X017083551Y017277445D01*
G01*
X017042295Y017141440D01*
G01*
X017028364Y017000000D01*
G01*
X017042295Y016858560D01*
G01*
X017083551Y016722555D01*
G01*
X017150126Y016598003D01*
G01*
X017150126Y016367997D01*
G01*
X017360015Y016367997D01*
G01*
X017946973Y015780806D01*
G01*
X017946940Y015404924D01*
G01*
X017946946Y015404924D01*
G01*
X017946940Y015404860D01*
G01*
X017960871Y015263419D01*
G01*
X018002128Y015127414D01*
G01*
X018069125Y015002071D01*
G01*
X018159288Y014892207D01*
G01*
X018269152Y014802044D01*
G01*
X018394495Y014735047D01*
G01*
X018530500Y014693790D01*
G01*
X018671940Y014679860D01*
G37*
D80*
G36*
X020466301Y015000002D02*
G01*
X022441101Y015000002D01*
G01*
X022441101Y016999998D01*
G01*
X020466301Y016999998D01*
G01*
X020466301Y015000002D01*
G37*
D80*
G36*
X018283045Y000249827D02*
G01*
X018424485Y000263757D01*
G01*
X018560490Y000305014D01*
G01*
X018685833Y000372011D01*
G01*
X018792016Y000459153D01*
G01*
X018792333Y000458832D01*
G01*
X020466301Y002111046D01*
G01*
X020466301Y001000002D01*
G01*
X022441101Y001000002D01*
G01*
X022441101Y002999998D01*
G01*
X022303173Y002999998D01*
G01*
X022876490Y003573315D01*
G01*
X022951556Y003596086D01*
G01*
X023076899Y003663084D01*
G01*
X023186763Y003753247D01*
G01*
X023264846Y003848391D01*
G01*
X023266168Y003847457D01*
G01*
X023404057Y004042558D01*
G01*
X023402735Y004043492D01*
G01*
X023414815Y004058212D01*
G01*
X023481813Y004183555D01*
G01*
X023523069Y004319560D01*
G01*
X023537000Y004461000D01*
G01*
X023523069Y004602440D01*
G01*
X023481813Y004738445D01*
G01*
X023414815Y004863788D01*
G01*
X023343423Y004950779D01*
G01*
X025729504Y007305852D01*
G01*
X025729187Y007306173D01*
G01*
X025732868Y007309194D01*
G01*
X025823031Y007419058D01*
G01*
X025890028Y007544401D01*
G01*
X025931285Y007680406D01*
G01*
X025945216Y007821846D01*
G01*
X025944441Y007829715D01*
G01*
X025945173Y007829723D01*
G01*
X025876197Y014178194D01*
G01*
X026619225Y015008425D01*
G01*
X026728791Y015019216D01*
G01*
X026916384Y015076122D01*
G01*
X027089270Y015168532D01*
G01*
X027240806Y015292894D01*
G01*
X027365169Y015444431D01*
G01*
X027457579Y015617317D01*
G01*
X027514485Y015804910D01*
G01*
X027533699Y016000000D01*
G01*
X027514485Y016195090D01*
G01*
X027457579Y016382683D01*
G01*
X027365169Y016555569D01*
G01*
X027240806Y016707106D01*
G01*
X027089270Y016831468D01*
G01*
X026916384Y016923878D01*
G01*
X026728791Y016980784D01*
G01*
X026533701Y016999998D01*
G01*
X026338611Y016980784D01*
G01*
X026151018Y016923878D01*
G01*
X025978131Y016831468D01*
G01*
X025826595Y016707106D01*
G01*
X025702233Y016555569D01*
G01*
X025609823Y016382683D01*
G01*
X025552917Y016195090D01*
G01*
X025533702Y016000000D01*
G01*
X025536384Y015972773D01*
G01*
X024607942Y014935367D01*
G01*
X024610050Y014933480D01*
G01*
X024545365Y014854661D01*
G01*
X024478368Y014729318D01*
G01*
X024437111Y014593313D01*
G01*
X024423180Y014451872D01*
G01*
X024423955Y014444004D01*
G01*
X024423223Y014443996D01*
G01*
X024472895Y009872291D01*
G01*
X024376384Y009923878D01*
G01*
X024188791Y009980784D01*
G01*
X024021772Y009997233D01*
G01*
X020506353Y013512652D01*
G01*
X020396489Y013602815D01*
G01*
X020271146Y013669813D01*
G01*
X020135141Y013711069D01*
G01*
X019993701Y013725000D01*
G01*
X017753364Y013725000D01*
G01*
X017611924Y013711069D01*
G01*
X017475919Y013669813D01*
G01*
X017405182Y013632003D01*
G01*
X017150126Y013632003D01*
G01*
X017150126Y013401997D01*
G01*
X017083551Y013277445D01*
G01*
X017042295Y013141440D01*
G01*
X017028364Y013000000D01*
G01*
X017042295Y012858560D01*
G01*
X017083551Y012722555D01*
G01*
X017150126Y012598003D01*
G01*
X017150126Y012367997D01*
G01*
X017405182Y012367997D01*
G01*
X017475919Y012330187D01*
G01*
X017611924Y012288931D01*
G01*
X017753364Y012275000D01*
G01*
X019693396Y012275000D01*
G01*
X021968398Y009999998D01*
G01*
X020466301Y009999998D01*
G01*
X020466301Y008000002D01*
G01*
X022441101Y008000002D01*
G01*
X022441101Y009527295D01*
G01*
X022996467Y008971929D01*
G01*
X023012917Y008804910D01*
G01*
X023069823Y008617317D01*
G01*
X023162233Y008444431D01*
G01*
X023286595Y008292894D01*
G01*
X023438131Y008168532D01*
G01*
X023611018Y008076122D01*
G01*
X023798611Y008019216D01*
G01*
X023993701Y008000002D01*
G01*
X024188791Y008019216D01*
G01*
X024376384Y008076122D01*
G01*
X024491741Y008137782D01*
G01*
X024491916Y008121675D01*
G01*
X023317648Y006962667D01*
G01*
X023285657Y007001647D01*
G01*
X023175793Y007091810D01*
G01*
X023050451Y007158808D01*
G01*
X022914446Y007200064D01*
G01*
X022773005Y007213995D01*
G01*
X022739456Y007210691D01*
G01*
X022739339Y007213213D01*
G01*
X020650844Y007116126D01*
G01*
X018356602Y009421626D01*
G01*
X018356602Y009632003D01*
G01*
X018101546Y009632003D01*
G01*
X018030809Y009669813D01*
G01*
X017894804Y009711069D01*
G01*
X017753364Y009725000D01*
G01*
X017611924Y009711069D01*
G01*
X017475919Y009669813D01*
G01*
X017405182Y009632003D01*
G01*
X017150126Y009632003D01*
G01*
X017150126Y009401997D01*
G01*
X017083551Y009277445D01*
G01*
X017042295Y009141440D01*
G01*
X017028364Y009000000D01*
G01*
X017042295Y008858560D01*
G01*
X017083551Y008722555D01*
G01*
X017150126Y008598003D01*
G01*
X017150126Y008367997D01*
G01*
X017359476Y008367997D01*
G01*
X019790544Y005925000D01*
G01*
X017953000Y005925000D01*
G01*
X017811560Y005911069D01*
G01*
X017675555Y005869813D01*
G01*
X017550212Y005802815D01*
G01*
X017440348Y005712652D01*
G01*
X017439927Y005712139D01*
G01*
X017439881Y005712185D01*
G01*
X017359845Y005632003D01*
G01*
X017150126Y005632003D01*
G01*
X017150126Y005401997D01*
G01*
X017083551Y005277445D01*
G01*
X017042295Y005141440D01*
G01*
X017028364Y005000000D01*
G01*
X017042295Y004858560D01*
G01*
X017083551Y004722555D01*
G01*
X017150126Y004598003D01*
G01*
X017150126Y004367997D01*
G01*
X017405182Y004367997D01*
G01*
X017475919Y004330187D01*
G01*
X017611924Y004288931D01*
G01*
X017753364Y004275000D01*
G01*
X017894804Y004288931D01*
G01*
X018030809Y004330187D01*
G01*
X018101546Y004367997D01*
G01*
X018356602Y004367997D01*
G01*
X018356602Y004475000D01*
G01*
X020797227Y004475000D01*
G01*
X017999973Y001714098D01*
G01*
X017787781Y001724183D01*
G01*
X017787659Y001721622D01*
G01*
X017753364Y001725000D01*
G01*
X017611924Y001711069D01*
G01*
X017475919Y001669813D01*
G01*
X017405182Y001632003D01*
G01*
X017150126Y001632003D01*
G01*
X017150126Y001401997D01*
G01*
X017083551Y001277445D01*
G01*
X017042295Y001141440D01*
G01*
X017028364Y001000000D01*
G01*
X017042295Y000858560D01*
G01*
X017083551Y000722555D01*
G01*
X017150126Y000598003D01*
G01*
X017150126Y000367997D01*
G01*
X017405182Y000367997D01*
G01*
X017475919Y000330187D01*
G01*
X017611924Y000288931D01*
G01*
X017719069Y000278378D01*
G01*
X017718947Y000275817D01*
G01*
X018248627Y000250644D01*
G01*
X018248749Y000253205D01*
G01*
X018283045Y000249827D01*
G37*
D80*
G36*
X-20775000Y007365000D02*
G01*
X-17225000Y007365000D01*
G01*
X-17225000Y009725000D01*
G01*
X-20775000Y009725000D01*
G01*
X-20775000Y009645000D01*
G01*
X-23589371Y009645000D01*
G01*
X-26736737Y012792366D01*
G01*
X-26798959Y012997483D01*
G01*
X-26919091Y013222235D01*
G01*
X-27080763Y013419232D01*
G01*
X-27277760Y013580904D01*
G01*
X-27502512Y013701036D01*
G01*
X-27746383Y013775014D01*
G01*
X-28000000Y013799993D01*
G01*
X-28253617Y013775014D01*
G01*
X-28497488Y013701036D01*
G01*
X-28722240Y013580904D01*
G01*
X-28919237Y013419232D01*
G01*
X-29080909Y013222235D01*
G01*
X-29201041Y012997483D01*
G01*
X-29275019Y012753612D01*
G01*
X-29299998Y012499995D01*
G01*
X-29275019Y012246378D01*
G01*
X-29201041Y012002507D01*
G01*
X-29080909Y011777755D01*
G01*
X-28919237Y011580758D01*
G01*
X-28722240Y011419086D01*
G01*
X-28497488Y011298954D01*
G01*
X-28292371Y011236732D01*
G01*
X-24822822Y007767183D01*
G01*
X-24656132Y007630383D01*
G01*
X-24465957Y007528733D01*
G01*
X-24259604Y007466136D01*
G01*
X-24045005Y007445000D01*
G01*
X-24045000Y007445000D01*
G01*
X-20775000Y007445000D01*
G01*
X-20775000Y007365000D01*
G37*
D80*
G36*
X023993701Y001000002D02*
G01*
X024188791Y001019216D01*
G01*
X024376384Y001076122D01*
G01*
X024549270Y001168532D01*
G01*
X024700806Y001292894D01*
G01*
X024825169Y001444431D01*
G01*
X024917579Y001617317D01*
G01*
X024974485Y001804910D01*
G01*
X024993699Y002000000D01*
G01*
X024974485Y002195090D01*
G01*
X024917579Y002382683D01*
G01*
X024825169Y002555569D01*
G01*
X024700806Y002707106D01*
G01*
X024549270Y002831468D01*
G01*
X024376384Y002923878D01*
G01*
X024188791Y002980784D01*
G01*
X023993701Y002999998D01*
G01*
X023798611Y002980784D01*
G01*
X023611018Y002923878D01*
G01*
X023438131Y002831468D01*
G01*
X023286595Y002707106D01*
G01*
X023162233Y002555569D01*
G01*
X023069823Y002382683D01*
G01*
X023012917Y002195090D01*
G01*
X022993702Y002000000D01*
G01*
X023012917Y001804910D01*
G01*
X023069823Y001617317D01*
G01*
X023162233Y001444431D01*
G01*
X023286595Y001292894D01*
G01*
X023438131Y001168532D01*
G01*
X023611018Y001076122D01*
G01*
X023798611Y001019216D01*
G01*
X023993701Y001000002D01*
G37*
D80*
G36*
X006807000Y-01362000D02*
G01*
X009610000Y-01362000D01*
G01*
X009751440Y-01348069D01*
G01*
X009887445Y-01306813D01*
G01*
X010012788Y-01239815D01*
G01*
X010122652Y-01149652D01*
G01*
X010122703Y-01149589D01*
G01*
X010122709Y-01149595D01*
G01*
X011201672Y-00070392D01*
G01*
X011399639Y-00304795D01*
G01*
X011402251Y-00302589D01*
G01*
X011440878Y-00349656D01*
G01*
X011550742Y-00439819D01*
G01*
X011676085Y-00506816D01*
G01*
X011812090Y-00548073D01*
G01*
X011953531Y-00562003D01*
G01*
X015539741Y-00562003D01*
G01*
X015681182Y-00548073D01*
G01*
X015817187Y-00506816D01*
G01*
X015942530Y-00439819D01*
G01*
X016052394Y-00349656D01*
G01*
X016091021Y-00302589D01*
G01*
X016093633Y-00304795D01*
G01*
X016661843Y000367997D01*
G01*
X016849874Y000367997D01*
G01*
X016849874Y000598003D01*
G01*
X016916449Y000722555D01*
G01*
X016957705Y000858560D01*
G01*
X016971636Y001000000D01*
G01*
X016957705Y001141440D01*
G01*
X016916449Y001277445D01*
G01*
X016849874Y001401997D01*
G01*
X016849874Y001632003D01*
G01*
X016594818Y001632003D01*
G01*
X016524081Y001669813D01*
G01*
X016388076Y001711069D01*
G01*
X016246636Y001725000D01*
G01*
X016105196Y001711069D01*
G01*
X015969191Y001669813D01*
G01*
X015898454Y001632003D01*
G01*
X015643398Y001632003D01*
G01*
X015643398Y001409363D01*
G01*
X015203077Y000887997D01*
G01*
X012290195Y000887997D01*
G01*
X011849874Y001409363D01*
G01*
X011849874Y001632003D01*
G01*
X011594818Y001632003D01*
G01*
X011524081Y001669813D01*
G01*
X011388076Y001711069D01*
G01*
X011246636Y001725000D01*
G01*
X011105196Y001711069D01*
G01*
X010969191Y001669813D01*
G01*
X010898454Y001632003D01*
G01*
X010643398Y001632003D01*
G01*
X010643398Y001422046D01*
G01*
X009309649Y000088000D01*
G01*
X006807000Y000088000D01*
G01*
X006665560Y000074069D01*
G01*
X006529555Y000032813D01*
G01*
X006404212Y-00034185D01*
G01*
X006294348Y-00124348D01*
G01*
X006204185Y-00234212D01*
G01*
X006137187Y-00359555D01*
G01*
X006095931Y-00495560D01*
G01*
X006082000Y-00637000D01*
G01*
X006095931Y-00778440D01*
G01*
X006137187Y-00914445D01*
G01*
X006204185Y-01039788D01*
G01*
X006294348Y-01149652D01*
G01*
X006404212Y-01239815D01*
G01*
X006529555Y-01306813D01*
G01*
X006665560Y-01348069D01*
G01*
X006807000Y-01362000D01*
G37*
D80*
G36*
X008500005Y-25299998D02*
G01*
X008753622Y-25275019D01*
G01*
X008997493Y-25201041D01*
G01*
X009222245Y-25080909D01*
G01*
X009419242Y-24919237D01*
G01*
X009580914Y-24722240D01*
G01*
X009701046Y-24497488D01*
G01*
X009775024Y-24253617D01*
G01*
X009800003Y-24000000D01*
G01*
X009775024Y-23746383D01*
G01*
X009701046Y-23502512D01*
G01*
X009619399Y-23349761D01*
G01*
X009619399Y-22177571D01*
G01*
X009598263Y-21962971D01*
G01*
X009535666Y-21756619D01*
G01*
X009434015Y-21566443D01*
G01*
X009297216Y-21399753D01*
G01*
X006700000Y-18802537D01*
G01*
X006700000Y-13600000D01*
G01*
X006678864Y-13385401D01*
G01*
X006616267Y-13179048D01*
G01*
X006514617Y-12988873D01*
G01*
X006377817Y-12822183D01*
G01*
X006211127Y-12685383D01*
G01*
X006085458Y-12618212D01*
G01*
X004395246Y-10928000D01*
G01*
X005306078Y-10928000D01*
G01*
X008155895Y-13777817D01*
G01*
X008322585Y-13914617D01*
G01*
X008512760Y-14016267D01*
G01*
X008719113Y-14078864D01*
G01*
X008933712Y-14100000D01*
G01*
X008934000Y-14100000D01*
G01*
X014000000Y-14100000D01*
G01*
X014214599Y-14078864D01*
G01*
X014420952Y-14016267D01*
G01*
X014611127Y-13914617D01*
G01*
X014777817Y-13777817D01*
G01*
X014914617Y-13611127D01*
G01*
X015016267Y-13420952D01*
G01*
X015078864Y-13214599D01*
G01*
X015100000Y-13000000D01*
G01*
X015078864Y-12785401D01*
G01*
X015034420Y-12638889D01*
G01*
X015123261Y-12686376D01*
G01*
X015259267Y-12727633D01*
G01*
X015389569Y-12740466D01*
G01*
X015389553Y-12741477D01*
G01*
X016624183Y-12760474D01*
G01*
X016633931Y-12859440D01*
G01*
X016675187Y-12995445D01*
G01*
X016742185Y-13120788D01*
G01*
X016832348Y-13230652D01*
G01*
X016942212Y-13320815D01*
G01*
X017067555Y-13387813D01*
G01*
X017203560Y-13429069D01*
G01*
X017345000Y-13443000D01*
G01*
X025664661Y-13443000D01*
G01*
X026496528Y-14275000D01*
G01*
X024700024Y-14275000D01*
G01*
X024558584Y-14288931D01*
G01*
X024422579Y-14330187D01*
G01*
X024385510Y-14350001D01*
G01*
X024100025Y-14350001D01*
G01*
X024100025Y-14587913D01*
G01*
X023651841Y-15129999D01*
G01*
X009048183Y-15129999D01*
G01*
X008768959Y-14792272D01*
G01*
X008739104Y-14693853D01*
G01*
X008665176Y-14555544D01*
G01*
X008565685Y-14434315D01*
G01*
X008444456Y-14334824D01*
G01*
X008306147Y-14260896D01*
G01*
X008156072Y-14215372D01*
G01*
X008000000Y-14200000D01*
G01*
X007843928Y-14215372D01*
G01*
X007693853Y-14260896D01*
G01*
X007555544Y-14334824D01*
G01*
X007434315Y-14434315D01*
G01*
X007334824Y-14555544D01*
G01*
X007260896Y-14693853D01*
G01*
X007215372Y-14843928D01*
G01*
X007200000Y-15000000D01*
G01*
X007215372Y-15156072D01*
G01*
X007260896Y-15306147D01*
G01*
X007334824Y-15444456D01*
G01*
X007434315Y-15565685D01*
G01*
X007555544Y-15665176D01*
G01*
X007651777Y-15716614D01*
G01*
X008148137Y-16316968D01*
G01*
X008150824Y-16314747D01*
G01*
X008194242Y-16367652D01*
G01*
X008304106Y-16457815D01*
G01*
X008429449Y-16524812D01*
G01*
X008565454Y-16566068D01*
G01*
X008706895Y-16579999D01*
G01*
X023975024Y-16579999D01*
G01*
X023975024Y-18694024D01*
G01*
X023988955Y-18835464D01*
G01*
X024030211Y-18971469D01*
G01*
X024097209Y-19096812D01*
G01*
X024187372Y-19206676D01*
G01*
X024187436Y-19206729D01*
G01*
X024187430Y-19206735D01*
G01*
X025009078Y-20028194D01*
G01*
X025025515Y-20195090D01*
G01*
X025082421Y-20382683D01*
G01*
X025174831Y-20555569D01*
G01*
X025299194Y-20707106D01*
G01*
X025450730Y-20831468D01*
G01*
X025623616Y-20923878D01*
G01*
X025811209Y-20980784D01*
G01*
X026006299Y-20999998D01*
G01*
X026201389Y-20980784D01*
G01*
X026388982Y-20923878D01*
G01*
X026561869Y-20831468D01*
G01*
X026713405Y-20707106D01*
G01*
X026837767Y-20555569D01*
G01*
X026930177Y-20382683D01*
G01*
X026987083Y-20195090D01*
G01*
X027006298Y-20000000D01*
G01*
X026987083Y-19804910D01*
G01*
X026930177Y-19617317D01*
G01*
X026837767Y-19444431D01*
G01*
X026713405Y-19292894D01*
G01*
X026561869Y-19168532D01*
G01*
X026388982Y-19076122D01*
G01*
X026201389Y-19019216D01*
G01*
X026034248Y-19002755D01*
G01*
X025425024Y-18393670D01*
G01*
X025425024Y-15725000D01*
G01*
X026303704Y-15725000D01*
G01*
X027206068Y-16627364D01*
G01*
X027219839Y-16644144D01*
G01*
X027329703Y-16734307D01*
G01*
X027455046Y-16801304D01*
G01*
X027591051Y-16842560D01*
G01*
X027624928Y-16845897D01*
G01*
X027758095Y-19000002D01*
G01*
X027558899Y-19000002D01*
G01*
X027558899Y-20999998D01*
G01*
X029533699Y-20999998D01*
G01*
X029533699Y-19000002D01*
G01*
X029210863Y-19000002D01*
G01*
X029114123Y-17435147D01*
G01*
X029184335Y-17442062D01*
G01*
X029325776Y-17428131D01*
G01*
X029461781Y-17386874D01*
G01*
X029587124Y-17319877D01*
G01*
X029696988Y-17229714D01*
G01*
X029787151Y-17119850D01*
G01*
X029854148Y-16994507D01*
G01*
X029895404Y-16858502D01*
G01*
X029905945Y-16751478D01*
G01*
X029908512Y-16751600D01*
G01*
X029949987Y-15881971D01*
G01*
X030165640Y-15632003D01*
G01*
X030356602Y-15632003D01*
G01*
X030356602Y-15401997D01*
G01*
X030423177Y-15277445D01*
G01*
X030464433Y-15141440D01*
G01*
X030478364Y-15000000D01*
G01*
X030464433Y-14858560D01*
G01*
X030423177Y-14722555D01*
G01*
X030356602Y-14598003D01*
G01*
X030356602Y-14367997D01*
G01*
X030101546Y-14367997D01*
G01*
X030030809Y-14330187D01*
G01*
X029894804Y-14288931D01*
G01*
X029753364Y-14275000D01*
G01*
X029611924Y-14288931D01*
G01*
X029475919Y-14330187D01*
G01*
X029405182Y-14367997D01*
G01*
X029150126Y-14367997D01*
G01*
X029150126Y-14589345D01*
G01*
X028947342Y-14824397D01*
G01*
X028916449Y-14722555D01*
G01*
X028849874Y-14598003D01*
G01*
X028849874Y-14367997D01*
G01*
X028639957Y-14367997D01*
G01*
X026477693Y-12205388D01*
G01*
X026477689Y-12205392D01*
G01*
X026477652Y-12205348D01*
G01*
X026367788Y-12115185D01*
G01*
X026242445Y-12048187D01*
G01*
X026106440Y-12006931D01*
G01*
X025965000Y-11993000D01*
G01*
X022211510Y-11993000D01*
G01*
X023634742Y-10632003D01*
G01*
X023849874Y-10632003D01*
G01*
X023849874Y-10401997D01*
G01*
X023916449Y-10277445D01*
G01*
X023957705Y-10141440D01*
G01*
X023971636Y-10000000D01*
G01*
X023971636Y-05243576D01*
G01*
X024150126Y-05422066D01*
G01*
X024150126Y-05632003D01*
G01*
X024360034Y-05632003D01*
G01*
X025603000Y-06875256D01*
G01*
X025603000Y-06947000D01*
G01*
X025616931Y-07088440D01*
G01*
X025658187Y-07224445D01*
G01*
X025725185Y-07349788D01*
G01*
X025815348Y-07459652D01*
G01*
X025925212Y-07549815D01*
G01*
X026005361Y-07592656D01*
G01*
X025904497Y-07675433D01*
G01*
X025884883Y-07699333D01*
G01*
X025883134Y-07697727D01*
G01*
X024349412Y-09367997D01*
G01*
X024150126Y-09367997D01*
G01*
X024150126Y-09598003D01*
G01*
X024083551Y-09722555D01*
G01*
X024042295Y-09858560D01*
G01*
X024028364Y-10000000D01*
G01*
X024042295Y-10141440D01*
G01*
X024083551Y-10277445D01*
G01*
X024150126Y-10401997D01*
G01*
X024150126Y-10632003D01*
G01*
X024405182Y-10632003D01*
G01*
X024475919Y-10669813D01*
G01*
X024611924Y-10711069D01*
G01*
X024753364Y-10725000D01*
G01*
X024894804Y-10711069D01*
G01*
X025030809Y-10669813D01*
G01*
X025101546Y-10632003D01*
G01*
X025356602Y-10632003D01*
G01*
X025356602Y-10414974D01*
G01*
X026291152Y-09397220D01*
G01*
X026339007Y-09455531D01*
G01*
X026448871Y-09545694D01*
G01*
X026574214Y-09612692D01*
G01*
X026639388Y-09632462D01*
G01*
X027519578Y-10512652D01*
G01*
X027629442Y-10602815D01*
G01*
X027754785Y-10669813D01*
G01*
X027890790Y-10711069D01*
G01*
X027968097Y-10718683D01*
G01*
X028358883Y-11064462D01*
G01*
X028360866Y-11062221D01*
G01*
X028436526Y-11124313D01*
G01*
X028561869Y-11191310D01*
G01*
X028697874Y-11232567D01*
G01*
X028839314Y-11246497D01*
G01*
X028980755Y-11232567D01*
G01*
X029116760Y-11191310D01*
G01*
X029242103Y-11124313D01*
G01*
X029351967Y-11034150D01*
G01*
X029442130Y-10924286D01*
G01*
X029509127Y-10798943D01*
G01*
X029541920Y-10690836D01*
G01*
X029608622Y-10711069D01*
G01*
X029750062Y-10725000D01*
G01*
X029891502Y-10711069D01*
G01*
X030027507Y-10669813D01*
G01*
X030152850Y-10602815D01*
G01*
X030156281Y-10599999D01*
G01*
X030350061Y-10599999D01*
G01*
X030350061Y-10406219D01*
G01*
X030352877Y-10402788D01*
G01*
X030419875Y-10277445D01*
G01*
X030461131Y-10141440D01*
G01*
X030475062Y-10000000D01*
G01*
X030461131Y-09858560D01*
G01*
X030419875Y-09722555D01*
G01*
X030352877Y-09597212D01*
G01*
X030350061Y-09593781D01*
G01*
X030350061Y-09400001D01*
G01*
X030175367Y-09400001D01*
G01*
X029056270Y-08280903D01*
G01*
X029043569Y-08151952D01*
G01*
X029002312Y-08015947D01*
G01*
X028935315Y-07890604D01*
G01*
X028845152Y-07780740D01*
G01*
X028735288Y-07690577D01*
G01*
X028609945Y-07623580D01*
G01*
X028473940Y-07582323D01*
G01*
X028372145Y-07572297D01*
G01*
X028372300Y-07569486D01*
G01*
X026811390Y-07483666D01*
G01*
X026840652Y-07459652D01*
G01*
X026930815Y-07349788D01*
G01*
X026997813Y-07224445D01*
G01*
X027039069Y-07088440D01*
G01*
X027053000Y-06947000D01*
G01*
X027053000Y-06575000D01*
G01*
X027039069Y-06433560D01*
G01*
X026997813Y-06297555D01*
G01*
X026930815Y-06172212D01*
G01*
X026840706Y-06062413D01*
G01*
X026840712Y-06062407D01*
G01*
X025356602Y-04577954D01*
G01*
X025356602Y-04367997D01*
G01*
X025146665Y-04367997D01*
G01*
X023166016Y-02387348D01*
G01*
X023056152Y-02297185D01*
G01*
X022930809Y-02230187D01*
G01*
X022794804Y-02188931D01*
G01*
X022655863Y-02175246D01*
G01*
X022655864Y-02175004D01*
G01*
X002700000Y-02106196D01*
G01*
X002700000Y-01950000D01*
G01*
X001850000Y-01950000D01*
G01*
X001200000Y-01950000D01*
G01*
X000550000Y-01950000D01*
G01*
X-00100000Y-01950000D01*
G01*
X-00750000Y-01950000D01*
G01*
X-01400000Y-01950000D01*
G01*
X-02050000Y-01950000D01*
G01*
X-02193706Y-01950000D01*
G01*
X-02222006Y-01897056D01*
G01*
X-02312169Y-01787192D01*
G01*
X-02422033Y-01697029D01*
G01*
X-02547376Y-01630031D01*
G01*
X-02683381Y-01588775D01*
G01*
X-02808153Y-01576486D01*
G01*
X-02808120Y-01575036D01*
G01*
X-03008299Y-01570424D01*
G01*
X-03008332Y-01571873D01*
G01*
X-03025000Y-01570231D01*
G01*
X-03166440Y-01584162D01*
G01*
X-03302445Y-01625419D01*
G01*
X-03427788Y-01692416D01*
G01*
X-03537652Y-01782579D01*
G01*
X-03627815Y-01892443D01*
G01*
X-03694813Y-02017786D01*
G01*
X-03736069Y-02153791D01*
G01*
X-03750000Y-02295231D01*
G01*
X-03736069Y-02436672D01*
G01*
X-03694813Y-02572677D01*
G01*
X-03627815Y-02698020D01*
G01*
X-03537652Y-02807884D01*
G01*
X-03427788Y-02898047D01*
G01*
X-03302445Y-02965044D01*
G01*
X-03301877Y-02965216D01*
G01*
X-02854441Y-03412652D01*
G01*
X-02744577Y-03502815D01*
G01*
X-02700000Y-03526642D01*
G01*
X-02700000Y-03850000D01*
G01*
X-02387500Y-03850000D01*
G01*
X-02387500Y-04390926D01*
G01*
X-02400000Y-04517844D01*
G01*
X-02400000Y-04929440D01*
G01*
X-02433395Y-04991917D01*
G01*
X-02483187Y-05156061D01*
G01*
X-02500000Y-05326765D01*
G01*
X-02500000Y-05773251D01*
G01*
X-02779074Y-06052324D01*
G01*
X-03314429Y-06587679D01*
G01*
X-03423246Y-06720273D01*
G01*
X-03504105Y-06871549D01*
G01*
X-03516826Y-06913485D01*
G01*
X-03525970Y-06930592D01*
G01*
X-03575051Y-07092391D01*
G01*
X-03591624Y-07260657D01*
G01*
X-03575051Y-07428922D01*
G01*
X-03525970Y-07590721D01*
G01*
X-03446266Y-07739836D01*
G01*
X-03388258Y-07810519D01*
G01*
X-03470347Y-07892608D01*
G01*
X-03484436Y-07906697D01*
G01*
X-03552434Y-07900000D01*
G01*
X-04092451Y-07900000D01*
G01*
X-04092451Y-07072000D01*
G01*
X-05774973Y-07072000D01*
G01*
X-05774973Y-08285627D01*
G01*
X-11389346Y-13900000D01*
G01*
X-16000000Y-13900000D01*
G01*
X-16214599Y-13921136D01*
G01*
X-16420952Y-13983733D01*
G01*
X-16611127Y-14085383D01*
G01*
X-16777817Y-14222183D01*
G01*
X-16914617Y-14388873D01*
G01*
X-17016267Y-14579048D01*
G01*
X-17078864Y-14785401D01*
G01*
X-17100000Y-15000000D01*
G01*
X-17078864Y-15214599D01*
G01*
X-17016267Y-15420952D01*
G01*
X-16914617Y-15611127D01*
G01*
X-16777817Y-15777817D01*
G01*
X-16611127Y-15914617D01*
G01*
X-16420952Y-16016267D01*
G01*
X-16214599Y-16078864D01*
G01*
X-16000000Y-16100000D01*
G01*
X-10934000Y-16100000D01*
G01*
X-10933712Y-16100000D01*
G01*
X-10719113Y-16078864D01*
G01*
X-10512760Y-16016267D01*
G01*
X-10322585Y-15914617D01*
G01*
X-10155895Y-15777817D01*
G01*
X-05306078Y-10928000D01*
G01*
X-04092451Y-10928000D01*
G01*
X-04092451Y-10100000D01*
G01*
X-03552434Y-10100000D01*
G01*
X-03337835Y-10078864D01*
G01*
X-03131482Y-10016267D01*
G01*
X-02941307Y-09914617D01*
G01*
X-02774617Y-09777817D01*
G01*
X-02637818Y-09611127D01*
G01*
X-02536167Y-09420952D01*
G01*
X-02473570Y-09214599D01*
G01*
X-02452434Y-09000000D01*
G01*
X-02459131Y-08932002D01*
G01*
X-02445042Y-08917913D01*
G01*
X-01316246Y-07789116D01*
G01*
X-01317062Y-07797402D01*
G01*
X-01318238Y-07797386D01*
G01*
X-01323184Y-08152864D01*
G01*
X-02296936Y-09126616D01*
G01*
X-02433735Y-09293306D01*
G01*
X-02535386Y-09483482D01*
G01*
X-02597983Y-09689834D01*
G01*
X-02619119Y-09904433D01*
G01*
X-02619119Y-17558011D01*
G01*
X-02617157Y-17577935D01*
G01*
X-02618938Y-17577967D01*
G01*
X-02602235Y-18498481D01*
G01*
X-02585533Y-19418995D01*
G01*
X-02568831Y-20339509D01*
G01*
X-02552129Y-21260023D01*
G01*
X-02535426Y-22180537D01*
G01*
X-02518724Y-23101051D01*
G01*
X-02516943Y-23101019D01*
G01*
X-02497769Y-23295694D01*
G01*
X-02435173Y-23502047D01*
G01*
X-02333522Y-23692222D01*
G01*
X-02196725Y-23858910D01*
G01*
X-01763269Y-24292369D01*
G01*
X-01701046Y-24497488D01*
G01*
X-01580914Y-24722240D01*
G01*
X-01419242Y-24919237D01*
G01*
X-01222245Y-25080909D01*
G01*
X-00997493Y-25201041D01*
G01*
X-00753622Y-25275019D01*
G01*
X-00500005Y-25299998D01*
G01*
X-00246388Y-25275019D01*
G01*
X-00002517Y-25201041D01*
G01*
X000222235Y-25080909D01*
G01*
X000419232Y-24919237D01*
G01*
X000580904Y-24722240D01*
G01*
X000701036Y-24497488D01*
G01*
X000775014Y-24253617D01*
G01*
X000799993Y-24000000D01*
G01*
X000775014Y-23746383D01*
G01*
X000701036Y-23502512D01*
G01*
X000580904Y-23277760D01*
G01*
X000419232Y-23080763D01*
G01*
X000222235Y-22919091D01*
G01*
X-00002517Y-22798959D01*
G01*
X-00207628Y-22736739D01*
G01*
X-00327140Y-22617226D01*
G01*
X-00335788Y-22140625D01*
G01*
X-00352491Y-21220111D01*
G01*
X-00369193Y-20299597D01*
G01*
X-00385895Y-19379083D01*
G01*
X-00402598Y-18458569D01*
G01*
X-00419119Y-17548031D01*
G01*
X-00419119Y-15678719D01*
G01*
X-00306147Y-15739104D01*
G01*
X-00277515Y-15747789D01*
G01*
X000852136Y-16877441D01*
G01*
X000962000Y-16967604D01*
G01*
X001087343Y-17034601D01*
G01*
X001223348Y-17075858D01*
G01*
X001364788Y-17089788D01*
G01*
X004184586Y-17089788D01*
G01*
X004188405Y-17089788D01*
G01*
X004258560Y-17111069D01*
G01*
X004400000Y-17125000D01*
G01*
X004500000Y-17115151D01*
G01*
X004500000Y-19258172D01*
G01*
X004521136Y-19472771D01*
G01*
X004583733Y-19679124D01*
G01*
X004685383Y-19869299D01*
G01*
X004822183Y-20035989D01*
G01*
X007419399Y-22633206D01*
G01*
X007419399Y-23277391D01*
G01*
X007419096Y-23277760D01*
G01*
X007298964Y-23502512D01*
G01*
X007224986Y-23746383D01*
G01*
X007200007Y-24000000D01*
G01*
X007224986Y-24253617D01*
G01*
X007298964Y-24497488D01*
G01*
X007419096Y-24722240D01*
G01*
X007580768Y-24919237D01*
G01*
X007777765Y-25080909D01*
G01*
X008002517Y-25201041D01*
G01*
X008246388Y-25275019D01*
G01*
X008500005Y-25299998D01*
G37*
D80*
G36*
X-32500000Y-28500000D02*
G01*
X-31817184Y-28432748D01*
G01*
X-31160608Y-28233578D01*
G01*
X-30555504Y-27910144D01*
G01*
X-30025126Y-27474874D01*
G01*
X-29589856Y-26944496D01*
G01*
X-29266422Y-26339392D01*
G01*
X-29067252Y-25682816D01*
G01*
X-29000000Y-25000000D01*
G01*
X-29067252Y-24317184D01*
G01*
X-29266422Y-23660608D01*
G01*
X-29589856Y-23055504D01*
G01*
X-30025126Y-22525126D01*
G01*
X-30555504Y-22089856D01*
G01*
X-31160608Y-21766422D01*
G01*
X-31817184Y-21567252D01*
G01*
X-32500000Y-21500000D01*
G01*
X-33182816Y-21567252D01*
G01*
X-33839392Y-21766422D01*
G01*
X-34444496Y-22089856D01*
G01*
X-34974874Y-22525126D01*
G01*
X-35410144Y-23055504D01*
G01*
X-35733578Y-23660608D01*
G01*
X-35932748Y-24317184D01*
G01*
X-36000000Y-25000000D01*
G01*
X-35932748Y-25682816D01*
G01*
X-35733578Y-26339392D01*
G01*
X-35410144Y-26944496D01*
G01*
X-34974874Y-27474874D01*
G01*
X-34444496Y-27910144D01*
G01*
X-33839392Y-28233578D01*
G01*
X-33182816Y-28432748D01*
G01*
X-32500000Y-28500000D01*
G37*
D80*
G36*
X032500000Y-28500000D02*
G01*
X033182816Y-28432748D01*
G01*
X033839392Y-28233578D01*
G01*
X034444496Y-27910144D01*
G01*
X034974874Y-27474874D01*
G01*
X035410144Y-26944496D01*
G01*
X035733578Y-26339392D01*
G01*
X035932748Y-25682816D01*
G01*
X036000000Y-25000000D01*
G01*
X035932748Y-24317184D01*
G01*
X035733578Y-23660608D01*
G01*
X035410144Y-23055504D01*
G01*
X034974874Y-22525126D01*
G01*
X034444496Y-22089856D01*
G01*
X033839392Y-21766422D01*
G01*
X033182816Y-21567252D01*
G01*
X032500000Y-21500000D01*
G01*
X031817184Y-21567252D01*
G01*
X031160608Y-21766422D01*
G01*
X030555504Y-22089856D01*
G01*
X030025126Y-22525126D01*
G01*
X029589856Y-23055504D01*
G01*
X029266422Y-23660608D01*
G01*
X029067252Y-24317184D01*
G01*
X029000000Y-25000000D01*
G01*
X029067252Y-25682816D01*
G01*
X029266422Y-26339392D01*
G01*
X029589856Y-26944496D01*
G01*
X030025126Y-27474874D01*
G01*
X030555504Y-27910144D01*
G01*
X031160608Y-28233578D01*
G01*
X031817184Y-28432748D01*
G01*
X032500000Y-28500000D01*
G37*
D80*
G36*
X-05499995Y-25299998D02*
G01*
X-05246378Y-25275019D01*
G01*
X-05002507Y-25201041D01*
G01*
X-04777755Y-25080909D01*
G01*
X-04580758Y-24919237D01*
G01*
X-04419086Y-24722240D01*
G01*
X-04298954Y-24497488D01*
G01*
X-04224976Y-24253617D01*
G01*
X-04199997Y-24000000D01*
G01*
X-04224976Y-23746383D01*
G01*
X-04298954Y-23502512D01*
G01*
X-04419086Y-23277760D01*
G01*
X-04580758Y-23080763D01*
G01*
X-04777755Y-22919091D01*
G01*
X-05002507Y-22798959D01*
G01*
X-05246378Y-22724981D01*
G01*
X-05499995Y-22700002D01*
G01*
X-05753612Y-22724981D01*
G01*
X-05997483Y-22798959D01*
G01*
X-06222235Y-22919091D01*
G01*
X-06419232Y-23080763D01*
G01*
X-06580904Y-23277760D01*
G01*
X-06701036Y-23502512D01*
G01*
X-06775014Y-23746383D01*
G01*
X-06799993Y-24000000D01*
G01*
X-06775014Y-24253617D01*
G01*
X-06701036Y-24497488D01*
G01*
X-06580904Y-24722240D01*
G01*
X-06419232Y-24919237D01*
G01*
X-06222235Y-25080909D01*
G01*
X-05997483Y-25201041D01*
G01*
X-05753612Y-25275019D01*
G01*
X-05499995Y-25299998D01*
G37*
D80*
G36*
X013499995Y-25299998D02*
G01*
X013753612Y-25275019D01*
G01*
X013997483Y-25201041D01*
G01*
X014222235Y-25080909D01*
G01*
X014419232Y-24919237D01*
G01*
X014580904Y-24722240D01*
G01*
X014701036Y-24497488D01*
G01*
X014775014Y-24253617D01*
G01*
X014799993Y-24000000D01*
G01*
X014775014Y-23746383D01*
G01*
X014701036Y-23502512D01*
G01*
X014580904Y-23277760D01*
G01*
X014419232Y-23080763D01*
G01*
X014222235Y-22919091D01*
G01*
X013997483Y-22798959D01*
G01*
X013753612Y-22724981D01*
G01*
X013499995Y-22700002D01*
G01*
X013246378Y-22724981D01*
G01*
X013002507Y-22798959D01*
G01*
X012777755Y-22919091D01*
G01*
X012580758Y-23080763D01*
G01*
X012419086Y-23277760D01*
G01*
X012298954Y-23502512D01*
G01*
X012224976Y-23746383D01*
G01*
X012199997Y-24000000D01*
G01*
X012224976Y-24253617D01*
G01*
X012298954Y-24497488D01*
G01*
X012419086Y-24722240D01*
G01*
X012580758Y-24919237D01*
G01*
X012777755Y-25080909D01*
G01*
X013002507Y-25201041D01*
G01*
X013246378Y-25275019D01*
G01*
X013499995Y-25299998D01*
G37*
%LPD*%
D80*
G36*
X014675707Y-12016563D02*
G01*
X014689638Y-11875123D01*
G01*
X014730894Y-11739118D01*
G01*
X014797892Y-11613775D01*
G01*
X014888055Y-11503911D01*
G01*
X014997919Y-11413748D01*
G01*
X015123261Y-11346751D01*
G01*
X015259267Y-11305494D01*
G01*
X015400707Y-11291563D01*
G01*
X015411845Y-11292660D01*
G01*
X015411861Y-11291649D01*
G01*
X020760846Y-11373952D01*
G01*
X022521636Y-09690159D01*
G01*
X022521636Y-05300222D01*
G01*
X022005891Y-04784277D01*
G01*
X021922560Y-04776069D01*
G01*
X021786555Y-04734813D01*
G01*
X021661212Y-04667815D01*
G01*
X021551348Y-04577652D01*
G01*
X021461185Y-04467788D01*
G01*
X021394187Y-04342445D01*
G01*
X021352931Y-04206440D01*
G01*
X021339000Y-04065000D01*
G01*
X021352931Y-03923560D01*
G01*
X021394187Y-03787555D01*
G01*
X021461185Y-03662212D01*
G01*
X021494998Y-03621011D01*
G01*
X003220847Y-03558002D01*
G01*
X003734407Y-06813823D01*
G01*
X003769206Y-06856225D01*
G01*
X003773932Y-06865067D01*
G01*
X003800000Y-06862500D01*
G01*
X003973143Y-06879553D01*
G01*
X004139632Y-06930057D01*
G01*
X004293069Y-07012071D01*
G01*
X004366092Y-07072000D01*
G01*
X005774973Y-07072000D01*
G01*
X005774973Y-08285627D01*
G01*
X009389346Y-11900000D01*
G01*
X014000000Y-11900000D01*
G01*
X014214599Y-11921136D01*
G01*
X014420952Y-11983733D01*
G01*
X014611127Y-12085383D01*
G01*
X014688761Y-12149096D01*
G01*
X014675707Y-12016563D01*
G37*
D80*
G36*
X-03427788Y003818542D02*
G01*
X-03302445Y003885539D01*
G01*
X-03166440Y003926795D01*
G01*
X-03025000Y003940726D01*
G01*
X-02896753Y003928094D01*
G01*
X-02896544Y003929255D01*
G01*
X-02784733Y003909126D01*
G01*
X-02784942Y003907965D01*
G01*
X-02771749Y003906666D01*
G01*
X-02635744Y003865410D01*
G01*
X-02606914Y003850000D01*
G01*
X-02350000Y003850000D01*
G01*
X-02350000Y004155109D01*
G01*
X-02416179Y004209421D01*
G01*
X-02506342Y004319285D01*
G01*
X-02573339Y004444628D01*
G01*
X-02614596Y004580633D01*
G01*
X-02628527Y004722074D01*
G01*
X-02614596Y004863514D01*
G01*
X-02573339Y004999519D01*
G01*
X-02506342Y005124862D01*
G01*
X-02416179Y005234726D01*
G01*
X-02306315Y005324889D01*
G01*
X-02180972Y005391886D01*
G01*
X-02044967Y005433143D01*
G01*
X-01903527Y005447074D01*
G01*
X-01796208Y005436504D01*
G01*
X-01795829Y005439030D01*
G01*
X-01610543Y005411197D01*
G01*
X-01610922Y005408671D01*
G01*
X-01576800Y005405310D01*
G01*
X-01440795Y005364054D01*
G01*
X-01315452Y005297056D01*
G01*
X-01205588Y005206893D01*
G01*
X-01115425Y005097029D01*
G01*
X-01048428Y004971686D01*
G01*
X-01039341Y004941731D01*
G01*
X-01022185Y004920826D01*
G01*
X-01008620Y004895447D01*
G01*
X-00962396Y004900000D01*
G01*
X-00922921Y004896112D01*
G01*
X-00904825Y005079845D01*
G01*
X-00845074Y005276818D01*
G01*
X-00748043Y005458349D01*
G01*
X-00671464Y005551661D01*
G01*
X-00660455Y005690899D01*
G01*
X-01365010Y006809376D01*
G01*
X-01455634Y006900000D01*
G01*
X-02899998Y006900000D01*
G01*
X-02899998Y006500000D01*
G01*
X-02899998Y006400002D01*
G01*
X-02921134Y006185403D01*
G01*
X-02983731Y005979050D01*
G01*
X-03085381Y005788875D01*
G01*
X-03094996Y005777159D01*
G01*
X-03094996Y005624995D01*
G01*
X-03219875Y005624995D01*
G01*
X-03222181Y005622185D01*
G01*
X-03300000Y005544366D01*
G01*
X-03300000Y004400000D01*
G01*
X-03321136Y004185401D01*
G01*
X-03383733Y003979048D01*
G01*
X-03485383Y003788873D01*
G01*
X-03529622Y003734968D01*
G01*
X-03427788Y003818542D01*
G37*
D43*
X-28000000Y012499995D03*
D43*
X-28000000Y007500005D03*
D45*
X-19000000Y008545000D03*
D45*
X-19000000Y013455000D03*
D47*
X-12974979Y009565027D03*
D47*
X-12324993Y009565027D03*
D47*
X-11675007Y009565027D03*
D47*
X-11025021Y009565027D03*
D47*
X-11025021Y012434973D03*
D47*
X-11675007Y012434973D03*
D47*
X-12324993Y012434973D03*
D47*
X-12974979Y012434973D03*
D49*
X-11999873Y011557403D03*
D51*
X-24554986Y000000000D03*
D51*
X-19445014Y000000000D03*
D51*
X-14554986Y000000000D03*
D51*
X-09445014Y000000000D03*
D53*
X-25639324Y-10000000D03*
D53*
X-30360676Y-10000000D03*
D55*
X-18246636Y-10000000D03*
D55*
X-19753364Y-10000000D03*
D57*
X-13251005Y-09999873D03*
D57*
X-14748995Y-10000127D03*
D59*
X-02275000Y-02900000D03*
D59*
X-02275000Y002900000D03*
D59*
X-01625000Y-02900000D03*
D59*
X-01625000Y002900000D03*
D59*
X-00975000Y-02900000D03*
D59*
X-00975000Y002900000D03*
D59*
X-00325000Y-02900000D03*
D59*
X-00325000Y002900000D03*
D59*
X000325000Y-02900000D03*
D59*
X000325000Y002900000D03*
D59*
X000975000Y-02900000D03*
D59*
X000975000Y002900000D03*
D59*
X001625000Y-02900000D03*
D59*
X001625000Y002900000D03*
D59*
X002275000Y-02900000D03*
D59*
X002275000Y002900000D03*
D61*
X000000000Y000000000D03*
D62*
X000000000Y000000000D03*
D63*
X000500126Y000499872D03*
D63*
X-00499872Y000499872D03*
D63*
X-00499872Y-00500126D03*
D63*
X000500126Y-00500126D03*
D64*
X-11066288Y-09000000D03*
D64*
X-04933712Y-09000000D03*
D64*
X011066288Y-09000000D03*
D64*
X004933712Y-09000000D03*
D43*
X-05499995Y-24000000D03*
D43*
X-00500005Y-24000000D03*
D43*
X008500005Y-24000000D03*
D43*
X013499995Y-24000000D03*
D66*
X-02000002Y006500000D03*
D66*
X-03999998Y006500000D03*
D66*
X003999998Y007000000D03*
D66*
X002000002Y007000000D03*
D68*
X-06200024Y001500000D03*
D68*
X-04799976Y001500000D03*
D68*
X006200024Y003000000D03*
D68*
X004799976Y003000000D03*
D70*
X026533701Y016000000D03*
D70*
X023993701Y016000000D03*
D71*
X021453701Y016000000D03*
D70*
X026533701Y009000000D03*
D70*
X023993701Y009000000D03*
D71*
X021453701Y009000000D03*
D70*
X026533701Y002000000D03*
D70*
X023993701Y002000000D03*
D71*
X021453701Y002000000D03*
D55*
X016246636Y017000000D03*
D55*
X017753364Y017000000D03*
D55*
X012753364Y017000000D03*
D55*
X011246636Y017000000D03*
D55*
X016246636Y013000000D03*
D55*
X017753364Y013000000D03*
D55*
X012753364Y013000000D03*
D55*
X011246636Y013000000D03*
D55*
X016246636Y009000000D03*
D55*
X017753364Y009000000D03*
D55*
X012753364Y009000000D03*
D55*
X011246636Y009000000D03*
D55*
X016246636Y005000000D03*
D55*
X017753364Y005000000D03*
D55*
X012753364Y005000000D03*
D55*
X011246636Y005000000D03*
D55*
X016246636Y001000000D03*
D55*
X017753364Y001000000D03*
D55*
X012753364Y001000000D03*
D55*
X011246636Y001000000D03*
D72*
X007992497Y010025148D03*
D72*
X007992497Y010675134D03*
D72*
X007992497Y011325120D03*
D72*
X007992497Y011975106D03*
D74*
X003992505Y011975360D03*
D74*
X003992505Y011325120D03*
D74*
X003992505Y010674880D03*
D74*
X003992505Y010024640D03*
D68*
X001700024Y011000000D03*
D68*
X000299976Y011000000D03*
D55*
X024753364Y-05000000D03*
D55*
X023246636Y-05000000D03*
D55*
X-06246636Y017000000D03*
D55*
X-07753364Y017000000D03*
D57*
X-06251005Y021000127D03*
D57*
X-07748995Y020999873D03*
D55*
X-01246636Y017000000D03*
D55*
X-02753364Y017000000D03*
D57*
X-01251005Y021000127D03*
D57*
X-02748995Y020999873D03*
D55*
X003753364Y017000000D03*
D55*
X002246636Y017000000D03*
D57*
X003748995Y021000127D03*
D57*
X002251005Y020999873D03*
D55*
X024753364Y-10000000D03*
D55*
X023246636Y-10000000D03*
D57*
X028249938Y-10000000D03*
D57*
X029750062Y-10000000D03*
D55*
X-06753364Y010000000D03*
D55*
X-05246636Y010000000D03*
D55*
X-09753364Y007000000D03*
D55*
X-08246636Y007000000D03*
D55*
X029753364Y-15000000D03*
D55*
X028246636Y-15000000D03*
D68*
X023299976Y-15000000D03*
D68*
X024700024Y-15000000D03*
D70*
X023466299Y-20000000D03*
D70*
X026006299Y-20000000D03*
D71*
X028546299Y-20000000D03*
D76*
X-16000000Y-15000000D03*
D76*
X014000000Y-13000000D03*
D76*
X-08000000Y-15000000D03*
D76*
X-20000000Y-07000000D03*
D76*
X000000000Y-15000000D03*
D76*
X004000000Y-15000000D03*
D76*
X008000000Y-15000000D03*
D78*
X-00700000Y005900000D03*
D78*
X009000000Y012700000D03*
D78*
X-12400000Y-08400000D03*
D78*
X-12400000Y-09600000D03*
D78*
X012400000Y-08400000D03*
D78*
X012400000Y-09600000D03*
D10*
X-02000002Y006500000D02*
X-00700000Y005900000D01*
D11*
X-28000000Y012499995D02*
X-24045005Y008545000D01*
D11*
X-24045005Y008545000D02*
X-24045000Y008545000D01*
D11*
X-24045000Y008545000D02*
X-19000000Y008545000D01*
D12*
X-11025021Y012434973D02*
X-11025027Y012434973D01*
D12*
X-11025027Y012434973D02*
X-11065615Y012434973D01*
D12*
X-11065615Y012434973D02*
X-11106241Y012434973D01*
D12*
X-11106241Y012434973D02*
X-11146867Y012434973D01*
D12*
X-11146867Y012434973D02*
X-11187493Y012434973D01*
D12*
X-11187493Y012434973D02*
X-11227522Y012434973D01*
D11*
X-11227522Y012434973D02*
X-11227524Y012434973D01*
D11*
X-11227524Y012434973D02*
X-11228119Y012434973D01*
D11*
X-11228119Y012434973D02*
X-11268746Y012434973D01*
D11*
X-11268746Y012434973D02*
X-11309372Y012434973D01*
D11*
X-11309372Y012434973D02*
X-11349998Y012434973D01*
D11*
X-11349998Y012434973D02*
X-11390624Y012434973D01*
D11*
X-11390624Y012434973D02*
X-11431250Y012434973D01*
D11*
X-11431250Y012434973D02*
X-11471876Y012434973D01*
D12*
X-11471876Y012434973D02*
X-11472506Y012434973D01*
D12*
X-11472506Y012434973D02*
X-11512502Y012434973D01*
D12*
X-11512502Y012434973D02*
X-11518193Y012434973D01*
D12*
X-11518193Y012434973D02*
X-11553129Y012434973D01*
D12*
X-11553129Y012434973D02*
X-11593755Y012434973D01*
D12*
X-11593755Y012434973D02*
X-11634381Y012434973D01*
D13*
X-11634381Y012434973D02*
X-11675007Y012434973D01*
D13*
X-11675007Y012434973D02*
X-11675007Y011939979D01*
D13*
X-11675007Y011939979D02*
X-11675007Y011939977D01*
D11*
X-11675007Y011939977D02*
X-11675007Y012419897D01*
D11*
X-11675007Y012419897D02*
X-11675007Y012419899D01*
D13*
X-11675007Y012419899D02*
X-11675007Y011939977D01*
D11*
X-11675007Y011939977D02*
X-11675007Y011939979D01*
D13*
X-11675007Y011939979D02*
X-11675007Y012419899D01*
D13*
X-11675007Y012419899D02*
X-11675007Y012419897D01*
D11*
X-11675007Y012419897D02*
X-11675007Y011882269D01*
D11*
X-11675007Y011882269D02*
X-11999873Y011557403D01*
D13*
X-11675007Y012434973D02*
X-11715632Y012434973D01*
D12*
X-11715632Y012434973D02*
X-11756258Y012434973D01*
D12*
X-11756258Y012434973D02*
X-11796883Y012434973D01*
D12*
X-11796883Y012434973D02*
X-11831807Y012434973D01*
D12*
X-11831807Y012434973D02*
X-11837508Y012434973D01*
D12*
X-11837508Y012434973D02*
X-11877509Y012434973D01*
D12*
X-11877509Y012434973D02*
X-11878133Y012434973D01*
D11*
X-11878133Y012434973D02*
X-11918759Y012434973D01*
D11*
X-11918759Y012434973D02*
X-11959384Y012434973D01*
D11*
X-11959384Y012434973D02*
X-12000009Y012434973D01*
D11*
X-12000009Y012434973D02*
X-12040634Y012434973D01*
D11*
X-12040634Y012434973D02*
X-12081260Y012434973D01*
D11*
X-12081260Y012434973D02*
X-12121885Y012434973D01*
D11*
X-12121885Y012434973D02*
X-12122491Y012434973D01*
D11*
X-12122491Y012434973D02*
X-12122492Y012434973D01*
D12*
X-12122492Y012434973D02*
X-12162510Y012434973D01*
D12*
X-12162510Y012434973D02*
X-12203135Y012434973D01*
D12*
X-12203135Y012434973D02*
X-12243761Y012434973D01*
D12*
X-12243761Y012434973D02*
X-12284386Y012434973D01*
D12*
X-12284386Y012434973D02*
X-12324973Y012434973D01*
D12*
X-12324973Y012434973D02*
X-12324993Y012434973D01*
D13*
X-12324993Y012434973D02*
X-12365619Y012434973D01*
D12*
X-12365619Y012434973D02*
X-12406245Y012434973D01*
D12*
X-12406245Y012434973D02*
X-12446871Y012434973D01*
D12*
X-12446871Y012434973D02*
X-12481807Y012434973D01*
D12*
X-12481807Y012434973D02*
X-12487498Y012434973D01*
D12*
X-12487498Y012434973D02*
X-12527495Y012434973D01*
D12*
X-12527495Y012434973D02*
X-12528124Y012434973D01*
D11*
X-12528124Y012434973D02*
X-12568750Y012434973D01*
D11*
X-12568750Y012434973D02*
X-12609376Y012434973D01*
D11*
X-12609376Y012434973D02*
X-12650002Y012434973D01*
D11*
X-12650002Y012434973D02*
X-12690628Y012434973D01*
D11*
X-12690628Y012434973D02*
X-12731254Y012434973D01*
D11*
X-12731254Y012434973D02*
X-12771881Y012434973D01*
D11*
X-12771881Y012434973D02*
X-12772477Y012434973D01*
D11*
X-12772477Y012434973D02*
X-12772478Y012434973D01*
D12*
X-12772478Y012434973D02*
X-12812507Y012434973D01*
D12*
X-12812507Y012434973D02*
X-12853133Y012434973D01*
D12*
X-12853133Y012434973D02*
X-12893759Y012434973D01*
D12*
X-12893759Y012434973D02*
X-12934385Y012434973D01*
D12*
X-12934385Y012434973D02*
X-12974973Y012434973D01*
D12*
X-12974973Y012434973D02*
X-12974979Y012434973D01*
D11*
X-19000000Y013455000D02*
X-13995006Y013455000D01*
D11*
X-13995006Y013455000D02*
X-13177481Y012637475D01*
D11*
X-13177481Y012637475D02*
X-13177480Y012637474D01*
D13*
X-13177480Y012637474D02*
X-12974979Y012434973D01*
D12*
X-12974979Y009565027D02*
X-12974973Y009565027D01*
D12*
X-12974973Y009565027D02*
X-12934385Y009565027D01*
D12*
X-12934385Y009565027D02*
X-12893759Y009565027D01*
D12*
X-12893759Y009565027D02*
X-12853133Y009565027D01*
D12*
X-12853133Y009565027D02*
X-12812507Y009565027D01*
D12*
X-12812507Y009565027D02*
X-12772478Y009565027D01*
D11*
X-12772478Y009565027D02*
X-12772477Y009565027D01*
D11*
X-12772477Y009565027D02*
X-12771881Y009565027D01*
D11*
X-12771881Y009565027D02*
X-12731254Y009565027D01*
D11*
X-12731254Y009565027D02*
X-12690628Y009565027D01*
D11*
X-12690628Y009565027D02*
X-12650002Y009565027D01*
D11*
X-12650002Y009565027D02*
X-12609376Y009565027D01*
D11*
X-12609376Y009565027D02*
X-12568750Y009565027D01*
D11*
X-12568750Y009565027D02*
X-12528124Y009565027D01*
D12*
X-12528124Y009565027D02*
X-12527495Y009565027D01*
D12*
X-12527495Y009565027D02*
X-12487498Y009565027D01*
D12*
X-12487498Y009565027D02*
X-12481807Y009565027D01*
D12*
X-12481807Y009565027D02*
X-12446871Y009565027D01*
D12*
X-12446871Y009565027D02*
X-12406245Y009565027D01*
D12*
X-12406245Y009565027D02*
X-12365619Y009565027D01*
D13*
X-12365619Y009565027D02*
X-12324993Y009565027D01*
D14*
X-12324993Y009565027D02*
X-12324973Y009565027D01*
D14*
X-12324973Y009565027D02*
X-11675007Y009565027D01*
D11*
X002000002Y007000000D02*
X002000002Y005500000D01*
D11*
X002000002Y005500000D02*
X003250000Y005500000D01*
D11*
X003250000Y005500000D02*
X003750000Y005500000D01*
D15*
X003750000Y005500000D02*
X004000000Y005500000D01*
D16*
X004000000Y005500000D02*
X004250000Y005750000D01*
D17*
X004250000Y005750000D02*
X004500000Y005750000D01*
D17*
X004500000Y005750000D02*
X005095000Y005946925D01*
D11*
X005946916Y003974999D02*
X006200024Y003721891D01*
D11*
X006200024Y003721891D02*
X006200024Y003450000D01*
D11*
X006200024Y003450000D02*
X006200024Y003449998D01*
D18*
X006200024Y003449998D02*
X006200024Y003000000D01*
D19*
X000325000Y002900000D02*
X000375000Y003875000D01*
D19*
X000375000Y003875000D02*
X000125000Y004125000D01*
D20*
X000125000Y004125000D02*
X000125000Y004375000D01*
D21*
X000125000Y004375000D02*
X000125000Y004625000D01*
D22*
X000125000Y004625000D02*
X000125000Y004875000D01*
D23*
X000125000Y004875000D02*
X000750001Y005583333D01*
D11*
X000750001Y005583333D02*
X000750001Y005749999D01*
D11*
X000750001Y005749999D02*
X002000002Y007000000D01*
D24*
X000325000Y002900000D02*
X000290385Y003515385D01*
D24*
X000290385Y003515385D02*
X000290385Y003925641D01*
D19*
X000290385Y003925641D02*
X000338536Y004182221D01*
D19*
X000338536Y004182221D02*
X000341655Y004284616D01*
D19*
X000341655Y004284616D02*
X000341667Y004387179D01*
D19*
X000341667Y004387179D02*
X000341667Y004489744D01*
D25*
X000341667Y004489744D02*
X000341667Y004592308D01*
D14*
X000341667Y004592308D02*
X000341667Y004694872D01*
D26*
X000341667Y004694872D02*
X000341667Y004797436D01*
D16*
X000341667Y004797436D02*
X000342830Y004900000D01*
D15*
X000342830Y004900000D02*
X000387156Y005460640D01*
D27*
X000387156Y005460640D02*
X000431482Y006021280D01*
D11*
X000431482Y006021280D02*
X-00500000Y007500000D01*
D11*
X-00500000Y007500000D02*
X-01000000Y008000000D01*
D11*
X-01000000Y008000000D02*
X-03000000Y008000000D01*
D11*
X-03000000Y008000000D02*
X-03999998Y008000000D01*
D11*
X-03999998Y008000000D02*
X-03999998Y006500000D01*
D14*
X-11675007Y009565027D02*
X-12000000Y009500000D01*
D14*
X-12000000Y009500000D02*
X-12000000Y008750000D01*
D11*
X-12000000Y008750000D02*
X-12000000Y008250000D01*
D11*
X-12000000Y008250000D02*
X-11500000Y008250000D01*
D11*
X-11500000Y008250000D02*
X-08399000Y008399000D01*
D11*
X-06405000Y008368000D02*
X-05867998Y008368000D01*
D11*
X-05867998Y008368000D02*
X-05245331Y007745333D01*
D11*
X-05245331Y007745333D02*
X-04622665Y007122667D01*
D11*
X-04622665Y007122667D02*
X-03999998Y006500000D01*
D11*
X-09445014Y000000000D02*
X-09600000Y000000000D01*
D11*
X-09600000Y000000000D02*
X-09200000Y000400000D01*
D11*
X-09200000Y000400000D02*
X-09200000Y000800000D01*
D11*
X-09200000Y000800000D02*
X-06800000Y003200000D01*
D11*
X-06800000Y003200000D02*
X-06400000Y003200000D01*
D11*
X-06400000Y003200000D02*
X-06000000Y003600000D01*
D11*
X-06000000Y003600000D02*
X-05200000Y003600000D01*
D11*
X-05200000Y003600000D02*
X-04400000Y004400000D01*
D11*
X-04400000Y004400000D02*
X-04400000Y006000000D01*
D11*
X-04400000Y006000000D02*
X-03999998Y006400002D01*
D11*
X-03999998Y006400002D02*
X-03999998Y006500000D01*
D11*
X-19445014Y000000000D02*
X-19059585Y000490003D01*
D11*
X-19059585Y000490003D02*
X-17500000Y001250000D01*
D11*
X-17500000Y001250000D02*
X-17550000Y001200000D01*
D11*
X-17550000Y001200000D02*
X-17600000Y001200000D01*
D11*
X-17600000Y001200000D02*
X-17200000Y001600000D01*
D11*
X-17200000Y001600000D02*
X-12400000Y001600000D01*
D11*
X-12400000Y001600000D02*
X-10800000Y000000000D01*
D11*
X-10800000Y000000000D02*
X-09445014Y000000000D01*
D11*
X-19445014Y000000000D02*
X-20000000Y-00554986D01*
D11*
X-20000000Y-00554986D02*
X-20000000Y-07000000D01*
D28*
X-19753364Y-10000000D02*
X-20000000Y-09753364D01*
D28*
X-20000000Y-09753364D02*
X-20000000Y-09567998D01*
D11*
X-20000000Y-09567998D02*
X-20000000Y-09567996D01*
D11*
X-20000000Y-09567996D02*
X-20000000Y-07600001D01*
D11*
X-20000000Y-07600001D02*
X-20000000Y-07599999D01*
D11*
X-20000000Y-07599999D02*
X-20000000Y-07000000D01*
D11*
X-30360676Y-10000000D02*
X-29712696Y-10750600D01*
D11*
X-29712696Y-10750600D02*
X-29064716Y-11501201D01*
D11*
X-29064716Y-11501201D02*
X-29064716Y-12251201D01*
D11*
X-29064716Y-12251201D02*
X-21048960Y-12251201D01*
D11*
X-21048960Y-12251201D02*
X-21048960Y-11501201D01*
D11*
X-21048960Y-11501201D02*
X-20401162Y-10750600D01*
D11*
X-20401162Y-10750600D02*
X-20126201Y-10432004D01*
D11*
X-20126201Y-10432004D02*
X-20126199Y-10432002D01*
D28*
X-20126199Y-10432002D02*
X-19753364Y-10000000D01*
D19*
X-07753364Y017000000D02*
X-05246636Y014493636D01*
D19*
X-05246636Y014493636D02*
X-05246636Y010000000D01*
D19*
X000299976Y011000000D02*
X-04247000Y011000000D01*
D19*
X-04247000Y011000000D02*
X-05246636Y010000000D01*
D19*
X003992505Y010024640D02*
X003680244Y009299640D01*
D19*
X000812515Y011644833D02*
X000299976Y011000000D01*
D19*
X006041000Y013681000D02*
X006180556Y011740176D01*
D19*
X006180556Y011740176D02*
X004364879Y009924499D01*
D19*
X004364879Y009924499D02*
X004032056Y010064056D01*
D19*
X004032056Y010064056D02*
X003992505Y010024640D01*
D19*
X022064000Y-04065000D02*
X022312000Y-04065000D01*
D19*
X022312000Y-04065000D02*
X023246636Y-05000000D01*
D19*
X023246636Y-05000000D02*
X023246636Y-05000364D01*
D19*
X023246636Y-05000364D02*
X023246636Y-10000000D01*
D19*
X023246636Y-10000000D02*
X021047009Y-12103441D01*
D19*
X021047009Y-12103441D02*
X015400707Y-12016563D01*
D19*
X004400000Y-16400000D02*
X004364788Y-16364788D01*
D19*
X004364788Y-16364788D02*
X004184586Y-16364788D01*
D19*
X004184586Y-16364788D02*
X001364788Y-16364788D01*
D19*
X001364788Y-16364788D02*
X000000000Y-15000000D01*
D20*
X-01625000Y-02900000D02*
X-01625000Y-03708922D01*
D20*
X-01625000Y-03708922D02*
X-01625000Y-04517844D01*
D29*
X-01625000Y-04517844D02*
X-01625000Y-05326765D01*
D21*
X-01625000Y-05326765D02*
X-01625000Y-06135687D01*
D21*
X-01625000Y-06135687D02*
X-02160355Y-06671042D01*
D21*
X-02160355Y-06671042D02*
X-02695710Y-07206397D01*
D30*
X-02695710Y-07206397D02*
X-02695710Y-07227243D01*
D30*
X-02695710Y-07227243D02*
X-02729124Y-07260657D01*
D20*
X-00325000Y-02900000D02*
X-00338666Y-03882051D01*
D20*
X-00338666Y-03882051D02*
X-00352331Y-04864103D01*
D19*
X-00352331Y-04864103D02*
X-00365997Y-05846154D01*
D19*
X-00365997Y-05846154D02*
X-00379662Y-06828205D01*
D19*
X-00379662Y-06828205D02*
X-00393328Y-07810256D01*
D31*
X-00393328Y-07810256D02*
X-00406993Y-08792308D01*
D11*
X-00406993Y-08792308D02*
X-01519119Y-09904433D01*
D11*
X-01519119Y-09904433D02*
X-01519119Y-17558011D01*
D11*
X-01519119Y-17558011D02*
X-01502416Y-18478525D01*
D11*
X-01502416Y-18478525D02*
X-01485714Y-19399039D01*
D11*
X-01485714Y-19399039D02*
X-01469012Y-20319553D01*
D11*
X-01469012Y-20319553D02*
X-01452310Y-21240067D01*
D11*
X-01452310Y-21240067D02*
X-01435607Y-22160581D01*
D11*
X-01435607Y-22160581D02*
X-01418905Y-23081095D01*
D11*
X-01418905Y-23081095D02*
X-00959455Y-23540547D01*
D11*
X-00959455Y-23540547D02*
X-00500005Y-24000000D01*
D24*
X001625000Y-02900000D02*
X001659615Y-03105128D01*
D24*
X001659615Y-03105128D02*
X001659615Y-03515385D01*
D24*
X001659615Y-03515385D02*
X001660734Y-03925415D01*
D19*
X001660734Y-03925415D02*
X001714335Y-04181424D01*
D19*
X001714335Y-04181424D02*
X001711406Y-04284628D01*
D19*
X001711406Y-04284628D02*
X001710897Y-04387179D01*
D19*
X001710897Y-04387179D02*
X001710897Y-04489744D01*
D24*
X001710897Y-04489744D02*
X001710897Y-04592308D01*
D29*
X001710897Y-04592308D02*
X001710897Y-04694872D01*
D32*
X001710897Y-04694872D02*
X001710897Y-04797436D01*
D21*
X001710897Y-04797436D02*
X001710897Y-04900000D01*
D33*
X001710897Y-04900000D02*
X001831614Y-04900000D01*
D34*
X001831614Y-04900000D02*
X001775182Y-05496875D01*
D23*
X001775182Y-05496875D02*
X001718750Y-06093750D01*
D27*
X001718750Y-06093750D02*
X001718750Y-07031250D01*
D11*
X001718750Y-07031250D02*
X001718750Y-07318750D01*
D35*
X001718750Y-07318750D02*
X002800000Y-08400000D01*
D35*
X002800000Y-08400000D02*
X002800000Y-10800000D01*
D35*
X002800000Y-10800000D02*
X005600000Y-13600000D01*
D11*
X005600000Y-13600000D02*
X005600000Y-19258172D01*
D11*
X005600000Y-19258172D02*
X008519399Y-22177571D01*
D11*
X008519399Y-22177571D02*
X008519399Y-23980606D01*
D11*
X008519399Y-23980606D02*
X008500005Y-24000000D01*
D20*
X000325000Y-02900000D02*
X000325000Y-03879363D01*
D20*
X000325000Y-03879363D02*
X000325000Y-04858725D01*
D36*
X000325000Y-04858725D02*
X000530892Y-05064617D01*
D30*
X000530892Y-05064617D02*
X000530892Y-05148892D01*
D37*
X000530892Y-05148892D02*
X000594000Y-05212000D01*
D25*
X-00975000Y-02900000D02*
X-00950380Y-03755628D01*
D25*
X-00950380Y-03755628D02*
X-00925760Y-04611256D01*
D25*
X-00925760Y-04611256D02*
X-00901140Y-05466885D01*
D19*
X-00901140Y-05466885D02*
X-00901140Y-06348706D01*
D19*
X-00901140Y-06348706D02*
X-02957695Y-08405261D01*
D19*
X-02957695Y-08405261D02*
X-03552434Y-09000000D01*
D11*
X-03552434Y-09000000D02*
X-04933712Y-09000000D01*
D11*
X-04933712Y-09000000D02*
X-10933712Y-15000000D01*
D11*
X-10933712Y-15000000D02*
X-10934000Y-15000000D01*
D11*
X-10934000Y-15000000D02*
X-16000000Y-15000000D01*
D10*
X000975000Y-02900000D02*
X000987500Y-03450000D01*
D10*
X000987500Y-03450000D02*
X001000000Y-04000000D01*
D10*
X001000000Y-04000000D02*
X001100000Y-04200000D01*
D38*
X003800000Y-07750000D02*
X003846000Y-07912000D01*
D38*
X003846000Y-07912000D02*
X004389856Y-08456000D01*
D27*
X004389856Y-08456000D02*
X004933712Y-09000000D01*
D11*
X004933712Y-09000000D02*
X008933712Y-13000000D01*
D11*
X008933712Y-13000000D02*
X008934000Y-13000000D01*
D11*
X008934000Y-13000000D02*
X014000000Y-13000000D01*
D19*
X016246636Y001000000D02*
X015539741Y000162997D01*
D19*
X015539741Y000162997D02*
X011953531Y000162997D01*
D19*
X011953531Y000162997D02*
X011246636Y001000000D01*
D19*
X-02275000Y-02900000D02*
X-02341788Y-02900000D01*
D19*
X-02341788Y-02900000D02*
X-02824821Y-02416967D01*
D19*
X-02824821Y-02416967D02*
X-02824821Y-02299844D01*
D19*
X-02824821Y-02299844D02*
X-03025000Y-02295231D01*
D19*
X006807000Y-00637000D02*
X009610000Y-00637000D01*
D19*
X009610000Y-00637000D02*
X011246636Y001000000D01*
D19*
X028249938Y-10000000D02*
X028839314Y-10521497D01*
D19*
X028333678Y-16560664D02*
X028546299Y-20000000D01*
D19*
X024753364Y-05000000D02*
X026328000Y-06575000D01*
D19*
X026328000Y-06575000D02*
X026328000Y-06947000D01*
D19*
X026851659Y-08942879D02*
X026948807Y-08845730D01*
D19*
X026948807Y-08845730D02*
X026948807Y-08916576D01*
D19*
X026948807Y-08916576D02*
X028032231Y-10000000D01*
D19*
X028032231Y-10000000D02*
X028249938Y-10000000D01*
D19*
X002275000Y-02900000D02*
X002440613Y-03264666D01*
D19*
X002440613Y-03264666D02*
X003042729Y-07081896D01*
D19*
X003042729Y-07081896D02*
X003042729Y-07121729D01*
D19*
X003042729Y-07121729D02*
X003166391Y-07259013D01*
D19*
X003728778Y-13724604D02*
X003794000Y-14794000D01*
D19*
X003794000Y-14794000D02*
X004000000Y-15000000D01*
D19*
X002275000Y-02900000D02*
X002396332Y-02830154D01*
D19*
X002396332Y-02830154D02*
X022653364Y-02900000D01*
D19*
X022653364Y-02900000D02*
X024753364Y-05000000D01*
D19*
X-18246636Y-10000000D02*
X-17667773Y-09195128D01*
D19*
X-17667773Y-09195128D02*
X-14010785Y-09195128D01*
D19*
X-14010785Y-09195128D02*
X-13829740Y-09195128D01*
D19*
X-13829740Y-09195128D02*
X-13251005Y-09999873D01*
D19*
X016246636Y017000000D02*
X015539741Y017837003D01*
D19*
X015539741Y017837003D02*
X011953531Y017837003D01*
D19*
X011953531Y017837003D02*
X011246636Y017000000D01*
D19*
X011246636Y017000000D02*
X011246636Y016446636D01*
D19*
X011246636Y016446636D02*
X010047145Y015247145D01*
D19*
X010047145Y015247145D02*
X010000000Y015200000D01*
D19*
X009516623Y010612377D02*
X008860000Y010025000D01*
D19*
X008860000Y010025000D02*
X007992497Y010025148D01*
D19*
X-02275000Y002900000D02*
X-02644174Y002900000D01*
D19*
X-02644174Y002900000D02*
X-02913190Y003169016D01*
D19*
X-02913190Y003169016D02*
X-02913190Y003195597D01*
D19*
X-02913190Y003195597D02*
X-03025000Y003215726D01*
D19*
X006173000Y007298000D02*
X006173000Y008206000D01*
D19*
X006173000Y008206000D02*
X007992497Y010025148D01*
D19*
X016246636Y013000000D02*
X015551572Y013837003D01*
D19*
X015551572Y013837003D02*
X011958231Y013837003D01*
D19*
X011958231Y013837003D02*
X011941700Y013837003D01*
D19*
X011941700Y013837003D02*
X011246636Y013000000D01*
D19*
X011246636Y013000000D02*
X008793395Y010805849D01*
D19*
X008793395Y010805849D02*
X007992497Y010675134D01*
D19*
X-01625000Y002900000D02*
X-01625000Y004518038D01*
D19*
X-01625000Y004518038D02*
X-01718241Y004611278D01*
D19*
X-01718241Y004611278D02*
X-01718241Y004694241D01*
D19*
X-01718241Y004694241D02*
X-01903527Y004722074D01*
D19*
X006400000Y011000000D02*
X006725000Y010675000D01*
D19*
X006725000Y010675000D02*
X007992497Y010675134D01*
D19*
X016246636Y009000000D02*
X015539741Y008162997D01*
D19*
X015539741Y008162997D02*
X011953531Y008162997D01*
D19*
X011953531Y008162997D02*
X011246636Y009000000D01*
D19*
X011246636Y009000000D02*
X009264825Y009000000D01*
D19*
X009264825Y009000000D02*
X009252034Y008987209D01*
D19*
X009252034Y008987209D02*
X009048209Y008987209D01*
D19*
X009048209Y008987209D02*
X009046000Y008985000D01*
D19*
X003216730Y012482508D02*
X003654246Y012313754D01*
D19*
X003654246Y012313754D02*
X003992505Y011975360D01*
D19*
X002275000Y002900000D02*
X002275000Y003881758D01*
D19*
X002275000Y003881758D02*
X002287828Y003894586D01*
D19*
X002287828Y003894586D02*
X002287828Y003903828D01*
D19*
X002287828Y003903828D02*
X002575644Y004169522D01*
D19*
X016246636Y005000000D02*
X015571659Y005837003D01*
D19*
X015571659Y005837003D02*
X011966551Y005837003D01*
D19*
X011966551Y005837003D02*
X011921613Y005837003D01*
D19*
X011921613Y005837003D02*
X011246636Y005000000D01*
D19*
X001625000Y002900000D02*
X001625000Y004104242D01*
D19*
X001625000Y004104242D02*
X001834061Y004313304D01*
D19*
X001834061Y004313304D02*
X001834061Y004356061D01*
D19*
X001834061Y004356061D02*
X001888000Y004410000D01*
D19*
X002572938Y012840924D02*
X002417740Y012435156D01*
D19*
X002417740Y012435156D02*
X003472940Y011373792D01*
D19*
X003472940Y011373792D02*
X003642478Y011387935D01*
D19*
X003642478Y011387935D02*
X003992505Y011325120D01*
D19*
X011246636Y005000000D02*
X005747986Y005000000D01*
D19*
X005747986Y005000000D02*
X005570326Y005261082D01*
D19*
X005570326Y005261082D02*
X005337716Y005234240D01*
D19*
X005337716Y005234240D02*
X004753897Y005104973D01*
D19*
X002572938Y012840924D02*
X002433867Y012418112D01*
D19*
X002433867Y012418112D02*
X003467183Y011381136D01*
D19*
X003467183Y011381136D02*
X003659855Y011385713D01*
D19*
X003659855Y011385713D02*
X003992505Y011325120D01*
D19*
X000975000Y002900000D02*
X000975000Y003833794D01*
D19*
X000975000Y003833794D02*
X000928312Y003880482D01*
D19*
X000928312Y003880482D02*
X000938595Y004175000D01*
D19*
X003936000Y001623000D02*
X003936000Y002136000D01*
D19*
X003936000Y002136000D02*
X004799976Y003000000D01*
D19*
X-00975000Y002900000D02*
X-00962396Y004175000D01*
D19*
X-04841242Y002474999D02*
X-04799976Y001500000D01*
D19*
X026533701Y016000000D02*
X025148180Y014451872D01*
D19*
X025148180Y014451872D02*
X025220216Y007821846D01*
D19*
X025220216Y007821846D02*
X018283045Y000974827D01*
D19*
X018283045Y000974827D02*
X017753364Y001000000D01*
D19*
X018671940Y015404860D02*
X018672000Y016081000D01*
D19*
X018672000Y016081000D02*
X017753364Y017000000D01*
D19*
X023993701Y009000000D02*
X019993701Y013000000D01*
D19*
X019993701Y013000000D02*
X017753364Y013000000D01*
D19*
X021453701Y002000000D02*
X021453701Y003175831D01*
D19*
X021453701Y003175831D02*
X022566736Y004288866D01*
D19*
X022566736Y004288866D02*
X022674111Y004265899D01*
D19*
X022674111Y004265899D02*
X022812000Y004461000D01*
D19*
X022773005Y006488995D02*
X020363567Y006376988D01*
D19*
X020363567Y006376988D02*
X017753364Y009000000D01*
D19*
X021200000Y005200000D02*
X017953000Y005200000D01*
D19*
X017953000Y005200000D02*
X017753364Y005000000D01*
D19*
X003992505Y010674880D02*
X003439592Y010692512D01*
D19*
X003439592Y010692512D02*
X-00044024Y014208833D01*
D19*
X-02428688Y016042997D02*
X-02753364Y017000000D01*
D19*
X007992497Y011325120D02*
X007102499Y011325120D01*
D19*
X002822705Y017576069D02*
X002246636Y017000000D01*
D19*
X-06246636Y017000000D02*
X-06246636Y020995758D01*
D19*
X-06246636Y020995758D02*
X-06251005Y021000127D01*
D19*
X-01246636Y017000000D02*
X-01246636Y020995758D01*
D19*
X-01246636Y020995758D02*
X-01251005Y021000127D01*
D19*
X003753364Y017000000D02*
X004753289Y017000000D01*
D19*
X004753289Y017000000D02*
X004815324Y016858324D01*
D19*
X004957000Y019400000D02*
X004957000Y019792122D01*
D19*
X004957000Y019792122D02*
X003748995Y021000127D01*
D19*
X024753364Y-10000000D02*
X026417150Y-08188086D01*
D19*
X026417150Y-08188086D02*
X028332500Y-08293392D01*
D19*
X028332500Y-08293392D02*
X028332004Y-08581942D01*
D19*
X028332004Y-08581942D02*
X029750062Y-10000000D01*
D19*
X-06753364Y010000000D02*
X-07686975Y007837902D01*
D19*
X-07686975Y007837902D02*
X-07965476Y007503455D01*
D19*
X-07965476Y007503455D02*
X-08247887Y007250387D01*
D19*
X-08247887Y007250387D02*
X-08247000Y007000000D01*
D19*
X-08247000Y007000000D02*
X-08246636Y007000000D01*
D19*
X-08246636Y007000000D02*
X-07717234Y007000000D01*
D19*
X-07717234Y007000000D02*
X-05440139Y004722906D01*
D19*
X-05440139Y004722906D02*
X-05462813Y004745579D01*
D19*
X017345000Y-12718000D02*
X025965000Y-12718000D01*
D19*
X025965000Y-12718000D02*
X028246636Y-15000000D01*
D19*
X029753364Y-15000000D02*
X029237721Y-15597693D01*
D19*
X029237721Y-15597693D02*
X029184335Y-16717062D01*
D19*
X027772586Y-15963782D02*
X027732491Y-16131491D01*
D19*
X027732491Y-16131491D02*
X027732491Y-16128483D01*
D19*
X027732491Y-16128483D02*
X026604008Y-15000000D01*
D19*
X026604008Y-15000000D02*
X024700024Y-15000000D01*
D19*
X024700024Y-15000000D02*
X024700024Y-18694024D01*
D19*
X024700024Y-18694024D02*
X026006299Y-20000000D01*
D19*
X024700024Y-15000000D02*
X023993129Y-15854999D01*
D19*
X023993129Y-15854999D02*
X008706895Y-15854999D01*
D19*
X008706895Y-15854999D02*
X008000000Y-15000000D01*
D79*
X005095000Y005946925D03*
D79*
X005946916Y003974999D03*
D79*
X-08399000Y008399000D03*
D79*
X-06405000Y008368000D03*
D79*
X003680244Y009299640D03*
D79*
X000812515Y011644833D03*
D79*
X006041000Y013681000D03*
D79*
X022064000Y-04065000D03*
D79*
X015400707Y-12016563D03*
D79*
X004400000Y-16400000D03*
D79*
X-02729124Y-07260657D03*
D79*
X000594000Y-05212000D03*
D79*
X001100000Y-04200000D03*
D79*
X003800000Y-07750000D03*
D79*
X-03025000Y-02295231D03*
D79*
X006807000Y-00637000D03*
D79*
X028839314Y-10521497D03*
D79*
X028333678Y-16560664D03*
D79*
X026328000Y-06947000D03*
D79*
X026851659Y-08942879D03*
D79*
X003166391Y-07259013D03*
D79*
X003728778Y-13724604D03*
D79*
X010000000Y015200000D03*
D79*
X009516623Y010612377D03*
D79*
X-03025000Y003215726D03*
D79*
X006173000Y007298000D03*
D79*
X-01903527Y004722074D03*
D79*
X006400000Y011000000D03*
D79*
X009046000Y008985000D03*
D79*
X003216730Y012482508D03*
D79*
X002575644Y004169522D03*
D79*
X003283359Y008833530D03*
D79*
X003992505Y011975360D03*
D79*
X001888000Y004410000D03*
D79*
X002572938Y012840924D03*
D79*
X004753897Y005104973D03*
D79*
X000938595Y004175000D03*
D79*
X003936000Y001623000D03*
D79*
X-00962396Y004175000D03*
D79*
X-04841242Y002474999D03*
D79*
X018671940Y015404860D03*
D79*
X022812000Y004461000D03*
D79*
X022773005Y006488995D03*
D79*
X021200000Y005200000D03*
D79*
X-00044024Y014208833D03*
D79*
X-02428688Y016042997D03*
D79*
X007102499Y011325120D03*
D79*
X002822705Y017576069D03*
D79*
X004815324Y016858324D03*
D79*
X004957000Y019400000D03*
D79*
X-05462813Y004745579D03*
D79*
X017345000Y-12718000D03*
D79*
X029184335Y-16717062D03*
D79*
X027772586Y-15963782D03*
%LPC*%
D39*
X-32500000Y025000000D03*
%LPD*%
%LPC*%
D39*
X032500000Y025000000D03*
%LPD*%
%LPC*%
D39*
X-32500000Y-25000000D03*
%LPD*%
%LPC*%
D39*
X032500000Y-25000000D03*
%LPD*%
M02*