%TF.GenerationSoftware,tscircuit,circuit-json-to-gerber,0.0.104*%
%TF.CreationDate,2026-09-27T21:05:18.523Z*%
%TF.SameCoordinates,Original*%
%TF.FileFunction,Other,Fab,Top*%
%TF.FilePolarity,Positive*%
%FSLAX46Y46*%
%MOMM*%
G04 Gerber Fmt 4.6, Leading zero omitted, Abs format (unit mm)*
G04 Created by tscircuit (builder) date 2026-09-27T21:05:18.523Z*
G01*
%LPD*%
G75*
G04 APERTURE MACROS START*
%AMHORZPILL*
0 Horizontal pill (stadium) shape macro*
0 Parameters:*
0 $1 = Total width*
0 $2 = Total height*
0 $3 = Circle diameter (equal to height)*
0 $4 = Circle center offset
0 21 = Center Line(Exposure, Width, Height, Center X, Center Y, Rotation)*
0 1 = Circle(Exposure, Diameter, Center X, Center Y, Rotation)*
21,1,$1-$3,$2,0.0,0.0,0.0*
1,1,$3,0.0-$4,0.0*
1,1,$3,$4,0.0*%
%AMVERTPILL*
0 Vertical pill (stadium) shape macro*
0 Parameters:*
0 $1 = Total width*
0 $2 = Total height*
0 $3 = Circle diameter (equal to width)*
0 $4 = Circle center offset
0 21 = Center Line(Exposure, Width, Height, Center X, Center Y, Rotation)*
21,1,$1,$2-$3,0.0,0.0,0.0*
1,1,$3,0.0,0.0-$4*
1,1,$3,0.0,$4*%
%AMROUNDRECT*
0 Rectangle with rounded corners*
0 $1 Corner radius*
0 $2 $3 $4 $5 $6 $7 $8 $9 X,Y Position of each corner*
0 Polygon box body*
4,1,4,$2,$3,$4,$5,$6,$7,$8,$9,$2,$3,0*
0 Circles for rounded corners*
1,1,$1+$1,$2,$3*
1,1,$1+$1,$4,$5*
1,1,$1+$1,$6,$7*
1,1,$1+$1,$8,$9*
0 Rectangles between the rounded corners*
20,1,$1+$1,$2,$3,$4,$5,0*
20,1,$1+$1,$4,$5,$6,$7,0*
20,1,$1+$1,$6,$7,$8,$9,0*
20,1,$1+$1,$8,$9,$2,$3,0*%
G04 APERTURE MACROS END*
G04 aperture START LIST*
%ADD10C,0.300000*%
%ADD11C,1.000000*%
%ADD12C,0.989990*%
%ADD13C,0.405003*%
%ADD14C,0.375000*%
%ADD15C,0.750000*%
%ADD16C,0.625000*%
%ADD17C,0.425000*%
%ADD18C,0.799998*%
%ADD19C,0.250000*%
%ADD20C,0.325000*%
%ADD21C,0.550000*%
%ADD22C,0.725000*%
%ADD23C,0.900000*%
%ADD24C,0.275000*%
%ADD25C,0.300000*%
%ADD26C,0.500000*%
%ADD27C,0.925000*%
%ADD28C,0.806475*%
%ADD29C,0.350000*%
%ADD30C,0.525000*%
%ADD31C,0.650000*%
%ADD32C,0.425000*%
%ADD33C,0.675000*%
%ADD34C,0.800000*%
%ADD35C,0.875000*%
%ADD36C,0.412500*%
%ADD37C,0.975000*%
%ADD38C,0.575000*%
%ADD39C,0.254000*%
%ADD40C,0.080000*%
%TD*%
G04 aperture END LIST*
D39*
X-31700780Y013596005D02*
X-29501140Y013596005D01*
X-29411337Y013558808D01*
X-29374140Y013469005D01*
X-29374140Y011548765D01*
X-29411337Y011458962D01*
X-29501140Y011421765D01*
X-31700780Y011421765D01*
X-31573780Y011548765D01*
X-31700780Y011675765D01*
X-29628140Y011675765D01*
X-29628140Y013342005D01*
X-31700780Y013342005D01*
X-31573780Y013469005D01*
X-31700780Y013596005D01*
D39*
X-31700780Y008595863D02*
X-29501191Y008595863D01*
X-29411388Y008558665D01*
X-29374191Y008468863D01*
X-29374191Y006548623D01*
X-29411388Y006458820D01*
X-29501191Y006421623D01*
X-31700780Y006421623D01*
X-31573780Y006548623D01*
X-31700780Y006675623D01*
X-29628191Y006675623D01*
X-29628191Y008341863D01*
X-31700780Y008341863D01*
X-31573780Y008468863D01*
X-31700780Y008595863D01*
D39*
X-19209988Y-00659994D02*
X-19209988Y000659994D01*
X-19407981Y000659994D01*
X-19407981Y-00659994D01*
X-19209988Y-00659994D01*
D39*
X-18912986Y-00099009D02*
X-18912986Y000099009D01*
X-19704983Y000099009D01*
X-19704983Y-00099009D01*
X-18912986Y-00099009D01*
D39*
X-25116986Y-00099009D02*
X-25116986Y000099009D01*
X-24324989Y000099009D01*
X-24324989Y-00099009D01*
X-25116986Y-00099009D01*
D39*
X-09209988Y-00659994D02*
X-09209988Y000659994D01*
X-09407981Y000659994D01*
X-09407981Y-00659994D01*
X-09209988Y-00659994D01*
D39*
X-08912986Y-00099009D02*
X-08912986Y000099009D01*
X-09704983Y000099009D01*
X-09704983Y-00099009D01*
X-08912986Y-00099009D01*
D39*
X-15116986Y-00099009D02*
X-15116986Y000099009D01*
X-14324989Y000099009D01*
X-14324989Y-00099009D01*
X-15116986Y-00099009D01*
D39*
X-30396007Y-10135738D02*
X-30396007Y-09864262D01*
X-29310005Y-09864262D01*
X-29310005Y-10135738D01*
X-30396007Y-10135738D01*
D39*
X-25603993Y-10135738D02*
X-25603993Y-09864262D01*
X-26689995Y-09864262D01*
X-26689995Y-10135738D01*
X-25603993Y-10135738D01*
D39*
X-26011256Y-10905002D02*
X-26011256Y-09094998D01*
X-26282757Y-09094998D01*
X-26282757Y-10905002D01*
X-26011256Y-10905002D01*
D39*
X-15070000Y-09938481D02*
X-14529996Y-09938481D01*
X-14529996Y-10068478D01*
X-15070000Y-10068478D01*
X-15070000Y-09938481D01*
D39*
X-13265432Y-10267081D02*
X-13265432Y-09727077D01*
X-13135460Y-09727077D01*
X-13135460Y-10267081D01*
X-13265432Y-10267081D01*
D39*
X-13471070Y-09931623D02*
X-12931066Y-09931623D01*
X-12931066Y-10061620D01*
X-13471070Y-10061620D01*
X-13471070Y-09931623D01*
D39*
X-06596005Y-27700780D02*
X-06596005Y-25501140D01*
X-06558808Y-25411337D01*
X-06469005Y-25374140D01*
X-04548765Y-25374140D01*
X-04458962Y-25411337D01*
X-04421765Y-25501140D01*
X-04421765Y-27700780D01*
X-04548765Y-27573780D01*
X-04675765Y-27700780D01*
X-04675765Y-25628140D01*
X-06342005Y-25628140D01*
X-06342005Y-27700780D01*
X-06469005Y-27573780D01*
X-06596005Y-27700780D01*
D39*
X-01595863Y-27700780D02*
X-01595863Y-25501191D01*
X-01558665Y-25411388D01*
X-01468863Y-25374191D01*
X000451377Y-25374191D01*
X000541180Y-25411388D01*
X000578377Y-25501191D01*
X000578377Y-27700780D01*
X000451377Y-27573780D01*
X000324377Y-27700780D01*
X000324377Y-25628191D01*
X-01341863Y-25628191D01*
X-01341863Y-27700780D01*
X-01468863Y-27573780D01*
X-01595863Y-27700780D01*
D39*
X007403995Y-27700780D02*
X007403995Y-25501140D01*
X007441192Y-25411337D01*
X007530995Y-25374140D01*
X009451235Y-25374140D01*
X009541038Y-25411337D01*
X009578235Y-25501140D01*
X009578235Y-27700780D01*
X009451235Y-27573780D01*
X009324235Y-27700780D01*
X009324235Y-25628140D01*
X007657995Y-25628140D01*
X007657995Y-27700780D01*
X007530995Y-27573780D01*
X007403995Y-27700780D01*
D39*
X012404137Y-27700780D02*
X012404137Y-25501191D01*
X012441335Y-25411388D01*
X012531137Y-25374191D01*
X014451377Y-25374191D01*
X014541180Y-25411388D01*
X014578377Y-25501191D01*
X014578377Y-27700780D01*
X014451377Y-27573780D01*
X014324377Y-27700780D01*
X014324377Y-25628191D01*
X012658137Y-25628191D01*
X012658137Y-27700780D01*
X012531137Y-27573780D01*
X012404137Y-27700780D01*
D39*
X-08070000Y021061519D02*
X-07529996Y021061519D01*
X-07529996Y020931522D01*
X-08070000Y020931522D01*
X-08070000Y021061519D01*
D39*
X-06265432Y020732919D02*
X-06265432Y021272923D01*
X-06135460Y021272923D01*
X-06135460Y020732919D01*
X-06265432Y020732919D01*
D39*
X-06471070Y021068377D02*
X-05931066Y021068377D01*
X-05931066Y020938380D01*
X-06471070Y020938380D01*
X-06471070Y021068377D01*
D39*
X-03070000Y021061519D02*
X-02529996Y021061519D01*
X-02529996Y020931522D01*
X-03070000Y020931522D01*
X-03070000Y021061519D01*
D39*
X-01265432Y020732919D02*
X-01265432Y021272923D01*
X-01135460Y021272923D01*
X-01135460Y020732919D01*
X-01265432Y020732919D01*
D39*
X-01471070Y021068377D02*
X-00931066Y021068377D01*
X-00931066Y020938380D01*
X-01471070Y020938380D01*
X-01471070Y021068377D01*
D39*
X001930000Y021061519D02*
X002470004Y021061519D01*
X002470004Y020931522D01*
X001930000Y020931522D01*
X001930000Y021061519D01*
D39*
X003734568Y020732919D02*
X003734568Y021272923D01*
X003864540Y021272923D01*
X003864540Y020732919D01*
X003734568Y020732919D01*
D39*
X003528930Y021068377D02*
X004068934Y021068377D01*
X004068934Y020938380D01*
X003528930Y020938380D01*
X003528930Y021068377D01*
D39*
X027973535Y-09856033D02*
X028581789Y-09856033D01*
X028581789Y-10009779D01*
X027970817Y-10009779D01*
X027970817Y-10003099D01*
X027973535Y-09856033D01*
D39*
X029461823Y-09868022D02*
X030070077Y-09868022D01*
X030070077Y-10021768D01*
X029459105Y-10021768D01*
X029459105Y-10015088D01*
X029461823Y-09868022D01*
D39*
X029691617Y-10263627D02*
X029691617Y-09655373D01*
X029845363Y-09655373D01*
X029845363Y-10266344D01*
X029838683Y-10266344D01*
X029691617Y-10263627D01*
D40*
X-20422507Y-00000000D02*
X-21022507Y-00000000D01*
D40*
X-20722507Y000300000D02*
X-20722507Y-00300000D01*
D40*
X-22977493Y000000000D02*
X-23577493Y000000000D01*
D40*
X-10422507Y-00000000D02*
X-11022507Y-00000000D01*
D40*
X-10722507Y000300000D02*
X-10722507Y-00300000D01*
D40*
X-12977493Y000000000D02*
X-13577493Y000000000D01*
D40*
X-13251005Y-09999873D02*
X-13700402Y-09999949D01*
D40*
X-13700440Y-09775251D02*
X-14299598Y-10000051D01*
X-13700364Y-10224648D01*
X-13700440Y-09775251D01*
D40*
X-14299636Y-09775352D02*
X-14299560Y-10224749D01*
D40*
X-14299598Y-10000051D02*
X-14748995Y-10000127D01*
D40*
X-06251005Y021000127D02*
X-06700402Y021000051D01*
D40*
X-06700440Y021224749D02*
X-07299598Y020999949D01*
X-06700364Y020775352D01*
X-06700440Y021224749D01*
D40*
X-07299636Y021224648D02*
X-07299560Y020775251D01*
D40*
X-07299598Y020999949D02*
X-07748995Y020999873D01*
D40*
X-01251005Y021000127D02*
X-01700402Y021000051D01*
D40*
X-01700440Y021224749D02*
X-02299598Y020999949D01*
X-01700364Y020775352D01*
X-01700440Y021224749D01*
D40*
X-02299636Y021224648D02*
X-02299560Y020775251D01*
D40*
X-02299598Y020999949D02*
X-02748995Y020999873D01*
D40*
X003748995Y021000127D02*
X003299598Y021000051D01*
D40*
X003299560Y021224749D02*
X002700402Y020999949D01*
X003299636Y020775352D01*
X003299560Y021224749D01*
D40*
X002700364Y021224648D02*
X002700440Y020775251D01*
D40*
X002700402Y020999949D02*
X002251005Y020999873D01*
D40*
X029750062Y-10000000D02*
X029300025Y-10000000D01*
D40*
X029300025Y-09774981D02*
X028699975Y-10000000D01*
X029300025Y-10225019D01*
X029300025Y-09774981D01*
D40*
X028699975Y-09774981D02*
X028699975Y-10225019D01*
D40*
X028699975Y-10000000D02*
X028249938Y-10000000D01*
M02*