%TF.GenerationSoftware,tscircuit,circuit-json-to-gerber,0.0.104*%
%TF.CreationDate,2026-09-27T21:05:18.523Z*%
%TF.SameCoordinates,Original*%
%TF.FileFunction,Copper,L3,Inr*%
%TF.FilePolarity,Positive*%
%FSLAX46Y46*%
%MOMM*%
G04 Gerber Fmt 4.6, Leading zero omitted, Abs format (unit mm)*
G04 Created by tscircuit (builder) date 2026-09-27T21:05:18.523Z*
G01*
%LPD*%
G75*
G04 APERTURE MACROS START*
%AMHORZPILL*
0 Horizontal pill (stadium) shape macro*
0 Parameters:*
0 $1 = Total width*
0 $2 = Total height*
0 $3 = Circle diameter (equal to height)*
0 $4 = Circle center offset
0 21 = Center Line(Exposure, Width, Height, Center X, Center Y, Rotation)*
0 1 = Circle(Exposure, Diameter, Center X, Center Y, Rotation)*
21,1,$1-$3,$2,0.0,0.0,0.0*
1,1,$3,0.0-$4,0.0*
1,1,$3,$4,0.0*%
%AMVERTPILL*
0 Vertical pill (stadium) shape macro*
0 Parameters:*
0 $1 = Total width*
0 $2 = Total height*
0 $3 = Circle diameter (equal to width)*
0 $4 = Circle center offset
0 21 = Center Line(Exposure, Width, Height, Center X, Center Y, Rotation)*
21,1,$1,$2-$3,0.0,0.0,0.0*
1,1,$3,0.0,0.0-$4*
1,1,$3,0.0,$4*%
%AMROUNDRECT*
0 Rectangle with rounded corners*
0 $1 Corner radius*
0 $2 $3 $4 $5 $6 $7 $8 $9 X,Y Position of each corner*
0 Polygon box body*
4,1,4,$2,$3,$4,$5,$6,$7,$8,$9,$2,$3,0*
0 Circles for rounded corners*
1,1,$1+$1,$2,$3*
1,1,$1+$1,$4,$5*
1,1,$1+$1,$6,$7*
1,1,$1+$1,$8,$9*
0 Rectangles between the rounded corners*
20,1,$1+$1,$2,$3,$4,$5,0*
20,1,$1+$1,$4,$5,$6,$7,0*
20,1,$1+$1,$6,$7,$8,$9,0*
20,1,$1+$1,$8,$9,$2,$3,0*%
G04 APERTURE MACROS END*
G04 aperture START LIST*
%ADD10C,1.000000*%
%ADD11C,0.250000*%
%ADD12C,0.150000*%
%ADD13C,0.090000*%
%ADD14C,0.072000*%
%ADD15C,2.199996*%
%ADD16C,0.100000*%
%ADD17C,0.609600*%
%ADD18C,1.599997*%
%ADD19R,1.574800X1.599997*%
%ADD20C,0.600000*%
%ADD21C,0.450000*%
%TD*%
G04 aperture END LIST*
D15*
X-28000000Y012499995D03*
D15*
X-28000000Y007500005D03*
D17*
X000500126Y000499872D03*
D17*
X-00499872Y000499872D03*
D17*
X-00499872Y-00500126D03*
D17*
X000500126Y-00500126D03*
D15*
X-05499995Y-24000000D03*
D15*
X-00500005Y-24000000D03*
D15*
X008500005Y-24000000D03*
D15*
X013499995Y-24000000D03*
D18*
X026533701Y016000000D03*
D18*
X023993701Y016000000D03*
D19*
X021453701Y016000000D03*
D18*
X026533701Y009000000D03*
D18*
X023993701Y009000000D03*
D19*
X021453701Y009000000D03*
D18*
X026533701Y002000000D03*
D18*
X023993701Y002000000D03*
D19*
X021453701Y002000000D03*
D18*
X023466299Y-20000000D03*
D18*
X026006299Y-20000000D03*
D19*
X028546299Y-20000000D03*
D20*
X-00700000Y005900000D03*
D20*
X009000000Y012700000D03*
D20*
X-12400000Y-08400000D03*
D20*
X-12400000Y-09600000D03*
D20*
X012400000Y-08400000D03*
D20*
X012400000Y-09600000D03*
D10*
X-08399000Y008399000D02*
X-07417689Y008399000D01*
D10*
X-07417689Y008399000D02*
X-06436377Y008399000D01*
D10*
X-06436377Y008399000D02*
X-06411008Y008373631D01*
D10*
X-06411008Y008373631D02*
X-06410631Y008373631D01*
D10*
X-06410631Y008373631D02*
X-06405000Y008368000D01*
D11*
X003680244Y009299640D02*
X003420525Y009626262D01*
D11*
X003420525Y009626262D02*
X001990041Y011184034D01*
D11*
X001990041Y011184034D02*
X002371198Y011765482D01*
D11*
X002371198Y011765482D02*
X002156988Y011816000D01*
D11*
X002156988Y011816000D02*
X001791000Y011816000D01*
D11*
X001791000Y011816000D02*
X001585000Y011816000D01*
D11*
X001585000Y011816000D02*
X001277000Y011822000D01*
D11*
X001277000Y011822000D02*
X001082945Y011823717D01*
D11*
X001082945Y011823717D02*
X000559228Y011300000D01*
D11*
X000559228Y011300000D02*
X000812515Y011644833D01*
D11*
X-03025000Y-02295231D02*
X005148769Y-02295231D01*
D11*
X005148769Y-02295231D02*
X006753899Y-00690101D01*
D11*
X006753899Y-00690101D02*
X006807000Y-00637000D01*
D11*
X003166391Y-07259013D02*
X003178720Y-12930259D01*
D11*
X003178720Y-12930259D02*
X003765232Y-13515489D01*
D11*
X003765232Y-13515489D02*
X003765232Y-13630232D01*
D11*
X003765232Y-13630232D02*
X003728778Y-13724604D01*
D11*
X010000000Y015200000D02*
X010000000Y011153961D01*
D11*
X010000000Y011153961D02*
X009660496Y010814457D01*
D11*
X009660496Y010814457D02*
X009649457Y010814457D01*
D11*
X009649457Y010814457D02*
X009516623Y010612377D01*
D11*
X-01903527Y004722074D02*
X000125034Y004838274D01*
D11*
X000125034Y004838274D02*
X006393680Y011000000D01*
D11*
X006393680Y011000000D02*
X006400000Y011000000D01*
D11*
X023993701Y002000000D02*
X023993701Y002402383D01*
D11*
X023993701Y002402383D02*
X021351492Y005044593D01*
D11*
X021351492Y005044593D02*
X021351492Y005048508D01*
D11*
X021351492Y005048508D02*
X021200000Y005200000D01*
D21*
X005095000Y005946925D03*
D21*
X005946916Y003974999D03*
D21*
X-08399000Y008399000D03*
D21*
X-06405000Y008368000D03*
D21*
X003680244Y009299640D03*
D21*
X000812515Y011644833D03*
D21*
X006041000Y013681000D03*
D21*
X022064000Y-04065000D03*
D21*
X015400707Y-12016563D03*
D21*
X004400000Y-16400000D03*
D21*
X-02729124Y-07260657D03*
D21*
X000594000Y-05212000D03*
D21*
X001100000Y-04200000D03*
D21*
X003800000Y-07750000D03*
D21*
X-03025000Y-02295231D03*
D21*
X006807000Y-00637000D03*
D21*
X028839314Y-10521497D03*
D21*
X028333678Y-16560664D03*
D21*
X026328000Y-06947000D03*
D21*
X026851659Y-08942879D03*
D21*
X003166391Y-07259013D03*
D21*
X003728778Y-13724604D03*
D21*
X010000000Y015200000D03*
D21*
X009516623Y010612377D03*
D21*
X-03025000Y003215726D03*
D21*
X006173000Y007298000D03*
D21*
X-01903527Y004722074D03*
D21*
X006400000Y011000000D03*
D21*
X009046000Y008985000D03*
D21*
X003216730Y012482508D03*
D21*
X002575644Y004169522D03*
D21*
X003283359Y008833530D03*
D21*
X003992505Y011975360D03*
D21*
X001888000Y004410000D03*
D21*
X002572938Y012840924D03*
D21*
X004753897Y005104973D03*
D21*
X000938595Y004175000D03*
D21*
X003936000Y001623000D03*
D21*
X-00962396Y004175000D03*
D21*
X-04841242Y002474999D03*
D21*
X018671940Y015404860D03*
D21*
X022812000Y004461000D03*
D21*
X022773005Y006488995D03*
D21*
X021200000Y005200000D03*
D21*
X-00044024Y014208833D03*
D21*
X-02428688Y016042997D03*
D21*
X007102499Y011325120D03*
D21*
X002822705Y017576069D03*
D21*
X004815324Y016858324D03*
D21*
X004957000Y019400000D03*
D21*
X-05462813Y004745579D03*
D21*
X017345000Y-12718000D03*
D21*
X029184335Y-16717062D03*
D21*
X027772586Y-15963782D03*
M02*