M48
; DRILL file {tscircuit} date 2026-09-28T09:28:54.352Z
; FORMAT={-:-/ absolute / metric / decimal}
; #@! TF.CreationDate,2026-09-28T09:28:54.352Z
; #@! TF.GenerationSoftware,tscircuit
; #@! TF.FileFunction,Plated,1,4,PTH
FMAT,2
METRIC
; #@! TA.AperFunction,Plated,PTH,ComponentDrill
T10C1.399997
; #@! TA.AperFunction,Plated,PTH,ComponentDrill
T11C0.304800
; #@! TA.AperFunction,Plated,PTH,ComponentDrill
T12C1.100023
; #@! TA.AperFunction,Plated,PTH,ComponentDrill
T13C0.300000
%
G90
G05
T10
X-28.0000Y12.5000
X-28.0000Y7.5000
X-5.5000Y-24.0000
X-0.5000Y-24.0000
X8.5000Y-24.0000
X13.5000Y-24.0000
T11
X0.5001Y0.4999
X-0.4999Y0.4999
X-0.4999Y-0.5001
X0.5001Y-0.5001
T12
X26.5337Y16.0000
X23.9937Y16.0000
X21.4537Y16.0000
X26.5337Y9.0000
X23.9937Y9.0000
X21.4537Y9.0000
X26.5337Y2.0000
X23.9937Y2.0000
X21.4537Y2.0000
X23.4663Y-20.0000
X26.0063Y-20.0000
X28.5463Y-20.0000
T13
X-2.6000Y5.1500
X9.0000Y12.7000
X-12.4000Y-8.4000
X-12.4000Y-9.6000
X12.4000Y-8.4000
X12.4000Y-9.6000
X-8.3990Y8.3990
X-6.4050Y8.3680
X3.6802Y9.2996
X0.8125Y11.6448
X6.0410Y13.6810
X22.0640Y-4.0650
X15.4007Y-12.0166
X4.4000Y-16.4000
X-2.2000Y-4.8000
X0.5940Y-5.2120
X1.1000Y-4.2000
X3.8000Y-7.7500
X-3.0250Y-2.2952
X6.8070Y-0.6370
X28.8393Y-10.5215
X28.3337Y-16.5607
X26.3280Y-6.9470
X26.8517Y-8.9429
X3.1664Y-7.2590
X3.7288Y-13.7246
X10.0000Y15.2000
X9.5166Y10.6124
X-3.0250Y3.2157
X7.0000Y7.2980
X-2.2000Y4.4000
X6.4000Y11.0000
X9.0460Y8.9850
X3.2167Y12.4825
X2.5756Y4.1695
X3.2834Y8.8335
X3.9925Y11.9754
X1.8880Y4.4100
X2.5729Y12.8409
X4.7539Y5.1050
X18.6719Y15.4049
X22.8120Y4.4610
X22.7730Y6.4890
X21.2000Y5.2000
X-0.0440Y14.2088
X-2.4287Y16.0430
X7.1025Y11.3251
X2.8227Y17.5761
X4.8153Y16.8583
X4.9570Y19.4000
X-6.5000Y4.7000
X17.3450Y-12.7180
X29.1843Y-16.7171
X27.7726Y-15.9638
M30