%TF.GenerationSoftware,tscircuit,circuit-json-to-gerber,0.0.104*%
%TF.CreationDate,2026-09-28T09:28:54.314Z*%
%TF.SameCoordinates,Original*%
%TF.FileFunction,Soldermask,Top*%
%TF.FilePolarity,Negative*%
%FSLAX46Y46*%
%MOMM*%
G04 Gerber Fmt 4.6, Leading zero omitted, Abs format (unit mm)*
G04 Created by tscircuit (builder) date 2026-09-28T09:28:54.314Z*
G01*
%LPD*%
G75*
G04 APERTURE MACROS START*
%AMHORZPILL*
0 Horizontal pill (stadium) shape macro*
0 Parameters:*
0 $1 = Total width*
0 $2 = Total height*
0 $3 = Circle diameter (equal to height)*
0 $4 = Circle center offset
0 21 = Center Line(Exposure, Width, Height, Center X, Center Y, Rotation)*
0 1 = Circle(Exposure, Diameter, Center X, Center Y, Rotation)*
21,1,$1-$3,$2,0.0,0.0,0.0*
1,1,$3,0.0-$4,0.0*
1,1,$3,$4,0.0*%
%AMVERTPILL*
0 Vertical pill (stadium) shape macro*
0 Parameters:*
0 $1 = Total width*
0 $2 = Total height*
0 $3 = Circle diameter (equal to width)*
0 $4 = Circle center offset
0 21 = Center Line(Exposure, Width, Height, Center X, Center Y, Rotation)*
21,1,$1,$2-$3,0.0,0.0,0.0*
1,1,$3,0.0,0.0-$4*
1,1,$3,0.0,$4*%
%AMROUNDRECT*
0 Rectangle with rounded corners*
0 $1 Corner radius*
0 $2 $3 $4 $5 $6 $7 $8 $9 X,Y Position of each corner*
0 Polygon box body*
4,1,4,$2,$3,$4,$5,$6,$7,$8,$9,$2,$3,0*
0 Circles for rounded corners*
1,1,$1+$1,$2,$3*
1,1,$1+$1,$4,$5*
1,1,$1+$1,$6,$7*
1,1,$1+$1,$8,$9*
0 Rectangles between the rounded corners*
20,1,$1+$1,$2,$3,$4,$5,0*
20,1,$1+$1,$4,$5,$6,$7,0*
20,1,$1+$1,$6,$7,$8,$9,0*
20,1,$1+$1,$8,$9,$2,$3,0*%
G04 APERTURE MACROS END*
G04 aperture START LIST*
%ADD10C,0.300000*%
%ADD11C,1.000000*%
%ADD12C,0.989990*%
%ADD13C,0.405003*%
%ADD14C,0.375000*%
%ADD15C,0.700000*%
%ADD16C,0.500000*%
%ADD17C,0.400000*%
%ADD18C,0.325000*%
%ADD19C,0.806475*%
%ADD20C,0.250000*%
%ADD21C,0.650000*%
%ADD22C,0.275000*%
%ADD23C,0.350000*%
%ADD24C,0.425000*%
%ADD25C,0.550000*%
%ADD26C,0.675000*%
%ADD27C,0.800000*%
%ADD28C,0.900000*%
%ADD29C,0.925000*%
%ADD30C,0.875000*%
%ADD31C,0.412500*%
%ADD32C,0.525000*%
%ADD33C,0.975000*%
%ADD34C,0.450000*%
%ADD35C,0.600000*%
%ADD36C,0.425000*%
%ADD37C,0.575000*%
%ADD38C,3.200000*%
%ADD39C,0.150000*%
%ADD40C,0.090000*%
%ADD41C,0.072000*%
%ADD42C,2.199996*%
%ADD43C,0.100000*%
%ADD44R,3.150000X1.960000*%
%ADD45R,2.205000X1.372000*%
%ADD46R,0.405003X0.989990*%
%ADD47R,0.283502X0.692993*%
%ADD48R,2.234997X1.724990*%
%ADD49R,1.564498X1.207493*%
%ADD50R,3.259988X1.150010*%
%ADD51R,2.281992X0.805007*%
%ADD52R,2.047494X2.192401*%
%ADD53R,1.433246X1.534681*%
%ADD54R,0.806475X0.864006*%
%ADD55R,0.564533X0.604804*%
%ADD56R,0.799998X0.799998*%
%ADD57R,0.559999X0.559999*%
%ADD58ROUNDRECT,0.100000X-0.175000X0.700000X0.175000X0.700000X0.175000X-0.700000X-0.175000X-0.700000*%
%ADD59R,0.450000X1.500000*%
%ADD60R,5.000000X3.400000*%
%ADD61R,2.310000X2.460000*%
%ADD62C,0.609600*%
%ADD63R,1.282522X3.456000*%
%ADD64R,0.897766X2.419200*%
%ADD65R,1.410005X1.350010*%
%ADD66R,0.987003X0.945007*%
%ADD67R,0.899998X0.799998*%
%ADD68R,0.629999X0.559999*%
%ADD69C,1.599997*%
%ADD70R,1.574800X1.599997*%
%ADD71R,0.729996X0.399999*%
%ADD72R,0.510997X0.279999*%
%ADD73R,0.699999X0.399999*%
%ADD74R,0.489999X0.279999*%
%ADD75R,0.799998X0.899998*%
%ADD76R,0.559999X0.629999*%
%ADD77C,1.200000*%
%ADD78C,0.600000*%
%ADD79C,0.450000*%
%TD*%
G04 aperture END LIST*
D38*
X-32500000Y025000000D03*
D38*
X032500000Y025000000D03*
D38*
X-32500000Y-25000000D03*
D38*
X032500000Y-25000000D03*
D42*
X-28000000Y012499995D03*
D42*
X-28000000Y007500005D03*
D44*
X-19000000Y008545000D03*
D44*
X-19000000Y013455000D03*
D46*
X-12974979Y009565027D03*
D46*
X-12324993Y009565027D03*
D46*
X-11675007Y009565027D03*
D46*
X-11025021Y009565027D03*
D46*
X-11025021Y012434973D03*
D46*
X-11675007Y012434973D03*
D46*
X-12324993Y012434973D03*
D46*
X-12974979Y012434973D03*
D48*
X-11999873Y011557403D03*
D50*
X-24554986Y000000000D03*
D50*
X-19445014Y000000000D03*
D50*
X-14554986Y000000000D03*
D50*
X-09445014Y000000000D03*
D52*
X-25639324Y-10000000D03*
D52*
X-30360676Y-10000000D03*
D54*
X-18246636Y-10000000D03*
D54*
X-19753364Y-10000000D03*
D56*
X-13251005Y-09999873D03*
D56*
X-14748995Y-10000127D03*
D58*
X-02275000Y-02900000D03*
D58*
X-02275000Y002900000D03*
D58*
X-01625000Y-02900000D03*
D58*
X-01625000Y002900000D03*
D58*
X-00975000Y-02900000D03*
D58*
X-00975000Y002900000D03*
D58*
X-00325000Y-02900000D03*
D58*
X-00325000Y002900000D03*
D58*
X000325000Y-02900000D03*
D58*
X000325000Y002900000D03*
D58*
X000975000Y-02900000D03*
D58*
X000975000Y002900000D03*
D58*
X001625000Y-02900000D03*
D58*
X001625000Y002900000D03*
D58*
X002275000Y-02900000D03*
D58*
X002275000Y002900000D03*
D60*
X000000000Y000000000D03*
D61*
X000000000Y000000000D03*
D63*
X-11066288Y-09000000D03*
D63*
X-04933712Y-09000000D03*
D63*
X011066288Y-09000000D03*
D63*
X004933712Y-09000000D03*
D42*
X-05499995Y-24000000D03*
D42*
X-00500005Y-24000000D03*
D42*
X008500005Y-24000000D03*
D42*
X013499995Y-24000000D03*
D65*
X-03300002Y006500000D03*
D65*
X-05299998Y006500000D03*
D65*
X005299998Y007000000D03*
D65*
X003300002Y007000000D03*
D67*
X-00975000Y006350024D03*
D67*
X-00975000Y004949976D03*
D67*
X000975000Y006350024D03*
D67*
X000975000Y004949976D03*
D69*
X026533701Y016000000D03*
D69*
X023993701Y016000000D03*
D70*
X021453701Y016000000D03*
D69*
X026533701Y009000000D03*
D69*
X023993701Y009000000D03*
D70*
X021453701Y009000000D03*
D69*
X026533701Y002000000D03*
D69*
X023993701Y002000000D03*
D70*
X021453701Y002000000D03*
D54*
X016246636Y017000000D03*
D54*
X017753364Y017000000D03*
D54*
X012753364Y017000000D03*
D54*
X011246636Y017000000D03*
D54*
X016246636Y013000000D03*
D54*
X017753364Y013000000D03*
D54*
X012753364Y013000000D03*
D54*
X011246636Y013000000D03*
D54*
X016246636Y009000000D03*
D54*
X017753364Y009000000D03*
D54*
X012753364Y009000000D03*
D54*
X011246636Y009000000D03*
D54*
X016246636Y005000000D03*
D54*
X017753364Y005000000D03*
D54*
X012753364Y005000000D03*
D54*
X011246636Y005000000D03*
D54*
X016246636Y001000000D03*
D54*
X017753364Y001000000D03*
D54*
X012753364Y001000000D03*
D54*
X011246636Y001000000D03*
D71*
X007992497Y010025148D03*
D71*
X007992497Y010675134D03*
D71*
X007992497Y011325120D03*
D71*
X007992497Y011975106D03*
D73*
X003992505Y011975360D03*
D73*
X003992505Y011325120D03*
D73*
X003992505Y010674880D03*
D73*
X003992505Y010024640D03*
D75*
X001700024Y011000000D03*
D75*
X000299976Y011000000D03*
D54*
X024753364Y-05000000D03*
D54*
X023246636Y-05000000D03*
D54*
X-06246636Y017000000D03*
D54*
X-07753364Y017000000D03*
D56*
X-06251005Y021000127D03*
D56*
X-07748995Y020999873D03*
D54*
X-01246636Y017000000D03*
D54*
X-02753364Y017000000D03*
D56*
X-01251005Y021000127D03*
D56*
X-02748995Y020999873D03*
D54*
X003753364Y017000000D03*
D54*
X002246636Y017000000D03*
D56*
X003748995Y021000127D03*
D56*
X002251005Y020999873D03*
D54*
X024753364Y-10000000D03*
D54*
X023246636Y-10000000D03*
D56*
X028249938Y-10000000D03*
D56*
X029750062Y-10000000D03*
D54*
X-06753364Y010000000D03*
D54*
X-05246636Y010000000D03*
D54*
X-09753364Y007000000D03*
D54*
X-08246636Y007000000D03*
D54*
X029753364Y-15000000D03*
D54*
X028246636Y-15000000D03*
D75*
X023299976Y-15000000D03*
D75*
X024700024Y-15000000D03*
D69*
X023466299Y-20000000D03*
D69*
X026006299Y-20000000D03*
D70*
X028546299Y-20000000D03*
D77*
X-16000000Y-15000000D03*
D77*
X014000000Y-13000000D03*
D77*
X-08000000Y-15000000D03*
D77*
X-20000000Y-07000000D03*
D77*
X000000000Y-15000000D03*
D77*
X004000000Y-15000000D03*
D77*
X008000000Y-15000000D03*
M02*